<svg version="1.1" viewBox="0.0 0.0 989.6692913385826 725.8188976377953" fill="none" stroke="none" stroke-linecap="square" stroke-miterlimit="10" xmlns:xlink="http://www.w3.org/1999/xlink" xmlns="http://www.w3.org/2000/svg"><clipPath id="p.0"><path d="m0 0l989.6693 0l0 725.8189l-989.6693 0l0 -725.8189z" clip-rule="nonzero"/></clipPath><g clip-path="url(#p.0)"><path fill="#000000" fill-opacity="0.0" d="m0 0l989.6693 0l0 725.8189l-989.6693 0z" fill-rule="evenodd"/><path fill="#000000" fill-opacity="0.0" d="m255.4105 669.4743c-8.21106 -7.781555 -17.538818 -26.053528 -7.8777924 -32.15918c6.562546 -4.147461 18.293121 -0.81121826 23.026794 5.168396c4.525696 5.716858 2.302948 16.193909 -3.0295715 21.247498c-0.769104 0.72888184 -1.2120361 -1.840332 -1.2120361 -2.8710938c0 -2.3364868 2.4977722 -4.090637 4.2416077 -5.7422485c5.891083 -5.579468 17.31073 -10.122437 24.23999 -5.743286c3.310089 2.09198 6.1038513 6.7593994 4.847107 10.336853c-3.5231934 10.028931 -17.294281 23.107971 -27.268463 18.377441c-0.92099 -0.4368286 1.9996948 -0.57489014 3.029602 -0.57489014c2.6949768 0 5.2352295 1.2221069 7.877777 1.7235107c6.0235596 1.1429443 6.4364624 12.38324 3.029602 17.227722c-3.662506 5.207947 -12.272308 10.265686 -18.178589 7.4657593c-6.134186 -2.90802 -9.702606 -14.359192 -4.848236 -18.951233c0.8578491 -0.8114624 0 2.2973022 0 3.4459229c0 2.4959717 0.31793213 5.128662 -0.6065674 7.4657593c-1.7134705 4.331543 -2.1552124 9.857239 -6.0591736 12.634155c-3.3964996 2.4159546 -9.084518 2.6446533 -12.725998 0.5737915c-6.936661 -3.9447632 -8.148041 -19.025146 -1.2120667 -22.971008c3.0247345 -1.7207031 10.551331 -7.2634277 9.696442 -4.0197144c-1.0383911 3.9398193 -8.440964 1.7224121 -12.726013 1.7224121c-8.880753 0 -23.295166 0.6987915 -25.450912 -7.4656982c-1.5270996 -5.7836304 6.4835205 -12.468994 12.726013 -13.207947c9.555801 -1.1312256 19.868668 0.5101929 28.480484 4.5946045" fill-rule="evenodd"/><path stroke="#6fa8dc" stroke-width="1.0" stroke-linejoin="round" stroke-linecap="butt" d="m255.4105 669.4743c-8.21106 -7.781555 -17.538818 -26.053528 -7.8777924 -32.15918c6.562546 -4.147461 18.293121 -0.81121826 23.026794 5.168396c4.525696 5.716858 2.302948 16.193909 -3.0295715 21.247498c-0.769104 0.72888184 -1.2120361 -1.840332 -1.2120361 -2.8710938c0 -2.3364868 2.4977722 -4.090637 4.2416077 -5.7422485c5.891083 -5.579468 17.31073 -10.122437 24.23999 -5.743286c3.310089 2.09198 6.1038513 6.7593994 4.847107 10.336853c-3.5231934 10.028931 -17.294281 23.107971 -27.268463 18.377441c-0.92099 -0.4368286 1.9996948 -0.57489014 3.029602 -0.57489014c2.6949768 0 5.2352295 1.2221069 7.877777 1.7235107c6.0235596 1.1429443 6.4364624 12.38324 3.029602 17.227722c-3.662506 5.207947 -12.272308 10.265686 -18.178589 7.4657593c-6.134186 -2.90802 -9.702606 -14.359192 -4.848236 -18.951233c0.8578491 -0.8114624 0 2.2973022 0 3.4459229c0 2.4959717 0.31793213 5.128662 -0.6065674 7.4657593c-1.7134705 4.331543 -2.1552124 9.857239 -6.0591736 12.634155c-3.3964996 2.4159546 -9.084518 2.6446533 -12.725998 0.5737915c-6.936661 -3.9447632 -8.148041 -19.025146 -1.2120667 -22.971008c3.0247345 -1.7207031 10.551331 -7.2634277 9.696442 -4.0197144c-1.0383911 3.9398193 -8.440964 1.7224121 -12.726013 1.7224121c-8.880753 0 -23.295166 0.6987915 -25.450912 -7.4656982c-1.5270996 -5.7836304 6.4835205 -12.468994 12.726013 -13.207947c9.555801 -1.1312256 19.868668 0.5101929 28.480484 4.5946045" fill-rule="evenodd"/><path fill="#000000" fill-opacity="0.0" d="m253.94537 670.0425c-2.8059845 0 -7.2712097 1.3605347 -7.2712097 4.0197754c0 5.2943726 7.3532715 8.882141 12.724915 10.336792c6.3708496 1.7252808 13.660278 -5.5284424 15.755585 -11.485474c1.3534851 -3.8480225 -0.08956909 -10.5008545 -4.241638 -11.485474c-6.052582 -1.4353027 -12.900574 3.6950684 -16.362183 8.61438" fill-rule="evenodd"/><path stroke="#45818e" stroke-width="2.0" stroke-linejoin="round" stroke-linecap="butt" d="m253.94537 670.0425c-2.8059845 0 -7.2712097 1.3605347 -7.2712097 4.0197754c0 5.2943726 7.3532715 8.882141 12.724915 10.336792c6.3708496 1.7252808 13.660278 -5.5284424 15.755585 -11.485474c1.3534851 -3.8480225 -0.08956909 -10.5008545 -4.241638 -11.485474c-6.052582 -1.4353027 -12.900574 3.6950684 -16.362183 8.61438" fill-rule="evenodd"/><path fill="#000000" fill-opacity="0.0" d="m754.58594 113.39386c-10.792114 -10.430832 -23.052002 -34.923576 -10.354126 -43.107925c8.625488 -5.559471 24.043457 -1.0873718 30.265137 6.928032c5.948303 7.6632004 3.0268555 21.707184 -3.9818726 28.4813c-1.0108643 0.97702026 -1.5930786 -2.4668732 -1.5930786 -3.8485947c0 -3.1319275 3.282959 -5.483261 5.574951 -7.697197c7.74292 -7.479088 22.752258 -13.568703 31.85968 -7.698593c4.350586 2.804161 8.022583 9.060638 6.3707275 13.856064c-4.6306763 13.443298 -22.73059 30.975204 -35.840088 24.63411c-1.2105103 -0.5855255 2.628296 -0.7705612 3.9819336 -0.7705612c3.5421143 0 6.8809204 1.6381607 10.354126 2.3102798c7.916992 1.532074 8.459656 16.599197 3.9818726 23.092987c-4.8137207 6.9810333 -16.130005 13.760681 -23.892883 10.007462c-8.062439 -3.8980255 -12.752563 -19.247833 -6.3721924 -25.40326c1.1274414 -1.0877533 0 3.0794373 0 4.619156c0 3.3457031 0.41784668 6.874695 -0.79730225 10.007477c-2.2520752 5.8062897 -2.8326416 13.213165 -7.963806 16.935516c-4.4641724 3.2385101 -11.940186 3.545044 -16.726318 0.7691498c-9.1171875 -5.287781 -10.709351 -25.502365 -1.5930786 -30.79158c3.975525 -2.3065796 13.868042 -9.736313 12.744446 -5.3883057c-1.3648071 5.2812195 -11.09436 2.3088684 -16.72638 2.3088684c-11.672302 0 -30.617798 0.93666077 -33.451233 -10.007469c-2.007141 -7.752678 8.521606 -16.714088 16.72638 -17.704666c12.55957 -1.5163498 26.114258 0.68390656 37.433105 6.158882" fill-rule="evenodd"/><path stroke="#6fa8dc" stroke-width="1.0" stroke-linejoin="round" stroke-linecap="butt" d="m754.58594 113.39386c-10.792114 -10.430832 -23.052002 -34.923576 -10.354126 -43.107925c8.625488 -5.559471 24.043457 -1.0873718 30.265137 6.928032c5.948303 7.6632004 3.0268555 21.707184 -3.9818726 28.4813c-1.0108643 0.97702026 -1.5930786 -2.4668732 -1.5930786 -3.8485947c0 -3.1319275 3.282959 -5.483261 5.574951 -7.697197c7.74292 -7.479088 22.752258 -13.568703 31.85968 -7.698593c4.350586 2.804161 8.022583 9.060638 6.3707275 13.856064c-4.6306763 13.443298 -22.73059 30.975204 -35.840088 24.63411c-1.2105103 -0.5855255 2.628296 -0.7705612 3.9819336 -0.7705612c3.5421143 0 6.8809204 1.6381607 10.354126 2.3102798c7.916992 1.532074 8.459656 16.599197 3.9818726 23.092987c-4.8137207 6.9810333 -16.130005 13.760681 -23.892883 10.007462c-8.062439 -3.8980255 -12.752563 -19.247833 -6.3721924 -25.40326c1.1274414 -1.0877533 0 3.0794373 0 4.619156c0 3.3457031 0.41784668 6.874695 -0.79730225 10.007477c-2.2520752 5.8062897 -2.8326416 13.213165 -7.963806 16.935516c-4.4641724 3.2385101 -11.940186 3.545044 -16.726318 0.7691498c-9.1171875 -5.287781 -10.709351 -25.502365 -1.5930786 -30.79158c3.975525 -2.3065796 13.868042 -9.736313 12.744446 -5.3883057c-1.3648071 5.2812195 -11.09436 2.3088684 -16.72638 2.3088684c-11.672302 0 -30.617798 0.93666077 -33.451233 -10.007469c-2.007141 -7.752678 8.521606 -16.714088 16.72638 -17.704666c12.55957 -1.5163498 26.114258 0.68390656 37.433105 6.158882" fill-rule="evenodd"/><path fill="#000000" fill-opacity="0.0" d="m754.5868 113.39208c-3.6880493 0 -9.556885 1.823761 -9.556885 5.3883133c0 7.096916 9.664734 11.906158 16.724915 13.856064c8.373474 2.3126373 17.954285 -7.4106216 20.708252 -15.395782c1.7789307 -5.158142 -0.11773682 -14.075951 -5.574951 -15.39579c-7.9552 -1.9239578 -16.95581 4.953087 -21.505554 11.547195" fill-rule="evenodd"/><path stroke="#45818e" stroke-width="2.0" stroke-linejoin="round" stroke-linecap="butt" d="m754.5868 113.39208c-3.6880493 0 -9.556885 1.823761 -9.556885 5.3883133c0 7.096916 9.664734 11.906158 16.724915 13.856064c8.373474 2.3126373 17.954285 -7.4106216 20.708252 -15.395782c1.7789307 -5.158142 -0.11773682 -14.075951 -5.574951 -15.39579c-7.9552 -1.9239578 -16.95581 4.953087 -21.505554 11.547195" fill-rule="evenodd"/><path fill="#000000" fill-opacity="0.0" d="m296.26187 192.8822c10.434387 -11.689835 22.287811 -39.13884 10.010864 -48.311035c-8.339478 -6.2304993 -23.246338 -1.2186127 -29.26175 7.7642517c-5.7510986 8.588135 -2.9265137 24.32721 3.849884 31.91896c0.97735596 1.0949554 1.5402527 -2.764618 1.5402527 -4.3131104c0 -3.5099487 -3.1741028 -6.145096 -5.3901367 -8.626236c-7.4861755 -8.381821 -21.997955 -15.206451 -30.803406 -8.627823c-4.206375 3.142624 -7.7566223 10.154251 -6.159546 15.528488c4.4771423 15.065887 21.97699 34.713882 34.651886 27.607437c1.1703796 -0.6562042 -2.5411377 -0.86357117 -3.849884 -0.86357117c-3.4247437 0 -6.6528015 1.8358765 -10.010864 2.5891266c-7.6545563 1.7169952 -8.179245 18.602707 -3.8499146 25.880295c4.6542053 7.823639 15.595245 15.421585 23.1008 11.215363c7.7951355 -4.368515 12.329742 -21.57103 6.1609497 -28.469421c-1.0900879 -1.2190399 0 3.451126 0 5.176697c0 3.7495117 -0.4039917 7.7044373 0.7708435 11.215363c2.1774292 6.5070953 2.7387695 14.807983 7.6997986 18.979614c4.316162 3.6293945 11.544312 3.972931 16.171814 0.8619995c8.81488 -5.9260254 10.354279 -28.580505 1.5402527 -34.508102c-3.84375 -2.5849915 -13.408325 -10.911499 -12.32193 -6.038681c1.3195496 5.9186554 10.726501 2.587555 16.171814 2.587555c11.28537 0 29.602783 1.0496979 32.342224 -11.215378c1.9406128 -8.688416 -8.239044 -18.73146 -16.171814 -19.841599c-12.143219 -1.6993713 -25.248505 0.766449 -36.19214 6.902252" fill-rule="evenodd"/><path stroke="#6fa8dc" stroke-width="1.0" stroke-linejoin="round" stroke-linecap="butt" d="m296.26187 192.8822c10.434387 -11.689835 22.287811 -39.13884 10.010864 -48.311035c-8.339478 -6.2304993 -23.246338 -1.2186127 -29.26175 7.7642517c-5.7510986 8.588135 -2.9265137 24.32721 3.849884 31.91896c0.97735596 1.0949554 1.5402527 -2.764618 1.5402527 -4.3131104c0 -3.5099487 -3.1741028 -6.145096 -5.3901367 -8.626236c-7.4861755 -8.381821 -21.997955 -15.206451 -30.803406 -8.627823c-4.206375 3.142624 -7.7566223 10.154251 -6.159546 15.528488c4.4771423 15.065887 21.97699 34.713882 34.651886 27.607437c1.1703796 -0.6562042 -2.5411377 -0.86357117 -3.849884 -0.86357117c-3.4247437 0 -6.6528015 1.8358765 -10.010864 2.5891266c-7.6545563 1.7169952 -8.179245 18.602707 -3.8499146 25.880295c4.6542053 7.823639 15.595245 15.421585 23.1008 11.215363c7.7951355 -4.368515 12.329742 -21.57103 6.1609497 -28.469421c-1.0900879 -1.2190399 0 3.451126 0 5.176697c0 3.7495117 -0.4039917 7.7044373 0.7708435 11.215363c2.1774292 6.5070953 2.7387695 14.807983 7.6997986 18.979614c4.316162 3.6293945 11.544312 3.972931 16.171814 0.8619995c8.81488 -5.9260254 10.354279 -28.580505 1.5402527 -34.508102c-3.84375 -2.5849915 -13.408325 -10.911499 -12.32193 -6.038681c1.3195496 5.9186554 10.726501 2.587555 16.171814 2.587555c11.28537 0 29.602783 1.0496979 32.342224 -11.215378c1.9406128 -8.688416 -8.239044 -18.73146 -16.171814 -19.841599c-12.143219 -1.6993713 -25.248505 0.766449 -36.19214 6.902252" fill-rule="evenodd"/><path fill="#000000" fill-opacity="0.0" d="m298.12372 193.73573c3.5657654 0 9.240051 2.0438843 9.240051 6.038681c0 7.9535065 -9.34433 13.343231 -16.17041 15.528488c-8.095917 2.5917664 -17.3591 -8.305084 -20.021729 -17.254059c-1.7199707 -5.780716 0.11383057 -15.774902 5.3901367 -17.254044c7.6914062 -2.156189 16.393646 5.5509186 20.792542 12.940933" fill-rule="evenodd"/><path stroke="#45818e" stroke-width="2.0" stroke-linejoin="round" stroke-linecap="butt" d="m298.12372 193.73573c3.5657654 0 9.240051 2.0438843 9.240051 6.038681c0 7.9535065 -9.34433 13.343231 -16.17041 15.528488c-8.095917 2.5917664 -17.3591 -8.305084 -20.021729 -17.254059c-1.7199707 -5.780716 0.11383057 -15.774902 5.3901367 -17.254044c7.6914062 -2.156189 16.393646 5.5509186 20.792542 12.940933" fill-rule="evenodd"/><path fill="#000000" fill-opacity="0.0" d="m542.1161 272.8774c8.690491 0 17.472107 -0.2276001 26.044556 1.1126709c4.8151245 0.75283813 17.658936 0.09301758 14.207275 3.3339233c-3.11969 2.9292297 -13.022278 1.9192505 -13.022278 -2.223297c0 -2.9868164 6.331665 0.62106323 9.46936 1.1126709c7.4365234 1.1651611 15.03009 1.2229309 22.493774 2.223297c2.3764038 0.31851196 8.54364 2.9139404 7.1036377 1.1106262c-13.39093 -16.76944 -39.061584 -25.001892 -47.35327 -44.461807c-2.041687 -4.7917023 -9.803894 -10.797714 -5.9207764 -14.450394c4.932312 -4.639633 9.269714 9.815704 14.207275 14.450394c14.417725 13.533203 23.201477 33.67598 41.43463 42.23851c3.156433 1.4822998 4.5007935 -5.5848083 4.735779 -8.891144c0.97216797 -13.678864 0 -27.41858 0 -41.127884c0 -5.9396515 -5.1430664 -17.784317 1.1828613 -17.784317c4.119446 0 3.0961914 7.270157 3.5507202 11.114441c1.4805298 12.521057 0 25.195969 0 37.793976c0 5.186981 -1.7488403 20.481232 0 15.561005c2.807495 -7.898468 4.5533447 -16.414642 9.471558 -23.343567" fill-rule="evenodd"/><path stroke="#ea9999" stroke-width="1.0" stroke-linejoin="round" stroke-linecap="butt" d="m542.1161 272.8774c8.690491 0 17.472107 -0.2276001 26.044556 1.1126709c4.8151245 0.75283813 17.658936 0.09301758 14.207275 3.3339233c-3.11969 2.9292297 -13.022278 1.9192505 -13.022278 -2.223297c0 -2.9868164 6.331665 0.62106323 9.46936 1.1126709c7.4365234 1.1651611 15.03009 1.2229309 22.493774 2.223297c2.3764038 0.31851196 8.54364 2.9139404 7.1036377 1.1106262c-13.39093 -16.76944 -39.061584 -25.001892 -47.35327 -44.461807c-2.041687 -4.7917023 -9.803894 -10.797714 -5.9207764 -14.450394c4.932312 -4.639633 9.269714 9.815704 14.207275 14.450394c14.417725 13.533203 23.201477 33.67598 41.43463 42.23851c3.156433 1.4822998 4.5007935 -5.5848083 4.735779 -8.891144c0.97216797 -13.678864 0 -27.41858 0 -41.127884c0 -5.9396515 -5.1430664 -17.784317 1.1828613 -17.784317c4.119446 0 3.0961914 7.270157 3.5507202 11.114441c1.4805298 12.521057 0 25.195969 0 37.793976c0 5.186981 -1.7488403 20.481232 0 15.561005c2.807495 -7.898468 4.5533447 -16.414642 9.471558 -23.343567" fill-rule="evenodd"/><path fill="#000000" fill-opacity="0.0" d="m648.6628 227.30559c-9.2092285 11.117767 -17.725525 22.737885 -26.044556 34.458023c-2.8447876 4.007843 -4.298279 8.767944 -5.918579 13.3377075c-0.44958496 1.2679138 -3.7181396 2.9136353 -2.36792 3.335968c4.5549927 1.4247437 9.418396 -2.54422 14.207336 -2.223297c12.125061 0.81256104 23.720764 5.0126953 35.513855 7.7805176c3.9971313 0.93811035 13.141541 -0.33633423 11.839355 3.3339233c-2.6221313 7.3907166 -16.615662 1.972229 -24.861633 1.1126709c-10.618347 -1.1068726 -21.451904 -0.42871094 -31.963135 -2.223297c-4.675537 -0.7982483 -10.846924 -4.2677917 -14.207275 -1.1126709c-1.5029907 1.4112244 4.0197754 1.3305054 5.9207764 2.223297c25.432373 11.944061 5.014221 2.854187 14.205139 7.7825317c15.841064 8.494354 35.843567 16.331757 42.61963 32.23471c3.081726 7.2325745 -15.590515 -5.682892 -22.493774 -10.003784c-6.8327026 -4.2767944 -14.319275 -7.887726 -20.125854 -13.339783c-4.147949 -3.8946533 -7.156189 -11.11441 -13.022278 -11.11441c-6.362732 0 -1.7922974 11.834534 -2.367859 17.784302c-0.9100952 9.407379 -5.9084473 18.885406 -13.022278 25.56482c-0.59368896 0.5574646 -4.45697 6.6698914 -4.735779 6.6698914c-3.2541504 0 -2.3656616 -5.8377075 -2.3656616 -8.893188c0 -14.123291 -0.097473145 -28.536896 3.5507202 -42.238495c0.77160645 -2.8979797 7.4123535 -7.3187866 8.286499 -4.446594c3.6431274 11.970856 -13.322388 22.236206 -23.676636 30.013458c-9.956665 7.4785767 -26.501709 21.804688 -35.516052 13.3377075c-13.647583 -12.818939 20.35675 -33.53183 37.88391 -41.12787c6.1221313 -2.6532593 12.265747 -5.7731934 18.940857 -6.6678467c2.3764038 -0.31851196 8.544128 -0.69241333 7.1036987 1.1106262c-5.171875 6.4737244 -16.471985 4.8160706 -24.861694 6.6698914c-10.713928 2.3673706 -21.023987 6.638092 -31.963135 7.780487c-6.2749023 0.6553345 -12.627258 0 -18.940857 0c-1.5786133 0 -6.314331 0 -4.735779 0c20.705261 0 40.887146 -6.7029724 61.560547 -7.780487c4.727783 -0.24642944 9.470093 0 14.205139 0c2.367859 0 9.349976 0.70306396 7.1036377 0c-21.664612 -6.7805786 -44.683838 -10.421967 -65.11127 -20.00763c-4.0249634 -1.8887024 -12.076538 -3.7742615 -10.654419 -7.7825317c1.7637329 -4.9711 11.159302 0.9521179 16.572998 2.223297c13.935181 3.2720642 27.576294 7.5684814 41.434692 11.116455c5.54303 1.4191284 12.510315 8.261169 16.572937 4.446594c3.7954102 -3.5636292 -8.599243 -6.037964 -13.022217 -8.893188c-11.578796 -7.474579 -25.35498 -13.474579 -33.145996 -24.454193c-0.6564331 -0.92510986 1.2069092 -0.21784973 2.367859 0c15.248962 2.8614655 26.885925 15.2404175 37.881775 25.56482c3.7541504 3.5249329 6.9002075 7.5915527 10.654358 11.116486c2.367859 2.223297 7.1036377 9.814087 7.1036377 6.6698914c0 -17.461884 -10.429993 -33.539307 -16.572998 -50.021072c-1.8155518 -4.871277 -8.377136 -9.83345 -5.9207764 -14.450394c2.36615 -4.447403 6.2333984 8.435944 7.1036377 13.339767c3.253479 18.332504 -4.1098633 38.95204 4.735779 55.578262c2.6036987 4.893982 4.4154053 -10.361755 8.286499 -14.450378c9.869263 -10.42395 22.92035 -17.74765 34.330994 -26.67749c6.394409 -5.0042114 21.308777 -20.04309 21.308777 -12.227112c0 8.783386 -16.209595 8.882751 -24.859497 12.227112c-10.282288 3.9754639 -19.651306 9.781525 -29.597412 14.450378c-4.6019897 2.1602478 -8.610962 5.294159 -13.022278 7.7805176c-2.576477 1.4522095 -10.409424 5.330902 -8.286499 3.3339233c13.20929 -12.425415 37.90326 1.1191711 55.641907 6.6698914c10.045349 3.143341 28.412415 3.395752 28.412415 13.337738c0 4.2246704 -8.522827 3.3359375 -13.022278 3.3359375c-14.472534 0 -28.49115 -4.834961 -42.61963 -7.7805176c-4.1488037 -0.8649292 -14.845032 -1.627594 -11.837219 -4.4465637c3.268982 -3.0638123 8.640381 3.0751343 13.022217 4.4465637c14.255188 4.4615784 28.38861 9.671082 41.43463 16.671661c4.7597046 2.5540771 18.081604 4.1427917 14.205139 7.7825623c-4.5422974 4.2648926 -12.725159 -1.813446 -18.940857 -3.335968c-14.127808 -3.4606018 -28.17804 -7.5924683 -41.434692 -13.337738c-5.3268433 -2.3085938 -11.327576 -8.022827 -16.575134 -5.5592346c-3.7524414 1.7616577 5.7719116 5.741455 8.288696 8.893158c5.4031982 6.76651 8.5529785 14.888275 13.022217 22.230927c2.453308 4.030548 12.045715 12.227081 7.1015015 12.227081c-5.866089 0 -8.38678 -7.7727966 -11.83728 -12.227081c-6.1276855 -7.910492 -13.161438 -15.203247 -18.940857 -23.341553c-4.1132812 -5.792145 -16.885925 -18.896973 -9.471497 -18.896973c12.902405 0 13.270874 21.39737 15.390137 33.34738c0.99139404 5.590271 8.948303 14.135315 3.5507202 16.67163c-3.0354614 1.4263611 -4.40094 -4.9296875 -5.918579 -7.780487c-6.1953735 -11.637695 -11.927246 -23.848114 -14.207336 -36.681305c-0.9113159 -5.1293335 -6.4363403 -17.207275 -1.1828003 -15.561035c15.291992 4.791931 -7.860779 30.29013 -17.758057 42.238525c-2.8251343 3.410614 -9.779297 10.534454 -11.837219 6.6698914c-4.845886 -9.100006 8.938293 -19.653503 17.75586 -25.566864c3.7584229 -2.5205383 17.64087 -4.44458 13.022217 -4.44458c-16.80243 0 -33.565308 -3.447876 -49.72113 -7.7825317c-4.93219 -1.3233337 -14.205078 -0.7408447 -14.205078 -5.5572205c0 -4.816803 10.329895 -0.7919922 15.390137 0c13.761841 2.1539307 27.531006 4.470154 41.43463 5.5572205c1.9660645 0.15371704 6.800232 1.657135 5.91864 0c-7.2495117 -13.626129 -27.270264 -17.616669 -36.698914 -30.011414c-2.7713013 -3.6430817 -9.290161 -9.061447 -5.91864 -12.227112c4.5426025 -4.265167 9.078308 8.578445 13.022278 13.339783c9.837585 11.876343 20.405762 23.243073 29.595276 35.568634c3.5352783 4.7417603 5.9907837 15.169128 11.839355 13.339752c4.2686157 -1.3351746 3.2698364 -8.010834 3.5507812 -12.227112c1.0394897 -15.602295 0.5282593 -31.856232 -4.735779 -46.687134c-2.178772 -6.138443 -7.819824 -13.108719 -4.735779 -18.894943c0.7282715 -1.366333 1.1850586 2.9187012 1.1850586 4.446594c0 5.606415 0.9435425 12.006393 -2.36792 16.671646c-3.7269287 5.2506256 -0.94226074 12.910919 1.1828613 18.896973c2.725525 7.677307 1.0147705 17.616028 7.1036377 23.343597" fill-rule="evenodd"/><path stroke="#ea9999" stroke-width="1.0" stroke-linejoin="round" stroke-linecap="butt" d="m648.6628 227.30559c-9.2092285 11.117767 -17.725525 22.737885 -26.044556 34.458023c-2.8447876 4.007843 -4.298279 8.767944 -5.918579 13.3377075c-0.44958496 1.2679138 -3.7181396 2.9136353 -2.36792 3.335968c4.5549927 1.4247437 9.418396 -2.54422 14.207336 -2.223297c12.125061 0.81256104 23.720764 5.0126953 35.513855 7.7805176c3.9971313 0.93811035 13.141541 -0.33633423 11.839355 3.3339233c-2.6221313 7.3907166 -16.615662 1.972229 -24.861633 1.1126709c-10.618347 -1.1068726 -21.451904 -0.42871094 -31.963135 -2.223297c-4.675537 -0.7982483 -10.846924 -4.2677917 -14.207275 -1.1126709c-1.5029907 1.4112244 4.0197754 1.3305054 5.9207764 2.223297c25.432373 11.944061 5.014221 2.854187 14.205139 7.7825317c15.841064 8.494354 35.843567 16.331757 42.61963 32.23471c3.081726 7.2325745 -15.590515 -5.682892 -22.493774 -10.003784c-6.8327026 -4.2767944 -14.319275 -7.887726 -20.125854 -13.339783c-4.147949 -3.8946533 -7.156189 -11.11441 -13.022278 -11.11441c-6.362732 0 -1.7922974 11.834534 -2.367859 17.784302c-0.9100952 9.407379 -5.9084473 18.885406 -13.022278 25.56482c-0.59368896 0.5574646 -4.45697 6.6698914 -4.735779 6.6698914c-3.2541504 0 -2.3656616 -5.8377075 -2.3656616 -8.893188c0 -14.123291 -0.097473145 -28.536896 3.5507202 -42.238495c0.77160645 -2.8979797 7.4123535 -7.3187866 8.286499 -4.446594c3.6431274 11.970856 -13.322388 22.236206 -23.676636 30.013458c-9.956665 7.4785767 -26.501709 21.804688 -35.516052 13.3377075c-13.647583 -12.818939 20.35675 -33.53183 37.88391 -41.12787c6.1221313 -2.6532593 12.265747 -5.7731934 18.940857 -6.6678467c2.3764038 -0.31851196 8.544128 -0.69241333 7.1036987 1.1106262c-5.171875 6.4737244 -16.471985 4.8160706 -24.861694 6.6698914c-10.713928 2.3673706 -21.023987 6.638092 -31.963135 7.780487c-6.2749023 0.6553345 -12.627258 0 -18.940857 0c-1.5786133 0 -6.314331 0 -4.735779 0c20.705261 0 40.887146 -6.7029724 61.560547 -7.780487c4.727783 -0.24642944 9.470093 0 14.205139 0c2.367859 0 9.349976 0.70306396 7.1036377 0c-21.664612 -6.7805786 -44.683838 -10.421967 -65.11127 -20.00763c-4.0249634 -1.8887024 -12.076538 -3.7742615 -10.654419 -7.7825317c1.7637329 -4.9711 11.159302 0.9521179 16.572998 2.223297c13.935181 3.2720642 27.576294 7.5684814 41.434692 11.116455c5.54303 1.4191284 12.510315 8.261169 16.572937 4.446594c3.7954102 -3.5636292 -8.599243 -6.037964 -13.022217 -8.893188c-11.578796 -7.474579 -25.35498 -13.474579 -33.145996 -24.454193c-0.6564331 -0.92510986 1.2069092 -0.21784973 2.367859 0c15.248962 2.8614655 26.885925 15.2404175 37.881775 25.56482c3.7541504 3.5249329 6.9002075 7.5915527 10.654358 11.116486c2.367859 2.223297 7.1036377 9.814087 7.1036377 6.6698914c0 -17.461884 -10.429993 -33.539307 -16.572998 -50.021072c-1.8155518 -4.871277 -8.377136 -9.83345 -5.9207764 -14.450394c2.36615 -4.447403 6.2333984 8.435944 7.1036377 13.339767c3.253479 18.332504 -4.1098633 38.95204 4.735779 55.578262c2.6036987 4.893982 4.4154053 -10.361755 8.286499 -14.450378c9.869263 -10.42395 22.92035 -17.74765 34.330994 -26.67749c6.394409 -5.0042114 21.308777 -20.04309 21.308777 -12.227112c0 8.783386 -16.209595 8.882751 -24.859497 12.227112c-10.282288 3.9754639 -19.651306 9.781525 -29.597412 14.450378c-4.6019897 2.1602478 -8.610962 5.294159 -13.022278 7.7805176c-2.576477 1.4522095 -10.409424 5.330902 -8.286499 3.3339233c13.20929 -12.425415 37.90326 1.1191711 55.641907 6.6698914c10.045349 3.143341 28.412415 3.395752 28.412415 13.337738c0 4.2246704 -8.522827 3.3359375 -13.022278 3.3359375c-14.472534 0 -28.49115 -4.834961 -42.61963 -7.7805176c-4.1488037 -0.8649292 -14.845032 -1.627594 -11.837219 -4.4465637c3.268982 -3.0638123 8.640381 3.0751343 13.022217 4.4465637c14.255188 4.4615784 28.38861 9.671082 41.43463 16.671661c4.7597046 2.5540771 18.081604 4.1427917 14.205139 7.7825623c-4.5422974 4.2648926 -12.725159 -1.813446 -18.940857 -3.335968c-14.127808 -3.4606018 -28.17804 -7.5924683 -41.434692 -13.337738c-5.3268433 -2.3085938 -11.327576 -8.022827 -16.575134 -5.5592346c-3.7524414 1.7616577 5.7719116 5.741455 8.288696 8.893158c5.4031982 6.76651 8.5529785 14.888275 13.022217 22.230927c2.453308 4.030548 12.045715 12.227081 7.1015015 12.227081c-5.866089 0 -8.38678 -7.7727966 -11.83728 -12.227081c-6.1276855 -7.910492 -13.161438 -15.203247 -18.940857 -23.341553c-4.1132812 -5.792145 -16.885925 -18.896973 -9.471497 -18.896973c12.902405 0 13.270874 21.39737 15.390137 33.34738c0.99139404 5.590271 8.948303 14.135315 3.5507202 16.67163c-3.0354614 1.4263611 -4.40094 -4.9296875 -5.918579 -7.780487c-6.1953735 -11.637695 -11.927246 -23.848114 -14.207336 -36.681305c-0.9113159 -5.1293335 -6.4363403 -17.207275 -1.1828003 -15.561035c15.291992 4.791931 -7.860779 30.29013 -17.758057 42.238525c-2.8251343 3.410614 -9.779297 10.534454 -11.837219 6.6698914c-4.845886 -9.100006 8.938293 -19.653503 17.75586 -25.566864c3.7584229 -2.5205383 17.64087 -4.44458 13.022217 -4.44458c-16.80243 0 -33.565308 -3.447876 -49.72113 -7.7825317c-4.93219 -1.3233337 -14.205078 -0.7408447 -14.205078 -5.5572205c0 -4.816803 10.329895 -0.7919922 15.390137 0c13.761841 2.1539307 27.531006 4.470154 41.43463 5.5572205c1.9660645 0.15371704 6.800232 1.657135 5.91864 0c-7.2495117 -13.626129 -27.270264 -17.616669 -36.698914 -30.011414c-2.7713013 -3.6430817 -9.290161 -9.061447 -5.91864 -12.227112c4.5426025 -4.265167 9.078308 8.578445 13.022278 13.339783c9.837585 11.876343 20.405762 23.243073 29.595276 35.568634c3.5352783 4.7417603 5.9907837 15.169128 11.839355 13.339752c4.2686157 -1.3351746 3.2698364 -8.010834 3.5507812 -12.227112c1.0394897 -15.602295 0.5282593 -31.856232 -4.735779 -46.687134c-2.178772 -6.138443 -7.819824 -13.108719 -4.735779 -18.894943c0.7282715 -1.366333 1.1850586 2.9187012 1.1850586 4.446594c0 5.606415 0.9435425 12.006393 -2.36792 16.671646c-3.7269287 5.2506256 -0.94226074 12.910919 1.1828613 18.896973c2.725525 7.677307 1.0147705 17.616028 7.1036377 23.343597" fill-rule="evenodd"/><path fill="#000000" fill-opacity="0.0" d="m194.86577 461.4267c7.7628937 0 15.607147 -0.24191284 23.264618 1.1825867c4.301178 0.8001404 15.774109 0.098846436 12.690842 3.5434265c-2.7867126 3.1132812 -11.632309 2.0398254 -11.632309 -2.3630066c0 -3.17453 5.6558533 0.6600647 8.458633 1.1825867c6.6427765 1.2383728 13.425827 1.2997742 20.09288 2.3630066c2.1227417 0.33850098 7.631729 3.097046 6.3454285 1.1804199c-11.961624 -17.823212 -34.892303 -26.572998 -42.298965 -47.255737c-1.8237762 -5.092804 -8.757462 -11.476227 -5.2888184 -15.358429c4.4058685 -4.931183 8.280273 10.432495 12.690842 15.358429c12.878799 14.383606 20.725021 35.792145 37.01207 44.89273c2.819519 1.5754395 4.0203857 -5.9357605 4.2302856 -9.44986c0.8684082 -14.538422 0 -29.14154 0 -43.71231c0 -6.3128967 -4.594116 -18.901855 1.0566101 -18.901855c3.6797485 0 2.7657166 7.7270203 3.171753 11.812866c1.3224792 13.307861 0 26.779236 0 40.168884c0 5.5129395 -1.5621948 21.76825 0 16.538849c2.507782 -8.394806 4.067322 -17.446136 8.460541 -24.810455" fill-rule="evenodd"/><path stroke="#6aa84f" stroke-width="1.0" stroke-linejoin="round" stroke-linecap="butt" d="m194.86577 461.4267c7.7628937 0 15.607147 -0.24191284 23.264618 1.1825867c4.301178 0.8001404 15.774109 0.098846436 12.690842 3.5434265c-2.7867126 3.1132812 -11.632309 2.0398254 -11.632309 -2.3630066c0 -3.17453 5.6558533 0.6600647 8.458633 1.1825867c6.6427765 1.2383728 13.425827 1.2997742 20.09288 2.3630066c2.1227417 0.33850098 7.631729 3.097046 6.3454285 1.1804199c-11.961624 -17.823212 -34.892303 -26.572998 -42.298965 -47.255737c-1.8237762 -5.092804 -8.757462 -11.476227 -5.2888184 -15.358429c4.4058685 -4.931183 8.280273 10.432495 12.690842 15.358429c12.878799 14.383606 20.725021 35.792145 37.01207 44.89273c2.819519 1.5754395 4.0203857 -5.9357605 4.2302856 -9.44986c0.8684082 -14.538422 0 -29.14154 0 -43.71231c0 -6.3128967 -4.594116 -18.901855 1.0566101 -18.901855c3.6797485 0 2.7657166 7.7270203 3.171753 11.812866c1.3224792 13.307861 0 26.779236 0 40.168884c0 5.5129395 -1.5621948 21.76825 0 16.538849c2.507782 -8.394806 4.067322 -17.446136 8.460541 -24.810455" fill-rule="evenodd"/><path fill="#000000" fill-opacity="0.0" d="m290.04004 412.9912c-8.226288 11.816376 -15.833557 24.166687 -23.264618 36.62329c-2.5411682 4.2597046 -3.839508 9.318909 -5.2868958 14.175842c-0.4015808 1.3475647 -3.321289 3.0967102 -2.1151428 3.5455933c4.068817 1.5142822 8.413086 -2.7041016 12.690857 -2.3630066c10.830902 0.86361694 21.188904 5.3276978 31.723236 8.26944c3.5705261 0.9970703 11.738922 -0.3574524 10.575714 3.5434265c-2.3422852 7.855133 -14.842194 2.096161 -22.208008 1.1825867c-9.484985 -1.1764221 -19.162231 -0.45565796 -28.551514 -2.3630066c-4.176483 -0.8484192 -9.689194 -4.53598 -12.690842 -1.1825867c-1.3425903 1.4999084 3.5906982 1.414093 5.288803 2.3630066c22.717804 12.694611 4.479004 3.0335388 12.688934 8.271576c14.150269 9.028107 32.01776 17.358002 38.070618 34.260315c2.752777 7.6870117 -13.926514 -6.040039 -20.092896 -10.632446c-6.103424 -4.545532 -12.790894 -8.383362 -17.977722 -14.178009c-3.7052307 -4.1394043 -6.3923645 -11.812866 -11.632324 -11.812866c-5.6836243 0 -1.6009827 12.578247 -2.1151428 18.901886c-0.81292725 9.998535 -5.277817 20.072144 -11.632309 27.171265c-0.5303192 0.59246826 -3.981247 7.0890503 -4.2302856 7.0890503c-2.9068146 0 -2.113205 -6.20459 -2.113205 -9.452026c0 -15.010803 -0.087020874 -30.33014 3.171753 -44.89273c0.68925476 -3.0801086 6.621216 -7.778717 7.4020233 -4.726013c3.2542877 12.7230835 -11.900421 23.633514 -21.149475 31.899445c-8.893906 7.9485474 -23.673035 23.174866 -31.72519 14.175842c-12.190903 -13.624451 18.183945 -35.638916 33.840332 -43.71228c5.4686584 -2.8199768 10.956543 -6.1359863 16.91919 -7.086853c2.122757 -0.3385315 7.6321106 -0.7359009 6.3454285 1.1804199c-4.6197968 6.8805237 -14.713821 5.1187134 -22.208023 7.08902c-9.570358 2.5161133 -18.779953 7.055237 -28.551498 8.269409c-5.605179 0.6965027 -11.279465 0 -16.919205 0c-1.4100952 0 -5.6403656 0 -4.2302856 0c18.495255 0 36.522995 -7.1242065 54.989807 -8.269409c4.2231445 -0.26190186 8.45929 0 12.688919 0c2.1151428 0 8.3520355 0.7472229 6.3454285 0c-19.352188 -7.206665 -39.91446 -11.076874 -58.16156 -21.264893c-3.5953217 -2.0073853 -10.787491 -4.0114136 -9.517166 -8.271576c1.57547 -5.283478 9.968185 1.0119629 14.804062 2.3630066c12.447784 3.4776611 24.632874 8.044067 37.01207 11.815002c4.9514313 1.5083008 11.175034 8.780304 14.804062 4.726013c3.390274 -3.7875671 -7.681427 -6.417389 -11.632324 -9.451996c-10.342926 -7.9443054 -22.648666 -14.32132 -29.608109 -25.990875c-0.58638 -0.98327637 1.0780792 -0.23156738 2.1151428 0c13.621323 3.0412598 24.016205 16.19809 33.838394 27.171295c3.3534546 3.7464294 6.1637115 8.068573 9.517166 11.815002c2.1151428 2.3630066 6.3454285 10.430786 6.3454285 7.08902c0 -18.559174 -9.316772 -35.64688 -14.804047 -53.164337c-1.6218109 -5.1773987 -7.4830017 -10.451355 -5.2888336 -15.358429c2.1136017 -4.7268677 5.568039 8.966034 6.3454285 14.178009c2.9062042 19.484497 -3.6712036 41.39975 4.2302856 59.07074c2.325821 5.2015076 3.9441376 -11.012878 7.4020233 -15.358429c8.815887 -11.078949 20.473969 -18.862885 30.666656 -28.353882c5.7118835 -5.3186646 19.034332 -21.302551 19.034332 -12.995422c0 9.335297 -14.479401 9.440918 -22.206085 12.995422c-9.184753 4.225281 -17.553772 10.396179 -26.438293 15.358459c-4.1108093 2.29599 -7.6918793 5.6268005 -11.632309 8.269409c-2.3014984 1.543457 -9.298401 5.6658936 -7.4020386 3.5434265c11.799377 -13.206207 33.85759 1.1894836 49.702927 7.08902c8.973145 3.3408813 25.37976 3.6091309 25.37976 14.175842c0 4.490143 -7.613159 3.5455933 -11.632294 3.5455933c-12.927856 0 -25.450165 -5.138794 -38.070618 -8.26944c-3.7059631 -0.919281 -13.260559 -1.7298584 -10.5737915 -4.7259827c2.920105 -3.2563477 7.71817 3.2683716 11.632324 4.7259827c12.733643 4.7419434 25.35852 10.278778 37.012085 17.7193c4.251648 2.714569 16.151611 4.403076 12.688904 8.271576c-4.0574646 4.5329285 -11.366943 -1.9273682 -16.91919 -3.5455933c-12.619873 -3.67807 -25.17041 -8.06955 -37.012085 -14.175842c-4.7583313 -2.4536743 -10.11853 -8.526978 -14.8059845 -5.9086c-3.3519592 1.8723755 5.155838 6.1022644 7.403946 9.452026c4.826538 7.191681 7.640106 15.8237915 11.632324 23.627869c2.1914062 4.2838135 10.76001 12.995422 6.3434753 12.995422c-5.2399597 0 -7.4916077 -8.26123 -10.573761 -12.995422c-5.4736633 -8.407532 -11.756653 -16.1586 -16.91919 -24.808289c-3.6742706 -6.156128 -15.083603 -20.084442 -8.460571 -20.084442c11.525238 0 11.854401 22.741943 13.747452 35.44287c0.88557434 5.941559 7.99321 15.02359 3.1717377 17.719269c-2.7114716 1.5159912 -3.9312286 -5.239441 -5.2868805 -8.269409c-5.5341034 -12.368988 -10.65416 -25.34668 -12.690857 -38.986298c-0.81404114 -5.45166 -5.7493896 -18.288574 -1.0565948 -16.53888c13.659821 5.093048 -7.0217285 32.193512 -15.862595 44.89273c-2.52359 3.624939 -8.735474 11.196411 -10.573776 7.0889893c-4.328644 -9.671783 7.984268 -20.888458 15.860657 -27.173431c3.357254 -2.678894 15.75798 -4.7238464 11.632309 -4.7238464c-15.008987 0 -29.982727 -3.6645508 -44.414093 -8.271576c-4.4057465 -1.4064941 -12.688919 -0.78738403 -12.688919 -5.906433c0 -5.1194763 9.227341 -0.84176636 13.747452 0c12.292969 2.2892761 24.592468 4.751068 37.012085 5.906433c1.7562103 0.1633606 6.0744324 1.761261 5.2868805 0c-6.475708 -14.482391 -24.359512 -18.723663 -32.781784 -31.897308c-2.4754944 -3.8720093 -8.298553 -9.630859 -5.2868958 -12.995422c4.0576935 -4.533203 8.109314 9.117493 11.632309 14.178009c8.787567 12.62265 18.227753 24.703644 26.43637 37.80371c3.1579285 5.039734 5.3513794 16.122345 10.575714 14.17804c3.812973 -1.4190674 2.920807 -8.514252 3.1717377 -12.995453c0.92855835 -16.582733 0.47190857 -33.858063 -4.2302856 -49.62088c-1.9462128 -6.5242004 -6.9851685 -13.932465 -4.2302856 -20.082306c0.6505432 -1.452179 1.058548 3.1021118 1.058548 4.726013c0 5.9587097 0.8428345 12.760864 -2.1151428 17.7193c-3.3291168 5.580536 -0.84169006 13.7221985 1.0565948 20.084442c2.434616 8.159729 0.90644836 18.722961 6.3454285 24.810425" fill-rule="evenodd"/><path stroke="#6aa84f" stroke-width="1.0" stroke-linejoin="round" stroke-linecap="butt" d="m290.04004 412.9912c-8.226288 11.816376 -15.833557 24.166687 -23.264618 36.62329c-2.5411682 4.2597046 -3.839508 9.318909 -5.2868958 14.175842c-0.4015808 1.3475647 -3.321289 3.0967102 -2.1151428 3.5455933c4.068817 1.5142822 8.413086 -2.7041016 12.690857 -2.3630066c10.830902 0.86361694 21.188904 5.3276978 31.723236 8.26944c3.5705261 0.9970703 11.738922 -0.3574524 10.575714 3.5434265c-2.3422852 7.855133 -14.842194 2.096161 -22.208008 1.1825867c-9.484985 -1.1764221 -19.162231 -0.45565796 -28.551514 -2.3630066c-4.176483 -0.8484192 -9.689194 -4.53598 -12.690842 -1.1825867c-1.3425903 1.4999084 3.5906982 1.414093 5.288803 2.3630066c22.717804 12.694611 4.479004 3.0335388 12.688934 8.271576c14.150269 9.028107 32.01776 17.358002 38.070618 34.260315c2.752777 7.6870117 -13.926514 -6.040039 -20.092896 -10.632446c-6.103424 -4.545532 -12.790894 -8.383362 -17.977722 -14.178009c-3.7052307 -4.1394043 -6.3923645 -11.812866 -11.632324 -11.812866c-5.6836243 0 -1.6009827 12.578247 -2.1151428 18.901886c-0.81292725 9.998535 -5.277817 20.072144 -11.632309 27.171265c-0.5303192 0.59246826 -3.981247 7.0890503 -4.2302856 7.0890503c-2.9068146 0 -2.113205 -6.20459 -2.113205 -9.452026c0 -15.010803 -0.087020874 -30.33014 3.171753 -44.89273c0.68925476 -3.0801086 6.621216 -7.778717 7.4020233 -4.726013c3.2542877 12.7230835 -11.900421 23.633514 -21.149475 31.899445c-8.893906 7.9485474 -23.673035 23.174866 -31.72519 14.175842c-12.190903 -13.624451 18.183945 -35.638916 33.840332 -43.71228c5.4686584 -2.8199768 10.956543 -6.1359863 16.91919 -7.086853c2.122757 -0.3385315 7.6321106 -0.7359009 6.3454285 1.1804199c-4.6197968 6.8805237 -14.713821 5.1187134 -22.208023 7.08902c-9.570358 2.5161133 -18.779953 7.055237 -28.551498 8.269409c-5.605179 0.6965027 -11.279465 0 -16.919205 0c-1.4100952 0 -5.6403656 0 -4.2302856 0c18.495255 0 36.522995 -7.1242065 54.989807 -8.269409c4.2231445 -0.26190186 8.45929 0 12.688919 0c2.1151428 0 8.3520355 0.7472229 6.3454285 0c-19.352188 -7.206665 -39.91446 -11.076874 -58.16156 -21.264893c-3.5953217 -2.0073853 -10.787491 -4.0114136 -9.517166 -8.271576c1.57547 -5.283478 9.968185 1.0119629 14.804062 2.3630066c12.447784 3.4776611 24.632874 8.044067 37.01207 11.815002c4.9514313 1.5083008 11.175034 8.780304 14.804062 4.726013c3.390274 -3.7875671 -7.681427 -6.417389 -11.632324 -9.451996c-10.342926 -7.9443054 -22.648666 -14.32132 -29.608109 -25.990875c-0.58638 -0.98327637 1.0780792 -0.23156738 2.1151428 0c13.621323 3.0412598 24.016205 16.19809 33.838394 27.171295c3.3534546 3.7464294 6.1637115 8.068573 9.517166 11.815002c2.1151428 2.3630066 6.3454285 10.430786 6.3454285 7.08902c0 -18.559174 -9.316772 -35.64688 -14.804047 -53.164337c-1.6218109 -5.1773987 -7.4830017 -10.451355 -5.2888336 -15.358429c2.1136017 -4.7268677 5.568039 8.966034 6.3454285 14.178009c2.9062042 19.484497 -3.6712036 41.39975 4.2302856 59.07074c2.325821 5.2015076 3.9441376 -11.012878 7.4020233 -15.358429c8.815887 -11.078949 20.473969 -18.862885 30.666656 -28.353882c5.7118835 -5.3186646 19.034332 -21.302551 19.034332 -12.995422c0 9.335297 -14.479401 9.440918 -22.206085 12.995422c-9.184753 4.225281 -17.553772 10.396179 -26.438293 15.358459c-4.1108093 2.29599 -7.6918793 5.6268005 -11.632309 8.269409c-2.3014984 1.543457 -9.298401 5.6658936 -7.4020386 3.5434265c11.799377 -13.206207 33.85759 1.1894836 49.702927 7.08902c8.973145 3.3408813 25.37976 3.6091309 25.37976 14.175842c0 4.490143 -7.613159 3.5455933 -11.632294 3.5455933c-12.927856 0 -25.450165 -5.138794 -38.070618 -8.26944c-3.7059631 -0.919281 -13.260559 -1.7298584 -10.5737915 -4.7259827c2.920105 -3.2563477 7.71817 3.2683716 11.632324 4.7259827c12.733643 4.7419434 25.35852 10.278778 37.012085 17.7193c4.251648 2.714569 16.151611 4.403076 12.688904 8.271576c-4.0574646 4.5329285 -11.366943 -1.9273682 -16.91919 -3.5455933c-12.619873 -3.67807 -25.17041 -8.06955 -37.012085 -14.175842c-4.7583313 -2.4536743 -10.11853 -8.526978 -14.8059845 -5.9086c-3.3519592 1.8723755 5.155838 6.1022644 7.403946 9.452026c4.826538 7.191681 7.640106 15.8237915 11.632324 23.627869c2.1914062 4.2838135 10.76001 12.995422 6.3434753 12.995422c-5.2399597 0 -7.4916077 -8.26123 -10.573761 -12.995422c-5.4736633 -8.407532 -11.756653 -16.1586 -16.91919 -24.808289c-3.6742706 -6.156128 -15.083603 -20.084442 -8.460571 -20.084442c11.525238 0 11.854401 22.741943 13.747452 35.44287c0.88557434 5.941559 7.99321 15.02359 3.1717377 17.719269c-2.7114716 1.5159912 -3.9312286 -5.239441 -5.2868805 -8.269409c-5.5341034 -12.368988 -10.65416 -25.34668 -12.690857 -38.986298c-0.81404114 -5.45166 -5.7493896 -18.288574 -1.0565948 -16.53888c13.659821 5.093048 -7.0217285 32.193512 -15.862595 44.89273c-2.52359 3.624939 -8.735474 11.196411 -10.573776 7.0889893c-4.328644 -9.671783 7.984268 -20.888458 15.860657 -27.173431c3.357254 -2.678894 15.75798 -4.7238464 11.632309 -4.7238464c-15.008987 0 -29.982727 -3.6645508 -44.414093 -8.271576c-4.4057465 -1.4064941 -12.688919 -0.78738403 -12.688919 -5.906433c0 -5.1194763 9.227341 -0.84176636 13.747452 0c12.292969 2.2892761 24.592468 4.751068 37.012085 5.906433c1.7562103 0.1633606 6.0744324 1.761261 5.2868805 0c-6.475708 -14.482391 -24.359512 -18.723663 -32.781784 -31.897308c-2.4754944 -3.8720093 -8.298553 -9.630859 -5.2868958 -12.995422c4.0576935 -4.533203 8.109314 9.117493 11.632309 14.178009c8.787567 12.62265 18.227753 24.703644 26.43637 37.80371c3.1579285 5.039734 5.3513794 16.122345 10.575714 14.17804c3.812973 -1.4190674 2.920807 -8.514252 3.1717377 -12.995453c0.92855835 -16.582733 0.47190857 -33.858063 -4.2302856 -49.62088c-1.9462128 -6.5242004 -6.9851685 -13.932465 -4.2302856 -20.082306c0.6505432 -1.452179 1.058548 3.1021118 1.058548 4.726013c0 5.9587097 0.8428345 12.760864 -2.1151428 17.7193c-3.3291168 5.580536 -0.84169006 13.7221985 1.0565948 20.084442c2.434616 8.159729 0.90644836 18.722961 6.3454285 24.810425" fill-rule="evenodd"/><path fill="#000000" fill-opacity="0.0" d="m592.36285 529.45544c-11.689819 -10.434387 -39.138794 -22.287811 -48.311035 -10.010864c-6.2304688 8.339478 -1.2186279 23.246338 7.764282 29.261719c8.588135 5.7510986 24.32721 2.9265137 31.918945 -3.8498535c1.0949707 -0.97735596 -2.7645874 -1.5402832 -4.3131104 -1.5402832c-3.5099487 0 -6.1450806 3.1741333 -8.626221 5.3901367c-8.381836 7.486206 -15.206482 21.997986 -8.627808 30.803406c3.1425781 4.206421 10.154236 7.756653 15.528442 6.159546c15.065918 -4.477112 34.71393 -21.97699 27.607422 -34.651855c-0.65618896 -1.1704102 -0.8635254 2.5411377 -0.8635254 3.8498535c0 3.4247437 1.8358765 6.652832 2.5891113 10.010864c1.71698 7.654541 18.602722 8.17926 25.88031 3.8499146c7.8236084 -4.654175 15.42157 -15.595276 11.215332 -23.100769c-4.368469 -7.795166 -21.571045 -12.329773 -28.469421 -6.1609497c-1.2189941 1.0900879 3.4511719 0 5.176697 0c3.7495117 0 7.704468 0.4039917 11.215393 -0.770874c6.50708 -2.1774292 14.807983 -2.7387695 18.979614 -7.699768c3.6293945 -4.316162 3.9729004 -11.544373 0.8619995 -16.171814c-5.9260254 -8.814911 -28.580505 -10.354279 -34.508118 -1.5402832c-2.584961 3.84375 -10.911499 13.408325 -6.0386963 12.32196c5.918701 -1.3195801 2.5875854 -10.726501 2.5875854 -16.171844c0 -11.28537 1.0496826 -29.602753 -11.215393 -32.342224c-8.688416 -1.9405823 -18.731445 8.239075 -19.841614 16.171814c-1.6993408 12.143219 0.7664795 25.248505 6.9022827 36.19217" fill-rule="evenodd"/><path stroke="#6fa8dc" stroke-width="1.0" stroke-linejoin="round" stroke-linecap="butt" d="m592.36285 529.45544c-11.689819 -10.434387 -39.138794 -22.287811 -48.311035 -10.010864c-6.2304688 8.339478 -1.2186279 23.246338 7.764282 29.261719c8.588135 5.7510986 24.32721 2.9265137 31.918945 -3.8498535c1.0949707 -0.97735596 -2.7645874 -1.5402832 -4.3131104 -1.5402832c-3.5099487 0 -6.1450806 3.1741333 -8.626221 5.3901367c-8.381836 7.486206 -15.206482 21.997986 -8.627808 30.803406c3.1425781 4.206421 10.154236 7.756653 15.528442 6.159546c15.065918 -4.477112 34.71393 -21.97699 27.607422 -34.651855c-0.65618896 -1.1704102 -0.8635254 2.5411377 -0.8635254 3.8498535c0 3.4247437 1.8358765 6.652832 2.5891113 10.010864c1.71698 7.654541 18.602722 8.17926 25.88031 3.8499146c7.8236084 -4.654175 15.42157 -15.595276 11.215332 -23.100769c-4.368469 -7.795166 -21.571045 -12.329773 -28.469421 -6.1609497c-1.2189941 1.0900879 3.4511719 0 5.176697 0c3.7495117 0 7.704468 0.4039917 11.215393 -0.770874c6.50708 -2.1774292 14.807983 -2.7387695 18.979614 -7.699768c3.6293945 -4.316162 3.9729004 -11.544373 0.8619995 -16.171814c-5.9260254 -8.814911 -28.580505 -10.354279 -34.508118 -1.5402832c-2.584961 3.84375 -10.911499 13.408325 -6.0386963 12.32196c5.918701 -1.3195801 2.5875854 -10.726501 2.5875854 -16.171844c0 -11.28537 1.0496826 -29.602753 -11.215393 -32.342224c-8.688416 -1.9405823 -18.731445 8.239075 -19.841614 16.171814c-1.6993408 12.143219 0.7664795 25.248505 6.9022827 36.19217" fill-rule="evenodd"/><path fill="#000000" fill-opacity="0.0" d="m593.21643 527.59357c0 -3.5657349 2.0438843 -9.240051 6.0386353 -9.240051c7.9535522 0 13.343262 9.34436 15.528503 16.17041c2.5917969 8.095947 -8.305054 17.35913 -17.254028 20.021729c-5.7807617 1.7199707 -15.774902 -0.11383057 -17.25409 -5.3901367c-2.156189 -7.6914062 5.5509644 -16.393616 12.940979 -20.792542" fill-rule="evenodd"/><path stroke="#45818e" stroke-width="2.0" stroke-linejoin="round" stroke-linecap="butt" d="m593.21643 527.59357c0 -3.5657349 2.0438843 -9.240051 6.0386353 -9.240051c7.9535522 0 13.343262 9.34436 15.528503 16.17041c2.5917969 8.095947 -8.305054 17.35913 -17.254028 20.021729c-5.7807617 1.7199707 -15.774902 -0.11383057 -17.25409 -5.3901367c-2.156189 -7.6914062 5.5509644 -16.393616 12.940979 -20.792542" fill-rule="evenodd"/><path fill="#000000" fill-opacity="0.0" d="m728.42584 649.5047c8.690491 0 17.472046 -0.2276001 26.044495 1.1126709c4.8151245 0.75286865 17.658936 0.09301758 14.207275 3.3339233c-3.11969 2.9291992 -13.022278 1.9192505 -13.022278 -2.2232666c0 -2.9868164 6.331665 0.6210327 9.46936 1.1126709c7.4365234 1.1651611 15.03009 1.2229004 22.493774 2.2232666c2.3764038 0.31848145 8.54364 2.9139404 7.1036377 1.1106567c-13.390869 -16.76947 -39.061523 -25.001892 -47.35327 -44.461853c-2.041687 -4.791687 -9.803894 -10.797668 -5.9207764 -14.450378c4.932373 -4.6396484 9.269714 9.815735 14.207275 14.450378c14.417725 13.533203 23.201477 33.676025 41.434692 42.238525c3.156372 1.4822998 4.5007324 -5.584778 4.735718 -8.891113c0.972229 -13.678894 0 -27.41858 0 -41.12793c0 -5.939636 -5.1430664 -17.784302 1.1828613 -17.784302c4.119446 0 3.0961914 7.2701416 3.5507812 11.114441c1.4804688 12.521057 0 25.195984 0 37.793945c0 5.1870117 -1.7489014 20.481262 0 15.561035c2.807434 -7.8984375 4.5533447 -16.414673 9.471497 -23.343567" fill-rule="evenodd"/><path stroke="#f6b26b" stroke-width="1.0" stroke-linejoin="round" stroke-linecap="butt" d="m728.42584 649.5047c8.690491 0 17.472046 -0.2276001 26.044495 1.1126709c4.8151245 0.75286865 17.658936 0.09301758 14.207275 3.3339233c-3.11969 2.9291992 -13.022278 1.9192505 -13.022278 -2.2232666c0 -2.9868164 6.331665 0.6210327 9.46936 1.1126709c7.4365234 1.1651611 15.03009 1.2229004 22.493774 2.2232666c2.3764038 0.31848145 8.54364 2.9139404 7.1036377 1.1106567c-13.390869 -16.76947 -39.061523 -25.001892 -47.35327 -44.461853c-2.041687 -4.791687 -9.803894 -10.797668 -5.9207764 -14.450378c4.932373 -4.6396484 9.269714 9.815735 14.207275 14.450378c14.417725 13.533203 23.201477 33.676025 41.434692 42.238525c3.156372 1.4822998 4.5007324 -5.584778 4.735718 -8.891113c0.972229 -13.678894 0 -27.41858 0 -41.12793c0 -5.939636 -5.1430664 -17.784302 1.1828613 -17.784302c4.119446 0 3.0961914 7.2701416 3.5507812 11.114441c1.4804688 12.521057 0 25.195984 0 37.793945c0 5.1870117 -1.7489014 20.481262 0 15.561035c2.807434 -7.8984375 4.5533447 -16.414673 9.471497 -23.343567" fill-rule="evenodd"/><path fill="#000000" fill-opacity="0.0" d="m834.9725 603.93286c-9.2092285 11.117798 -17.725525 22.737915 -26.044495 34.458008c-2.8447876 4.0078735 -4.298279 8.768005 -5.91864 13.337769c-0.44958496 1.2678833 -3.7181396 2.9135742 -2.367859 3.3359375c4.5549927 1.4247437 9.418335 -2.5441895 14.207275 -2.2232666c12.125061 0.81256104 23.720764 5.0126953 35.513855 7.7805176c3.9971313 0.93811035 13.141602 -0.33636475 11.8394165 3.3339233c-2.6221924 7.390686 -16.615723 1.972229 -24.861694 1.1126099c-10.618286 -1.1068726 -21.451904 -0.42871094 -31.963135 -2.2232666c-4.675537 -0.7982788 -10.846924 -4.2678223 -14.207275 -1.1126709c-1.5029907 1.4112549 4.0197754 1.3305054 5.9208374 2.2233276c25.432312 11.944031 5.01416 2.854187 14.205078 7.7825317c15.8411255 8.494324 35.843567 16.331726 42.61969 32.23468c3.081726 7.232544 -15.590576 -5.6828613 -22.493774 -10.003784c-6.8327026 -4.2767944 -14.319336 -7.8876953 -20.125916 -13.339783c-4.147949 -3.8946533 -7.156189 -11.114441 -13.022278 -11.114441c-6.362732 0 -1.7922974 11.834595 -2.367859 17.784363c-0.9100952 9.407349 -5.9084473 18.885376 -13.022278 25.56482c-0.59368896 0.5574341 -4.456909 6.669861 -4.735718 6.669861c-3.2541504 0 -2.3657227 -5.8377075 -2.3657227 -8.893188c0 -14.123291 -0.09741211 -28.536865 3.5507202 -42.238525c0.77160645 -2.8979492 7.4124146 -7.3187866 8.286499 -4.446533c3.6431274 11.970825 -13.322388 22.236206 -23.676636 30.013428c-9.956604 7.4785767 -26.501709 21.804688 -35.51599 13.3377075c-13.647644 -12.818909 20.35669 -33.5318 37.88391 -41.12787c6.1220703 -2.6532593 12.265686 -5.7731934 18.940857 -6.6678467c2.3764038 -0.31848145 8.544067 -0.6923828 7.1036377 1.1106567c-5.171814 6.473694 -16.471985 4.81604 -24.861694 6.669861c-10.713867 2.3673706 -21.023926 6.6381226 -31.963074 7.7805176c-6.2749634 0.65527344 -12.627258 0 -18.940918 0c-1.5785522 0 -6.314331 0 -4.735718 0c20.7052 0 40.887085 -6.703003 61.560547 -7.7805176c4.727722 -0.24639893 9.470032 0 14.205078 0c2.367859 0 9.350037 0.70306396 7.1036377 0c-21.66455 -6.7805786 -44.683838 -10.421936 -65.11127 -20.00763c-4.0249634 -1.8887329 -12.076477 -3.774231 -10.654358 -7.7825317c1.7636719 -4.9711304 11.159241 0.95214844 16.572998 2.2232666c13.935181 3.2720947 27.576233 7.5684814 41.43463 11.116516c5.543091 1.4191284 12.510315 8.261169 16.572998 4.446594c3.7953491 -3.5636597 -8.599304 -6.037964 -13.022278 -8.893188c-11.578796 -7.4746094 -25.35498 -13.474609 -33.145996 -24.454224c-0.6564331 -0.92510986 1.2069092 -0.21783447 2.36792 0c15.248901 2.8614502 26.885864 15.2404175 37.881714 25.56482c3.7541504 3.5249634 6.9002075 7.5915527 10.654358 11.116516c2.36792 2.2232666 7.1036377 9.814087 7.1036377 6.669861c0 -17.461853 -10.429993 -33.539307 -16.572937 -50.021057c-1.8156128 -4.871277 -8.377136 -9.833435 -5.9208374 -14.450378c2.36615 -4.4474487 6.2333984 8.435913 7.1036377 13.339722c3.253479 18.33252 -4.1098633 38.952087 4.735779 55.57831c2.6037598 4.893982 4.4154663 -10.361816 8.286499 -14.450378c9.869324 -10.42395 22.92041 -17.74768 34.330994 -26.67749c6.394409 -5.0042114 21.308777 -20.04309 21.308777 -12.227112c0 8.783386 -16.209534 8.882751 -24.859497 12.227112c-10.282227 3.9754639 -19.651245 9.781494 -29.597412 14.450378c-4.6019897 2.1602173 -8.610962 5.2941284 -13.022278 7.7805176c-2.576477 1.4522095 -10.409424 5.3308716 -8.286499 3.3339233c13.20929 -12.425415 37.90326 1.1191406 55.641968 6.669861c10.045349 3.1433716 28.412354 3.395752 28.412354 13.3377075c0 4.2246704 -8.522827 3.3359985 -13.022217 3.3359985c-14.472595 0 -28.49121 -4.834961 -42.61969 -7.7805176c-4.1487427 -0.8649292 -14.845032 -1.6276245 -11.837219 -4.446594c3.269043 -3.0637817 8.640381 3.0751343 13.022217 4.446594c14.255188 4.461548 28.38861 9.671082 41.434692 16.67163c4.7597046 2.5540771 18.081543 4.142761 14.205078 7.7825317c-4.5422363 4.2649536 -12.725159 -1.8134155 -18.940857 -3.3359375c-14.127808 -3.4606323 -28.177979 -7.5924683 -41.43463 -13.3377075c-5.3269043 -2.3086548 -11.327576 -8.022827 -16.575195 -5.559265c-3.7524414 1.7616577 5.7719727 5.741455 8.288696 8.893188c5.4032593 6.7664795 8.5529785 14.888245 13.022217 22.230896c2.453308 4.0305176 12.045776 12.227112 7.1015015 12.227112c-5.866089 0 -8.38678 -7.772827 -11.837219 -12.227112c-6.1277466 -7.9104614 -13.161438 -15.203247 -18.940857 -23.341553c-4.1133423 -5.7921143 -16.885986 -18.896973 -9.471558 -18.896973c12.902405 0 13.270874 21.397339 15.390137 33.34735c0.99139404 5.590332 8.948364 14.135376 3.5507202 16.671692c-3.0354614 1.4263306 -4.40094 -4.9296875 -5.918579 -7.7805176c-6.1953735 -11.637695 -11.927246 -23.848083 -14.207275 -36.681335c-0.9113159 -5.1292725 -6.4364014 -17.207275 -1.1828613 -15.560974c15.291992 4.791931 -7.860779 30.2901 -17.757996 42.238525c-2.8251343 3.4105835 -9.779297 10.534424 -11.83728 6.669861c-4.845886 -9.099976 8.938293 -19.653503 17.75586 -25.566895c3.7584229 -2.5205078 17.64087 -4.444519 13.022278 -4.444519c-16.80243 0 -33.56537 -3.447937 -49.72113 -7.7825317c-4.93219 -1.3233643 -14.205139 -0.7408447 -14.205139 -5.557251c0 -4.8167725 10.329895 -0.7919922 15.390137 0c13.761841 2.1539307 27.531006 4.470154 41.43463 5.557251c1.9660645 0.15368652 6.800293 1.6571045 5.91864 0c-7.2495117 -13.62616 -27.270264 -17.6167 -36.698914 -30.011414c-2.7712402 -3.6431274 -9.2901 -9.061462 -5.918579 -12.227112c4.5425415 -4.2651978 9.078247 8.57843 13.022217 13.339722c9.837585 11.876343 20.405823 23.243103 29.595276 35.568665c3.5352783 4.7417603 5.9907837 15.169128 11.8394165 13.339783c4.2685547 -1.3352051 3.2697754 -8.010864 3.5507202 -12.227112c1.0394897 -15.602295 0.5282593 -31.856262 -4.735779 -46.687134c-2.178772 -6.138489 -7.819824 -13.108765 -4.735779 -18.894958c0.7282715 -1.366333 1.1850586 2.9187012 1.1850586 4.446594c0 5.6063843 0.9435425 12.006409 -2.367859 16.67163c-3.7269287 5.2506104 -0.94226074 12.91095 1.1828003 18.896973c2.725525 7.677307 1.0147705 17.616028 7.1036377 23.343567" fill-rule="evenodd"/><path stroke="#f6b26b" stroke-width="1.0" stroke-linejoin="round" stroke-linecap="butt" d="m834.9725 603.93286c-9.2092285 11.117798 -17.725525 22.737915 -26.044495 34.458008c-2.8447876 4.0078735 -4.298279 8.768005 -5.91864 13.337769c-0.44958496 1.2678833 -3.7181396 2.9135742 -2.367859 3.3359375c4.5549927 1.4247437 9.418335 -2.5441895 14.207275 -2.2232666c12.125061 0.81256104 23.720764 5.0126953 35.513855 7.7805176c3.9971313 0.93811035 13.141602 -0.33636475 11.8394165 3.3339233c-2.6221924 7.390686 -16.615723 1.972229 -24.861694 1.1126099c-10.618286 -1.1068726 -21.451904 -0.42871094 -31.963135 -2.2232666c-4.675537 -0.7982788 -10.846924 -4.2678223 -14.207275 -1.1126709c-1.5029907 1.4112549 4.0197754 1.3305054 5.9208374 2.2233276c25.432312 11.944031 5.01416 2.854187 14.205078 7.7825317c15.8411255 8.494324 35.843567 16.331726 42.61969 32.23468c3.081726 7.232544 -15.590576 -5.6828613 -22.493774 -10.003784c-6.8327026 -4.2767944 -14.319336 -7.8876953 -20.125916 -13.339783c-4.147949 -3.8946533 -7.156189 -11.114441 -13.022278 -11.114441c-6.362732 0 -1.7922974 11.834595 -2.367859 17.784363c-0.9100952 9.407349 -5.9084473 18.885376 -13.022278 25.56482c-0.59368896 0.5574341 -4.456909 6.669861 -4.735718 6.669861c-3.2541504 0 -2.3657227 -5.8377075 -2.3657227 -8.893188c0 -14.123291 -0.09741211 -28.536865 3.5507202 -42.238525c0.77160645 -2.8979492 7.4124146 -7.3187866 8.286499 -4.446533c3.6431274 11.970825 -13.322388 22.236206 -23.676636 30.013428c-9.956604 7.4785767 -26.501709 21.804688 -35.51599 13.3377075c-13.647644 -12.818909 20.35669 -33.5318 37.88391 -41.12787c6.1220703 -2.6532593 12.265686 -5.7731934 18.940857 -6.6678467c2.3764038 -0.31848145 8.544067 -0.6923828 7.1036377 1.1106567c-5.171814 6.473694 -16.471985 4.81604 -24.861694 6.669861c-10.713867 2.3673706 -21.023926 6.6381226 -31.963074 7.7805176c-6.2749634 0.65527344 -12.627258 0 -18.940918 0c-1.5785522 0 -6.314331 0 -4.735718 0c20.7052 0 40.887085 -6.703003 61.560547 -7.7805176c4.727722 -0.24639893 9.470032 0 14.205078 0c2.367859 0 9.350037 0.70306396 7.1036377 0c-21.66455 -6.7805786 -44.683838 -10.421936 -65.11127 -20.00763c-4.0249634 -1.8887329 -12.076477 -3.774231 -10.654358 -7.7825317c1.7636719 -4.9711304 11.159241 0.95214844 16.572998 2.2232666c13.935181 3.2720947 27.576233 7.5684814 41.43463 11.116516c5.543091 1.4191284 12.510315 8.261169 16.572998 4.446594c3.7953491 -3.5636597 -8.599304 -6.037964 -13.022278 -8.893188c-11.578796 -7.4746094 -25.35498 -13.474609 -33.145996 -24.454224c-0.6564331 -0.92510986 1.2069092 -0.21783447 2.36792 0c15.248901 2.8614502 26.885864 15.2404175 37.881714 25.56482c3.7541504 3.5249634 6.9002075 7.5915527 10.654358 11.116516c2.36792 2.2232666 7.1036377 9.814087 7.1036377 6.669861c0 -17.461853 -10.429993 -33.539307 -16.572937 -50.021057c-1.8156128 -4.871277 -8.377136 -9.833435 -5.9208374 -14.450378c2.36615 -4.4474487 6.2333984 8.435913 7.1036377 13.339722c3.253479 18.33252 -4.1098633 38.952087 4.735779 55.57831c2.6037598 4.893982 4.4154663 -10.361816 8.286499 -14.450378c9.869324 -10.42395 22.92041 -17.74768 34.330994 -26.67749c6.394409 -5.0042114 21.308777 -20.04309 21.308777 -12.227112c0 8.783386 -16.209534 8.882751 -24.859497 12.227112c-10.282227 3.9754639 -19.651245 9.781494 -29.597412 14.450378c-4.6019897 2.1602173 -8.610962 5.2941284 -13.022278 7.7805176c-2.576477 1.4522095 -10.409424 5.3308716 -8.286499 3.3339233c13.20929 -12.425415 37.90326 1.1191406 55.641968 6.669861c10.045349 3.1433716 28.412354 3.395752 28.412354 13.3377075c0 4.2246704 -8.522827 3.3359985 -13.022217 3.3359985c-14.472595 0 -28.49121 -4.834961 -42.61969 -7.7805176c-4.1487427 -0.8649292 -14.845032 -1.6276245 -11.837219 -4.446594c3.269043 -3.0637817 8.640381 3.0751343 13.022217 4.446594c14.255188 4.461548 28.38861 9.671082 41.434692 16.67163c4.7597046 2.5540771 18.081543 4.142761 14.205078 7.7825317c-4.5422363 4.2649536 -12.725159 -1.8134155 -18.940857 -3.3359375c-14.127808 -3.4606323 -28.177979 -7.5924683 -41.43463 -13.3377075c-5.3269043 -2.3086548 -11.327576 -8.022827 -16.575195 -5.559265c-3.7524414 1.7616577 5.7719727 5.741455 8.288696 8.893188c5.4032593 6.7664795 8.5529785 14.888245 13.022217 22.230896c2.453308 4.0305176 12.045776 12.227112 7.1015015 12.227112c-5.866089 0 -8.38678 -7.772827 -11.837219 -12.227112c-6.1277466 -7.9104614 -13.161438 -15.203247 -18.940857 -23.341553c-4.1133423 -5.7921143 -16.885986 -18.896973 -9.471558 -18.896973c12.902405 0 13.270874 21.397339 15.390137 33.34735c0.99139404 5.590332 8.948364 14.135376 3.5507202 16.671692c-3.0354614 1.4263306 -4.40094 -4.9296875 -5.918579 -7.7805176c-6.1953735 -11.637695 -11.927246 -23.848083 -14.207275 -36.681335c-0.9113159 -5.1292725 -6.4364014 -17.207275 -1.1828613 -15.560974c15.291992 4.791931 -7.860779 30.2901 -17.757996 42.238525c-2.8251343 3.4105835 -9.779297 10.534424 -11.83728 6.669861c-4.845886 -9.099976 8.938293 -19.653503 17.75586 -25.566895c3.7584229 -2.5205078 17.64087 -4.444519 13.022278 -4.444519c-16.80243 0 -33.56537 -3.447937 -49.72113 -7.7825317c-4.93219 -1.3233643 -14.205139 -0.7408447 -14.205139 -5.557251c0 -4.8167725 10.329895 -0.7919922 15.390137 0c13.761841 2.1539307 27.531006 4.470154 41.43463 5.557251c1.9660645 0.15368652 6.800293 1.6571045 5.91864 0c-7.2495117 -13.62616 -27.270264 -17.6167 -36.698914 -30.011414c-2.7712402 -3.6431274 -9.2901 -9.061462 -5.918579 -12.227112c4.5425415 -4.2651978 9.078247 8.57843 13.022217 13.339722c9.837585 11.876343 20.405823 23.243103 29.595276 35.568665c3.5352783 4.7417603 5.9907837 15.169128 11.8394165 13.339783c4.2685547 -1.3352051 3.2697754 -8.010864 3.5507202 -12.227112c1.0394897 -15.602295 0.5282593 -31.856262 -4.735779 -46.687134c-2.178772 -6.138489 -7.819824 -13.108765 -4.735779 -18.894958c0.7282715 -1.366333 1.1850586 2.9187012 1.1850586 4.446594c0 5.6063843 0.9435425 12.006409 -2.367859 16.67163c-3.7269287 5.2506104 -0.94226074 12.91095 1.1828003 18.896973c2.725525 7.677307 1.0147705 17.616028 7.1036377 23.343567" fill-rule="evenodd"/></g></svg>