<svg viewBox="0 0 989.669 725.819" fill="none" stroke-linecap="square" stroke-miterlimit="10" xmlns="http://www.w3.org/2000/svg">
  <clipPath id="a">
    <path d="M0 0h989.67v725.819H0V0z"/>
  </clipPath>
  <g clip-path="url(#a)">
    <path fill="none" d="M0 0h989.67v725.819H0z"/>
    <path fill="none" d="M754.586 113.394c-10.792-10.431-23.052-34.924-10.354-43.108 8.625-5.56 24.043-1.087 30.265 6.928 5.948 7.663 3.027 21.707-3.982 28.481-1.01.977-1.593-2.467-1.593-3.848 0-3.132 3.283-5.484 5.575-7.698 7.743-7.479 22.752-13.568 31.86-7.698 4.35 2.804 8.022 9.06 6.37 13.856-4.63 13.443-22.73 30.975-35.84 24.634-1.21-.585 2.629-.77 3.982-.77 3.542 0 6.881 1.638 10.354 2.31 7.917 1.532 8.46 16.599 3.982 23.093-4.814 6.98-16.13 13.76-23.893 10.007-8.062-3.898-12.752-19.248-6.372-25.403 1.128-1.088 0 3.08 0 4.62 0 3.345.418 6.874-.797 10.007-2.252 5.806-2.833 13.213-7.964 16.935-4.464 3.239-11.94 3.545-16.726.77-9.117-5.289-10.71-25.503-1.593-30.792 3.975-2.307 13.868-9.737 12.744-5.389-1.365 5.282-11.094 2.31-16.726 2.31-11.673 0-30.618.936-33.452-10.008-2.007-7.753 8.522-16.714 16.727-17.705 12.56-1.516 26.114.684 37.433 6.159"/>
    <path stroke="#6fa8dc" stroke-linejoin="round" stroke-linecap="butt" d="M754.586 113.394c-10.792-10.431-23.052-34.924-10.354-43.108 8.625-5.56 24.043-1.087 30.265 6.928 5.948 7.663 3.027 21.707-3.982 28.481-1.01.977-1.593-2.467-1.593-3.848 0-3.132 3.283-5.484 5.575-7.698 7.743-7.479 22.752-13.568 31.86-7.698 4.35 2.804 8.022 9.06 6.37 13.856-4.63 13.443-22.73 30.975-35.84 24.634-1.21-.585 2.629-.77 3.982-.77 3.542 0 6.881 1.638 10.354 2.31 7.917 1.532 8.46 16.599 3.982 23.093-4.814 6.98-16.13 13.76-23.893 10.007-8.062-3.898-12.752-19.248-6.372-25.403 1.128-1.088 0 3.08 0 4.62 0 3.345.418 6.874-.797 10.007-2.252 5.806-2.833 13.213-7.964 16.935-4.464 3.239-11.94 3.545-16.726.77-9.117-5.289-10.71-25.503-1.593-30.792 3.975-2.307 13.868-9.737 12.744-5.389-1.365 5.282-11.094 2.31-16.726 2.31-11.673 0-30.618.936-33.452-10.008-2.007-7.753 8.522-16.714 16.727-17.705 12.56-1.516 26.114.684 37.433 6.159"/>
    <path fill="none" d="M754.587 113.392c-3.688 0-9.557 1.824-9.557 5.388 0 7.097 9.665 11.907 16.725 13.856 8.373 2.313 17.954-7.41 20.708-15.395 1.779-5.158-.118-14.076-5.575-15.396-7.955-1.924-16.956 4.953-21.505 11.547"/>
    <path stroke="#45818e" stroke-width="2" stroke-linejoin="round" stroke-linecap="butt" d="M754.587 113.392c-3.688 0-9.557 1.824-9.557 5.388 0 7.097 9.665 11.907 16.725 13.856 8.373 2.313 17.954-7.41 20.708-15.395 1.779-5.158-.118-14.076-5.575-15.396-7.955-1.924-16.956 4.953-21.505 11.547"/>
    <path fill="none" d="M296.262 192.882c10.434-11.69 22.288-39.139 10.01-48.31-8.339-6.231-23.246-1.22-29.261 7.763-5.751 8.589-2.927 24.328 3.85 31.92.977 1.094 1.54-2.765 1.54-4.314 0-3.51-3.174-6.145-5.39-8.626-7.486-8.382-21.998-15.206-30.803-8.628-4.207 3.143-7.757 10.154-6.16 15.529 4.477 15.066 21.977 34.714 34.652 27.607 1.17-.656-2.541-.863-3.85-.863-3.425 0-6.653 1.835-10.01 2.589-7.655 1.717-8.18 18.602-3.85 25.88 4.653 7.824 15.595 15.422 23.1 11.215 7.795-4.368 12.33-21.57 6.161-28.47-1.09-1.218 0 3.452 0 5.178 0 3.75-.404 7.704.77 11.215 2.178 6.507 2.74 14.808 7.7 18.98 4.317 3.629 11.545 3.973 16.172.862 8.815-5.926 10.355-28.58 1.54-34.509-3.843-2.584-13.408-10.911-12.321-6.038 1.32 5.918 10.726 2.587 16.172 2.587 11.285 0 29.602 1.05 32.342-11.215 1.94-8.688-8.24-18.731-16.172-19.842-12.143-1.699-25.248.767-36.192 6.903"/>
    <path stroke="#6fa8dc" stroke-linejoin="round" stroke-linecap="butt" d="M296.262 192.882c10.434-11.69 22.288-39.139 10.01-48.31-8.339-6.231-23.246-1.22-29.261 7.763-5.751 8.589-2.927 24.328 3.85 31.92.977 1.094 1.54-2.765 1.54-4.314 0-3.51-3.174-6.145-5.39-8.626-7.486-8.382-21.998-15.206-30.803-8.628-4.207 3.143-7.757 10.154-6.16 15.529 4.477 15.066 21.977 34.714 34.652 27.607 1.17-.656-2.541-.863-3.85-.863-3.425 0-6.653 1.835-10.01 2.589-7.655 1.717-8.18 18.602-3.85 25.88 4.653 7.824 15.595 15.422 23.1 11.215 7.795-4.368 12.33-21.57 6.161-28.47-1.09-1.218 0 3.452 0 5.178 0 3.75-.404 7.704.77 11.215 2.178 6.507 2.74 14.808 7.7 18.98 4.317 3.629 11.545 3.973 16.172.862 8.815-5.926 10.355-28.58 1.54-34.509-3.843-2.584-13.408-10.911-12.321-6.038 1.32 5.918 10.726 2.587 16.172 2.587 11.285 0 29.602 1.05 32.342-11.215 1.94-8.688-8.24-18.731-16.172-19.842-12.143-1.699-25.248.767-36.192 6.903"/>
    <path fill="none" d="M298.124 193.736c3.565 0 9.24 2.044 9.24 6.038 0 7.954-9.345 13.344-16.17 15.529-8.097 2.592-17.36-8.305-20.022-17.254-1.72-5.78.113-15.775 5.39-17.254 7.691-2.156 16.393 5.55 20.792 12.94"/>
    <path stroke="#45818e" stroke-width="2" stroke-linejoin="round" stroke-linecap="butt" d="M298.124 193.736c3.565 0 9.24 2.044 9.24 6.038 0 7.954-9.345 13.344-16.17 15.529-8.097 2.592-17.36-8.305-20.022-17.254-1.72-5.78.113-15.775 5.39-17.254 7.691-2.156 16.393 5.55 20.792 12.94"/>
    <path fill="none" d="M542.116 272.877c8.69 0 17.472-.227 26.045 1.113 4.815.753 17.659.093 14.207 3.334-3.12 2.93-13.022 1.92-13.022-2.223 0-2.987 6.331.62 9.469 1.112 7.437 1.166 15.03 1.223 22.494 2.224 2.376.318 8.543 2.914 7.103 1.11-13.39-16.77-39.061-25.002-47.353-44.462-2.042-4.791-9.804-10.797-5.92-14.45 4.932-4.64 9.27 9.816 14.207 14.45 14.417 13.534 23.201 33.676 41.434 42.239 3.157 1.482 4.501-5.585 4.736-8.891.972-13.679 0-27.419 0-41.128 0-5.94-5.143-17.784 1.183-17.784 4.12 0 3.096 7.27 3.55 11.114 1.481 12.521 0 25.196 0 37.794 0 5.187-1.748 20.481 0 15.561 2.808-7.898 4.554-16.415 9.472-23.343"/>
    <path stroke="#ea9999" stroke-linejoin="round" stroke-linecap="butt" d="M542.116 272.877c8.69 0 17.472-.227 26.045 1.113 4.815.753 17.659.093 14.207 3.334-3.12 2.93-13.022 1.92-13.022-2.223 0-2.987 6.331.62 9.469 1.112 7.437 1.166 15.03 1.223 22.494 2.224 2.376.318 8.543 2.914 7.103 1.11-13.39-16.77-39.061-25.002-47.353-44.462-2.042-4.791-9.804-10.797-5.92-14.45 4.932-4.64 9.27 9.816 14.207 14.45 14.417 13.534 23.201 33.676 41.434 42.239 3.157 1.482 4.501-5.585 4.736-8.891.972-13.679 0-27.419 0-41.128 0-5.94-5.143-17.784 1.183-17.784 4.12 0 3.096 7.27 3.55 11.114 1.481 12.521 0 25.196 0 37.794 0 5.187-1.748 20.481 0 15.561 2.808-7.898 4.554-16.415 9.472-23.343"/>
    <path fill="none" d="M648.663 227.306c-9.21 11.117-17.726 22.737-26.045 34.458-2.845 4.007-4.298 8.768-5.918 13.337-.45 1.268-3.718 2.914-2.368 3.336 4.555 1.425 9.418-2.544 14.207-2.223 12.125.813 23.72 5.013 35.514 7.78 3.997.939 13.141-.336 11.84 3.334-2.623 7.391-16.616 1.973-24.862 1.113-10.619-1.107-21.452-.429-31.963-2.223-4.676-.798-10.847-4.268-14.208-1.113-1.503 1.411 4.02 1.33 5.921 2.223 25.432 11.944 5.014 2.855 14.205 7.783 15.841 8.494 35.844 16.332 42.62 32.235 3.082 7.232-15.59-5.683-22.494-10.004-6.833-4.277-14.32-7.888-20.126-13.34-4.148-3.895-7.156-11.114-13.022-11.114-6.363 0-1.792 11.834-2.368 17.784-.91 9.407-5.908 18.885-13.022 25.565-.594.557-4.457 6.67-4.736 6.67-3.254 0-2.366-5.838-2.366-8.893 0-14.124-.097-28.537 3.551-42.239.772-2.898 7.412-7.319 8.287-4.447 3.643 11.971-13.323 22.237-23.677 30.014-9.957 7.478-26.502 21.805-35.516 13.338-13.648-12.82 20.357-33.532 37.884-41.128 6.122-2.654 12.265-5.773 18.94-6.668 2.377-.319 8.545-.693 7.104 1.11-5.172 6.474-16.472 4.817-24.861 6.67-10.714 2.368-21.024 6.638-31.964 7.78-6.274.656-12.627 0-18.94 0h-4.736c20.705 0 40.887-6.702 61.56-7.78 4.728-.246 9.47 0 14.206 0 2.367 0 9.35.703 7.103 0-21.664-6.78-44.684-10.422-65.111-20.007-4.025-1.889-12.077-3.774-10.655-7.783 1.764-4.97 11.16.952 16.573 2.224 13.936 3.272 27.577 7.568 41.435 11.116 5.543 1.42 12.51 8.261 16.573 4.447 3.796-3.564-8.6-6.038-13.022-8.894-11.579-7.474-25.355-13.474-33.146-24.454-.657-.925 1.207-.218 2.368 0 15.249 2.862 26.886 15.24 37.882 25.565 3.754 3.525 6.9 7.592 10.654 11.117 2.368 2.223 7.104 9.814 7.104 6.67 0-17.462-10.43-33.54-16.573-50.022-1.816-4.87-8.378-9.833-5.921-14.45 2.366-4.447 6.233 8.436 7.103 13.34 3.254 18.332-4.11 38.952 4.736 55.578 2.604 4.894 4.416-10.362 8.287-14.45 9.869-10.424 22.92-17.748 34.33-26.678 6.395-5.004 21.31-20.043 21.31-12.227 0 8.783-16.21 8.883-24.86 12.227-10.282 3.976-19.651 9.782-29.597 14.45-4.602 2.16-8.611 5.295-13.023 7.781-2.576 1.452-10.41 5.33-8.286 3.334 13.209-12.426 37.903 1.12 55.642 6.67 10.045 3.143 28.412 3.396 28.412 13.338 0 4.224-8.523 3.335-13.022 3.335-14.473 0-28.491-4.834-42.62-7.78-4.149-.865-14.845-1.628-11.837-4.447 3.269-3.063 8.64 3.076 13.022 4.447 14.255 4.462 28.389 9.671 41.435 16.672 4.76 2.554 18.081 4.142 14.205 7.782-4.542 4.265-12.725-1.813-18.94-3.336-14.129-3.46-28.179-7.592-41.436-13.338-5.326-2.308-11.327-8.022-16.575-5.559-3.752 1.762 5.772 5.742 8.289 8.893 5.403 6.767 8.553 14.889 13.022 22.231 2.453 4.03 12.046 12.227 7.102 12.227-5.866 0-8.387-7.772-11.838-12.227-6.127-7.91-13.161-15.203-18.94-23.341-4.114-5.792-16.886-18.897-9.472-18.897 12.902 0 13.27 21.397 15.39 33.347.992 5.59 8.948 14.136 3.55 16.672-3.035 1.426-4.4-4.93-5.918-7.78-6.195-11.638-11.927-23.849-14.207-36.682-.911-5.13-6.436-17.207-1.183-15.561 15.292 4.792-7.86 30.29-17.758 42.239-2.825 3.41-9.78 10.534-11.837 6.67-4.846-9.1 8.938-19.654 17.756-25.567 3.758-2.521 17.64-4.445 13.022-4.445-16.802 0-33.565-3.448-49.721-7.783-4.932-1.323-14.205-.74-14.205-5.557s10.33-.792 15.39 0c13.762 2.154 27.53 4.47 41.435 5.557 1.966.154 6.8 1.658 5.918 0-7.25-13.626-27.27-17.616-36.699-30.011-2.771-3.643-9.29-9.061-5.918-12.227 4.542-4.265 9.078 8.578 13.022 13.34 9.837 11.876 20.406 23.243 29.595 35.568 3.535 4.742 5.991 15.17 11.84 13.34 4.268-1.335 3.27-8.01 3.55-12.227 1.04-15.602.529-31.856-4.735-46.687-2.18-6.139-7.82-13.109-4.736-18.895.728-1.366 1.185 2.919 1.185 4.446 0 5.607.943 12.007-2.368 16.672-3.727 5.25-.942 12.911 1.183 18.897 2.725 7.677 1.015 17.616 7.103 23.344"/>
    <path stroke="#ea9999" stroke-linejoin="round" stroke-linecap="butt" d="M648.663 227.306c-9.21 11.117-17.726 22.737-26.045 34.458-2.845 4.007-4.298 8.768-5.918 13.337-.45 1.268-3.718 2.914-2.368 3.336 4.555 1.425 9.418-2.544 14.207-2.223 12.125.813 23.72 5.013 35.514 7.78 3.997.939 13.141-.336 11.84 3.334-2.623 7.391-16.616 1.973-24.862 1.113-10.619-1.107-21.452-.429-31.963-2.223-4.676-.798-10.847-4.268-14.208-1.113-1.503 1.411 4.02 1.33 5.921 2.223 25.432 11.944 5.014 2.855 14.205 7.783 15.841 8.494 35.844 16.332 42.62 32.235 3.082 7.232-15.59-5.683-22.494-10.004-6.833-4.277-14.32-7.888-20.126-13.34-4.148-3.895-7.156-11.114-13.022-11.114-6.363 0-1.792 11.834-2.368 17.784-.91 9.407-5.908 18.885-13.022 25.565-.594.557-4.457 6.67-4.736 6.67-3.254 0-2.366-5.838-2.366-8.893 0-14.124-.097-28.537 3.551-42.239.772-2.898 7.412-7.319 8.287-4.447 3.643 11.971-13.323 22.237-23.677 30.014-9.957 7.478-26.502 21.805-35.516 13.338-13.648-12.82 20.357-33.532 37.884-41.128 6.122-2.654 12.265-5.773 18.94-6.668 2.377-.319 8.545-.693 7.104 1.11-5.172 6.474-16.472 4.817-24.861 6.67-10.714 2.368-21.024 6.638-31.964 7.78-6.274.656-12.627 0-18.94 0h-4.736c20.705 0 40.887-6.702 61.56-7.78 4.728-.246 9.47 0 14.206 0 2.367 0 9.35.703 7.103 0-21.664-6.78-44.684-10.422-65.111-20.007-4.025-1.889-12.077-3.774-10.655-7.783 1.764-4.97 11.16.952 16.573 2.224 13.936 3.272 27.577 7.568 41.435 11.116 5.543 1.42 12.51 8.261 16.573 4.447 3.796-3.564-8.6-6.038-13.022-8.894-11.579-7.474-25.355-13.474-33.146-24.454-.657-.925 1.207-.218 2.368 0 15.249 2.862 26.886 15.24 37.882 25.565 3.754 3.525 6.9 7.592 10.654 11.117 2.368 2.223 7.104 9.814 7.104 6.67 0-17.462-10.43-33.54-16.573-50.022-1.816-4.87-8.378-9.833-5.921-14.45 2.366-4.447 6.233 8.436 7.103 13.34 3.254 18.332-4.11 38.952 4.736 55.578 2.604 4.894 4.416-10.362 8.287-14.45 9.869-10.424 22.92-17.748 34.33-26.678 6.395-5.004 21.31-20.043 21.31-12.227 0 8.783-16.21 8.883-24.86 12.227-10.282 3.976-19.651 9.782-29.597 14.45-4.602 2.16-8.611 5.295-13.023 7.781-2.576 1.452-10.41 5.33-8.286 3.334 13.209-12.426 37.903 1.12 55.642 6.67 10.045 3.143 28.412 3.396 28.412 13.338 0 4.224-8.523 3.335-13.022 3.335-14.473 0-28.491-4.834-42.62-7.78-4.149-.865-14.845-1.628-11.837-4.447 3.269-3.063 8.64 3.076 13.022 4.447 14.255 4.462 28.389 9.671 41.435 16.672 4.76 2.554 18.081 4.142 14.205 7.782-4.542 4.265-12.725-1.813-18.94-3.336-14.129-3.46-28.179-7.592-41.436-13.338-5.326-2.308-11.327-8.022-16.575-5.559-3.752 1.762 5.772 5.742 8.289 8.893 5.403 6.767 8.553 14.889 13.022 22.231 2.453 4.03 12.046 12.227 7.102 12.227-5.866 0-8.387-7.772-11.838-12.227-6.127-7.91-13.161-15.203-18.94-23.341-4.114-5.792-16.886-18.897-9.472-18.897 12.902 0 13.27 21.397 15.39 33.347.992 5.59 8.948 14.136 3.55 16.672-3.035 1.426-4.4-4.93-5.918-7.78-6.195-11.638-11.927-23.849-14.207-36.682-.911-5.13-6.436-17.207-1.183-15.561 15.292 4.792-7.86 30.29-17.758 42.239-2.825 3.41-9.78 10.534-11.837 6.67-4.846-9.1 8.938-19.654 17.756-25.567 3.758-2.521 17.64-4.445 13.022-4.445-16.802 0-33.565-3.448-49.721-7.783-4.932-1.323-14.205-.74-14.205-5.557s10.33-.792 15.39 0c13.762 2.154 27.53 4.47 41.435 5.557 1.966.154 6.8 1.658 5.918 0-7.25-13.626-27.27-17.616-36.699-30.011-2.771-3.643-9.29-9.061-5.918-12.227 4.542-4.265 9.078 8.578 13.022 13.34 9.837 11.876 20.406 23.243 29.595 35.568 3.535 4.742 5.991 15.17 11.84 13.34 4.268-1.335 3.27-8.01 3.55-12.227 1.04-15.602.529-31.856-4.735-46.687-2.18-6.139-7.82-13.109-4.736-18.895.728-1.366 1.185 2.919 1.185 4.446 0 5.607.943 12.007-2.368 16.672-3.727 5.25-.942 12.911 1.183 18.897 2.725 7.677 1.015 17.616 7.103 23.344"/>
    <path fill="none" d="M151.43 461.427c7.763 0 15.607-.242 23.265 1.182 4.3.8 15.774.1 12.69 3.544-2.786 3.113-11.632 2.04-11.632-2.363 0-3.175 5.656.66 8.459 1.182 6.643 1.239 13.426 1.3 20.093 2.363 2.122.339 7.631 3.097 6.345 1.18-11.961-17.822-34.892-26.572-42.299-47.255-1.824-5.093-8.757-11.476-5.289-15.358 4.406-4.932 8.28 10.432 12.691 15.358 12.879 14.384 20.725 35.792 37.012 44.893 2.82 1.575 4.02-5.936 4.23-9.45.869-14.539 0-29.142 0-43.712 0-6.313-4.594-18.902 1.057-18.902 3.68 0 2.766 7.727 3.172 11.813 1.322 13.307 0 26.779 0 40.168 0 5.513-1.562 21.769 0 16.54 2.508-8.396 4.067-17.447 8.46-24.811"/>
    <path stroke="#6aa84f" stroke-linejoin="round" stroke-linecap="butt" d="M151.43 461.427c7.763 0 15.607-.242 23.265 1.182 4.3.8 15.774.1 12.69 3.544-2.786 3.113-11.632 2.04-11.632-2.363 0-3.175 5.656.66 8.459 1.182 6.643 1.239 13.426 1.3 20.093 2.363 2.122.339 7.631 3.097 6.345 1.18-11.961-17.822-34.892-26.572-42.299-47.255-1.824-5.093-8.757-11.476-5.289-15.358 4.406-4.932 8.28 10.432 12.691 15.358 12.879 14.384 20.725 35.792 37.012 44.893 2.82 1.575 4.02-5.936 4.23-9.45.869-14.539 0-29.142 0-43.712 0-6.313-4.594-18.902 1.057-18.902 3.68 0 2.766 7.727 3.172 11.813 1.322 13.307 0 26.779 0 40.168 0 5.513-1.562 21.769 0 16.54 2.508-8.396 4.067-17.447 8.46-24.811"/>
    <path fill="none" d="M246.604 412.991c-8.226 11.817-15.833 24.167-23.264 36.623-2.541 4.26-3.84 9.32-5.287 14.176-.402 1.348-3.321 3.097-2.115 3.546 4.069 1.514 8.413-2.704 12.69-2.363 10.831.864 21.19 5.328 31.724 8.27 3.57.996 11.739-.358 10.575 3.543-2.342 7.855-14.842 2.096-22.208 1.182-9.484-1.176-19.162-.455-28.551-2.363-4.177-.848-9.69-4.536-12.69-1.182-1.343 1.5 3.59 1.414 5.288 2.363 22.718 12.694 4.479 3.033 12.689 8.271 14.15 9.028 32.018 17.358 38.07 34.26 2.753 7.688-13.926-6.04-20.092-10.632-6.104-4.545-12.791-8.383-17.978-14.178-3.705-4.14-6.392-11.813-11.632-11.813-5.684 0-1.601 12.579-2.116 18.902-.813 9.999-5.277 20.072-11.632 27.172-.53.592-3.981 7.089-4.23 7.089-2.907 0-2.113-6.205-2.113-9.452 0-15.011-.087-30.33 3.171-44.893.69-3.08 6.622-7.779 7.402-4.726 3.255 12.723-11.9 23.633-21.15 31.9-8.893 7.948-23.672 23.174-31.724 14.175-12.191-13.624 18.184-35.639 33.84-43.712 5.469-2.82 10.957-6.136 16.92-7.087 2.122-.339 7.631-.736 6.345 1.18-4.62 6.88-14.714 5.12-22.208 7.09-9.57 2.515-18.78 7.055-28.552 8.269-5.605.696-11.28 0-16.92 0h-4.23c18.496 0 36.524-7.124 54.99-8.27 4.224-.262 8.46 0 12.69 0 2.115 0 8.351.748 6.345 0-19.352-7.206-39.915-11.076-58.162-21.265-3.595-2.007-10.787-4.01-9.517-8.271 1.576-5.284 9.968 1.012 14.804 2.363 12.448 3.478 24.633 8.044 37.012 11.815 4.952 1.508 11.175 8.78 14.804 4.726 3.39-3.788-7.681-6.417-11.632-9.452-10.343-7.944-22.649-14.321-29.608-25.99-.587-.984 1.078-.233 2.115 0 13.621 3.04 24.016 16.197 33.838 27.17 3.354 3.747 6.164 8.069 9.518 11.815 2.115 2.363 6.345 10.431 6.345 7.09 0-18.56-9.317-35.648-14.804-53.165-1.622-5.177-7.483-10.451-5.289-15.358 2.114-4.727 5.568 8.966 6.346 14.178 2.906 19.484-3.672 41.4 4.23 59.07 2.326 5.202 3.944-11.013 7.402-15.358 8.816-11.079 20.474-18.863 30.666-28.354 5.712-5.319 19.035-21.302 19.035-12.995 0 9.335-14.48 9.44-22.206 12.995-9.185 4.225-17.554 10.396-26.439 15.359-4.11 2.296-7.691 5.626-11.632 8.269-2.301 1.543-9.298 5.666-7.402 3.543 11.8-13.206 33.858 1.19 49.703 7.09 8.973 3.34 25.38 3.608 25.38 14.175 0 4.49-7.613 3.546-11.633 3.546-12.927 0-25.45-5.139-38.07-8.27-3.706-.919-13.26-1.73-10.574-4.726 2.92-3.256 7.718 3.269 11.632 4.726 12.734 4.742 25.359 10.28 37.012 17.72 4.252 2.714 16.152 4.403 12.69 8.271-4.058 4.533-11.368-1.927-16.92-3.545-12.62-3.678-25.17-8.07-37.012-14.176-4.758-2.454-10.118-8.527-14.806-5.909-3.352 1.873 5.156 6.102 7.404 9.452 4.827 7.192 7.64 15.824 11.632 23.628 2.192 4.284 10.76 12.996 6.344 12.996-5.24 0-7.492-8.262-10.574-12.996-5.474-8.407-11.757-16.159-16.92-24.808-3.673-6.156-15.083-20.085-8.46-20.085 11.526 0 11.855 22.742 13.748 35.443.885 5.942 7.993 15.024 3.172 17.72-2.712 1.515-3.932-5.24-5.287-8.27-5.534-12.369-10.655-25.347-12.691-38.986-.814-5.452-5.75-18.289-1.057-16.54 13.66 5.094-7.022 32.194-15.862 44.894-2.524 3.625-8.736 11.196-10.574 7.089-4.329-9.672 7.984-20.889 15.86-27.174 3.358-2.679 15.758-4.724 11.633-4.724-15.01 0-29.983-3.664-44.414-8.271-4.406-1.407-12.69-.788-12.69-5.907 0-5.12 9.228-.841 13.748 0 12.293 2.29 24.593 4.751 37.012 5.907 1.757.163 6.075 1.761 5.287 0-6.476-14.483-24.36-18.724-32.782-31.898-2.475-3.872-8.298-9.63-5.286-12.995 4.057-4.533 8.109 9.118 11.632 14.178 8.787 12.623 18.228 24.704 26.436 37.804 3.158 5.04 5.352 16.122 10.576 14.178 3.813-1.42 2.92-8.514 3.172-12.996.928-16.582.472-33.858-4.23-49.62-1.947-6.525-6.986-13.933-4.23-20.083.65-1.452 1.058 3.102 1.058 4.726 0 5.959.842 12.761-2.116 17.72-3.329 5.58-.841 13.722 1.057 20.084 2.435 8.16.907 18.723 6.346 24.81"/>
    <path stroke="#6aa84f" stroke-linejoin="round" stroke-linecap="butt" d="M246.604 412.991c-8.226 11.817-15.833 24.167-23.264 36.623-2.541 4.26-3.84 9.32-5.287 14.176-.402 1.348-3.321 3.097-2.115 3.546 4.069 1.514 8.413-2.704 12.69-2.363 10.831.864 21.19 5.328 31.724 8.27 3.57.996 11.739-.358 10.575 3.543-2.342 7.855-14.842 2.096-22.208 1.182-9.484-1.176-19.162-.455-28.551-2.363-4.177-.848-9.69-4.536-12.69-1.182-1.343 1.5 3.59 1.414 5.288 2.363 22.718 12.694 4.479 3.033 12.689 8.271 14.15 9.028 32.018 17.358 38.07 34.26 2.753 7.688-13.926-6.04-20.092-10.632-6.104-4.545-12.791-8.383-17.978-14.178-3.705-4.14-6.392-11.813-11.632-11.813-5.684 0-1.601 12.579-2.116 18.902-.813 9.999-5.277 20.072-11.632 27.172-.53.592-3.981 7.089-4.23 7.089-2.907 0-2.113-6.205-2.113-9.452 0-15.011-.087-30.33 3.171-44.893.69-3.08 6.622-7.779 7.402-4.726 3.255 12.723-11.9 23.633-21.15 31.9-8.893 7.948-23.672 23.174-31.724 14.175-12.191-13.624 18.184-35.639 33.84-43.712 5.469-2.82 10.957-6.136 16.92-7.087 2.122-.339 7.631-.736 6.345 1.18-4.62 6.88-14.714 5.12-22.208 7.09-9.57 2.515-18.78 7.055-28.552 8.269-5.605.696-11.28 0-16.92 0h-4.23c18.496 0 36.524-7.124 54.99-8.27 4.224-.262 8.46 0 12.69 0 2.115 0 8.351.748 6.345 0-19.352-7.206-39.915-11.076-58.162-21.265-3.595-2.007-10.787-4.01-9.517-8.271 1.576-5.284 9.968 1.012 14.804 2.363 12.448 3.478 24.633 8.044 37.012 11.815 4.952 1.508 11.175 8.78 14.804 4.726 3.39-3.788-7.681-6.417-11.632-9.452-10.343-7.944-22.649-14.321-29.608-25.99-.587-.984 1.078-.233 2.115 0 13.621 3.04 24.016 16.197 33.838 27.17 3.354 3.747 6.164 8.069 9.518 11.815 2.115 2.363 6.345 10.431 6.345 7.09 0-18.56-9.317-35.648-14.804-53.165-1.622-5.177-7.483-10.451-5.289-15.358 2.114-4.727 5.568 8.966 6.346 14.178 2.906 19.484-3.672 41.4 4.23 59.07 2.326 5.202 3.944-11.013 7.402-15.358 8.816-11.079 20.474-18.863 30.666-28.354 5.712-5.319 19.035-21.302 19.035-12.995 0 9.335-14.48 9.44-22.206 12.995-9.185 4.225-17.554 10.396-26.439 15.359-4.11 2.296-7.691 5.626-11.632 8.269-2.301 1.543-9.298 5.666-7.402 3.543 11.8-13.206 33.858 1.19 49.703 7.09 8.973 3.34 25.38 3.608 25.38 14.175 0 4.49-7.613 3.546-11.633 3.546-12.927 0-25.45-5.139-38.07-8.27-3.706-.919-13.26-1.73-10.574-4.726 2.92-3.256 7.718 3.269 11.632 4.726 12.734 4.742 25.359 10.28 37.012 17.72 4.252 2.714 16.152 4.403 12.69 8.271-4.058 4.533-11.368-1.927-16.92-3.545-12.62-3.678-25.17-8.07-37.012-14.176-4.758-2.454-10.118-8.527-14.806-5.909-3.352 1.873 5.156 6.102 7.404 9.452 4.827 7.192 7.64 15.824 11.632 23.628 2.192 4.284 10.76 12.996 6.344 12.996-5.24 0-7.492-8.262-10.574-12.996-5.474-8.407-11.757-16.159-16.92-24.808-3.673-6.156-15.083-20.085-8.46-20.085 11.526 0 11.855 22.742 13.748 35.443.885 5.942 7.993 15.024 3.172 17.72-2.712 1.515-3.932-5.24-5.287-8.27-5.534-12.369-10.655-25.347-12.691-38.986-.814-5.452-5.75-18.289-1.057-16.54 13.66 5.094-7.022 32.194-15.862 44.894-2.524 3.625-8.736 11.196-10.574 7.089-4.329-9.672 7.984-20.889 15.86-27.174 3.358-2.679 15.758-4.724 11.633-4.724-15.01 0-29.983-3.664-44.414-8.271-4.406-1.407-12.69-.788-12.69-5.907 0-5.12 9.228-.841 13.748 0 12.293 2.29 24.593 4.751 37.012 5.907 1.757.163 6.075 1.761 5.287 0-6.476-14.483-24.36-18.724-32.782-31.898-2.475-3.872-8.298-9.63-5.286-12.995 4.057-4.533 8.109 9.118 11.632 14.178 8.787 12.623 18.228 24.704 26.436 37.804 3.158 5.04 5.352 16.122 10.576 14.178 3.813-1.42 2.92-8.514 3.172-12.996.928-16.582.472-33.858-4.23-49.62-1.947-6.525-6.986-13.933-4.23-20.083.65-1.452 1.058 3.102 1.058 4.726 0 5.959.842 12.761-2.116 17.72-3.329 5.58-.841 13.722 1.057 20.084 2.435 8.16.907 18.723 6.346 24.81"/>
    <path fill="none" d="M503.208 543.172c-11.69-10.434-39.139-22.288-48.311-10.01-6.23 8.339-1.219 23.245 7.764 29.26 8.588 5.752 24.327 2.927 31.92-3.85 1.094-.976-2.765-1.54-4.314-1.54-3.51 0-6.145 3.175-8.626 5.39-8.382 7.487-15.207 21.999-8.628 30.804 3.143 4.207 10.154 7.757 15.528 6.16 15.066-4.477 34.714-21.977 27.608-34.652-.656-1.17-.864 2.541-.864 3.85 0 3.425 1.836 6.653 2.59 10.01 1.716 7.655 18.602 8.18 25.88 3.85 7.823-4.654 15.421-15.595 11.215-23.1-4.368-7.795-21.57-12.33-28.47-6.161-1.218 1.09 3.452 0 5.177 0 3.75 0 7.705.404 11.216-.771 6.507-2.177 14.808-2.739 18.98-7.7 3.629-4.316 3.972-11.544.861-16.172-5.926-8.815-28.58-10.354-34.508-1.54-2.585 3.844-10.911 13.408-6.038 12.322 5.918-1.32 2.587-10.726 2.587-16.172 0-11.285 1.05-29.603-11.215-32.342-8.689-1.94-18.732 8.24-19.842 16.172-1.7 12.143.767 25.248 6.902 36.192"/>
    <path stroke="#6fa8dc" stroke-linejoin="round" stroke-linecap="butt" d="M503.208 543.172c-11.69-10.434-39.139-22.288-48.311-10.01-6.23 8.339-1.219 23.245 7.764 29.26 8.588 5.752 24.327 2.927 31.92-3.85 1.094-.976-2.765-1.54-4.314-1.54-3.51 0-6.145 3.175-8.626 5.39-8.382 7.487-15.207 21.999-8.628 30.804 3.143 4.207 10.154 7.757 15.528 6.16 15.066-4.477 34.714-21.977 27.608-34.652-.656-1.17-.864 2.541-.864 3.85 0 3.425 1.836 6.653 2.59 10.01 1.716 7.655 18.602 8.18 25.88 3.85 7.823-4.654 15.421-15.595 11.215-23.1-4.368-7.795-21.57-12.33-28.47-6.161-1.218 1.09 3.452 0 5.177 0 3.75 0 7.705.404 11.216-.771 6.507-2.177 14.808-2.739 18.98-7.7 3.629-4.316 3.972-11.544.861-16.172-5.926-8.815-28.58-10.354-34.508-1.54-2.585 3.844-10.911 13.408-6.038 12.322 5.918-1.32 2.587-10.726 2.587-16.172 0-11.285 1.05-29.603-11.215-32.342-8.689-1.94-18.732 8.24-19.842 16.172-1.7 12.143.767 25.248 6.902 36.192"/>
    <path fill="none" d="M504.062 541.31c0-3.566 2.043-9.24 6.038-9.24 7.954 0 13.343 9.344 15.529 16.17 2.591 8.096-8.305 17.36-17.254 20.022-5.781 1.72-15.775-.114-17.254-5.39-2.157-7.691 5.55-16.394 12.94-20.792"/>
    <path stroke="#45818e" stroke-width="2" stroke-linejoin="round" stroke-linecap="butt" d="M504.062 541.31c0-3.566 2.043-9.24 6.038-9.24 7.954 0 13.343 9.344 15.529 16.17 2.591 8.096-8.305 17.36-17.254 20.022-5.781 1.72-15.775-.114-17.254-5.39-2.157-7.691 5.55-16.394 12.94-20.792"/>
    <path fill="none" d="M825.58 646.074c8.691 0 17.473-.227 26.045 1.113 4.815.753 17.66.093 14.207 3.334-3.12 2.93-13.022 1.92-13.022-2.223 0-2.987 6.332.62 9.47 1.112 7.436 1.165 15.03 1.223 22.493 2.224 2.377.318 8.544 2.914 7.104 1.11-13.39-16.77-39.062-25.002-47.353-44.462-2.042-4.791-9.804-10.797-5.921-14.45 4.932-4.64 9.27 9.816 14.207 14.45 14.418 13.534 23.202 33.676 41.435 42.239 3.156 1.482 4.5-5.585 4.736-8.891.972-13.68 0-27.419 0-41.128 0-5.94-5.143-17.784 1.182-17.784 4.12 0 3.097 7.27 3.551 11.114 1.48 12.521 0 25.196 0 37.794 0 5.187-1.749 20.481 0 15.561 2.808-7.899 4.554-16.415 9.472-23.344"/>
    <path stroke="#f6b26b" stroke-linejoin="round" stroke-linecap="butt" d="M825.58 646.074c8.691 0 17.473-.227 26.045 1.113 4.815.753 17.66.093 14.207 3.334-3.12 2.93-13.022 1.92-13.022-2.223 0-2.987 6.332.62 9.47 1.112 7.436 1.165 15.03 1.223 22.493 2.224 2.377.318 8.544 2.914 7.104 1.11-13.39-16.77-39.062-25.002-47.353-44.462-2.042-4.791-9.804-10.797-5.921-14.45 4.932-4.64 9.27 9.816 14.207 14.45 14.418 13.534 23.202 33.676 41.435 42.239 3.156 1.482 4.5-5.585 4.736-8.891.972-13.68 0-27.419 0-41.128 0-5.94-5.143-17.784 1.182-17.784 4.12 0 3.097 7.27 3.551 11.114 1.48 12.521 0 25.196 0 37.794 0 5.187-1.749 20.481 0 15.561 2.808-7.899 4.554-16.415 9.472-23.344"/>
    <path fill="none" d="M932.127 600.502c-9.209 11.118-17.725 22.738-26.044 34.458-2.845 4.008-4.298 8.768-5.919 13.338-.45 1.268-3.718 2.914-2.368 3.336 4.555 1.425 9.419-2.544 14.208-2.223 12.125.812 23.72 5.013 35.513 7.78 3.998.938 13.142-.336 11.84 3.334-2.622 7.391-16.616 1.972-24.862 1.113-10.618-1.107-21.452-.429-31.963-2.223-4.675-.799-10.847-4.268-14.207-1.113-1.503 1.411 4.02 1.33 5.92 2.223 25.433 11.944 5.015 2.854 14.206 7.783 15.84 8.494 35.843 16.332 42.62 32.235 3.081 7.232-15.591-5.683-22.494-10.004-6.833-4.277-14.32-7.888-20.126-13.34-4.148-3.895-7.156-11.114-13.023-11.114-6.362 0-1.792 11.834-2.367 17.784-.91 9.407-5.909 18.885-13.023 25.565-.593.557-4.457 6.67-4.735 6.67-3.255 0-2.366-5.838-2.366-8.894 0-14.123-.098-28.537 3.55-42.238.772-2.898 7.413-7.319 8.287-4.447 3.643 11.971-13.322 22.236-23.677 30.014-9.956 7.478-26.501 21.804-35.516 13.337-13.647-12.819 20.357-33.531 37.884-41.127 6.122-2.654 12.266-5.774 18.941-6.668 2.377-.319 8.544-.693 7.104 1.11-5.172 6.474-16.472 4.816-24.862 6.67-10.714 2.368-21.024 6.638-31.963 7.78-6.275.656-12.627 0-18.94 0h-4.737c20.706 0 40.887-6.702 61.56-7.78 4.729-.246 9.471 0 14.206 0 2.368 0 9.35.703 7.104 0-21.665-6.78-44.684-10.422-65.112-20.007-4.025-1.89-12.076-3.775-10.654-7.783 1.764-4.971 11.16.952 16.573 2.223 13.935 3.272 27.576 7.569 41.435 11.117 5.543 1.419 12.51 8.261 16.573 4.446 3.795-3.563-8.6-6.038-13.023-8.893-11.578-7.474-25.355-13.474-33.146-24.454-.656-.925 1.207-.218 2.368 0 15.25 2.862 26.886 15.24 37.882 25.565 3.754 3.525 6.9 7.591 10.654 11.116 2.368 2.224 7.104 9.814 7.104 6.67 0-17.462-10.43-33.539-16.573-50.02-1.816-4.872-8.377-9.834-5.92-14.451 2.365-4.448 6.233 8.436 7.103 13.34 3.253 18.332-4.11 38.952 4.736 55.578 2.603 4.894 4.415-10.362 8.286-14.45 9.87-10.425 22.92-17.748 34.331-26.678 6.395-5.004 21.309-20.043 21.309-12.227 0 8.783-16.21 8.883-24.86 12.227-10.282 3.975-19.65 9.781-29.597 14.45-4.602 2.16-8.61 5.294-13.022 7.78-2.577 1.453-10.41 5.332-8.287 3.335 13.21-12.426 37.904 1.119 55.642 6.67 10.046 3.143 28.413 3.395 28.413 13.337 0 4.225-8.523 3.336-13.023 3.336-14.472 0-28.49-4.835-42.62-7.78-4.148-.865-14.844-1.628-11.837-4.447 3.27-3.064 8.64 3.075 13.023 4.447 14.255 4.461 28.388 9.67 41.434 16.671 4.76 2.555 18.082 4.143 14.205 7.783-4.542 4.265-12.725-1.813-18.94-3.336-14.128-3.46-28.178-7.592-41.435-13.338-5.327-2.308-11.328-8.023-16.575-5.559-3.753 1.762 5.772 5.742 8.288 8.893 5.404 6.767 8.553 14.888 13.023 22.231 2.453 4.03 12.045 12.227 7.101 12.227-5.866 0-8.387-7.773-11.837-12.227-6.128-7.91-13.161-15.203-18.94-23.341-4.114-5.793-16.887-18.897-9.472-18.897 12.902 0 13.27 21.397 15.39 33.347.991 5.59 8.948 14.135 3.55 16.672-3.035 1.426-4.4-4.93-5.918-7.78-6.196-11.639-11.927-23.849-14.207-36.682-.912-5.13-6.437-17.207-1.183-15.561 15.292 4.792-7.861 30.29-17.758 42.238-2.825 3.411-9.78 10.535-11.838 6.67-4.845-9.1 8.939-19.653 17.756-25.567 3.759-2.52 17.641-4.444 13.023-4.444-16.803 0-33.566-3.448-49.722-7.783-4.932-1.323-14.205-.74-14.205-5.557s10.33-.792 15.39 0c13.762 2.154 27.531 4.47 41.435 5.557 1.966.154 6.8 1.657 5.919 0-7.25-13.626-27.27-17.616-36.7-30.011-2.77-3.643-9.29-9.062-5.918-12.227 4.543-4.265 9.078 8.578 13.022 13.34 9.838 11.876 20.406 23.243 29.596 35.568 3.535 4.742 5.99 15.17 11.84 13.34 4.268-1.335 3.269-8.011 3.55-12.227 1.04-15.602.528-31.856-4.736-46.687-2.179-6.139-7.82-13.109-4.736-18.895.729-1.367 1.185 2.918 1.185 4.446 0 5.607.944 12.007-2.368 16.672-3.726 5.25-.942 12.91 1.183 18.897 2.726 7.677 1.015 17.616 7.104 23.344"/>
    <path stroke="#f6b26b" stroke-linejoin="round" stroke-linecap="butt" d="M932.127 600.502c-9.209 11.118-17.725 22.738-26.044 34.458-2.845 4.008-4.298 8.768-5.919 13.338-.45 1.268-3.718 2.914-2.368 3.336 4.555 1.425 9.419-2.544 14.208-2.223 12.125.812 23.72 5.013 35.513 7.78 3.998.938 13.142-.336 11.84 3.334-2.622 7.391-16.616 1.972-24.862 1.113-10.618-1.107-21.452-.429-31.963-2.223-4.675-.799-10.847-4.268-14.207-1.113-1.503 1.411 4.02 1.33 5.92 2.223 25.433 11.944 5.015 2.854 14.206 7.783 15.84 8.494 35.843 16.332 42.62 32.235 3.081 7.232-15.591-5.683-22.494-10.004-6.833-4.277-14.32-7.888-20.126-13.34-4.148-3.895-7.156-11.114-13.023-11.114-6.362 0-1.792 11.834-2.367 17.784-.91 9.407-5.909 18.885-13.023 25.565-.593.557-4.457 6.67-4.735 6.67-3.255 0-2.366-5.838-2.366-8.894 0-14.123-.098-28.537 3.55-42.238.772-2.898 7.413-7.319 8.287-4.447 3.643 11.971-13.322 22.236-23.677 30.014-9.956 7.478-26.501 21.804-35.516 13.337-13.647-12.819 20.357-33.531 37.884-41.127 6.122-2.654 12.266-5.774 18.941-6.668 2.377-.319 8.544-.693 7.104 1.11-5.172 6.474-16.472 4.816-24.862 6.67-10.714 2.368-21.024 6.638-31.963 7.78-6.275.656-12.627 0-18.94 0h-4.737c20.706 0 40.887-6.702 61.56-7.78 4.729-.246 9.471 0 14.206 0 2.368 0 9.35.703 7.104 0-21.665-6.78-44.684-10.422-65.112-20.007-4.025-1.89-12.076-3.775-10.654-7.783 1.764-4.971 11.16.952 16.573 2.223 13.935 3.272 27.576 7.569 41.435 11.117 5.543 1.419 12.51 8.261 16.573 4.446 3.795-3.563-8.6-6.038-13.023-8.893-11.578-7.474-25.355-13.474-33.146-24.454-.656-.925 1.207-.218 2.368 0 15.25 2.862 26.886 15.24 37.882 25.565 3.754 3.525 6.9 7.591 10.654 11.116 2.368 2.224 7.104 9.814 7.104 6.67 0-17.462-10.43-33.539-16.573-50.02-1.816-4.872-8.377-9.834-5.92-14.451 2.365-4.448 6.233 8.436 7.103 13.34 3.253 18.332-4.11 38.952 4.736 55.578 2.603 4.894 4.415-10.362 8.286-14.45 9.87-10.425 22.92-17.748 34.331-26.678 6.395-5.004 21.309-20.043 21.309-12.227 0 8.783-16.21 8.883-24.86 12.227-10.282 3.975-19.65 9.781-29.597 14.45-4.602 2.16-8.61 5.294-13.022 7.78-2.577 1.453-10.41 5.332-8.287 3.335 13.21-12.426 37.904 1.119 55.642 6.67 10.046 3.143 28.413 3.395 28.413 13.337 0 4.225-8.523 3.336-13.023 3.336-14.472 0-28.49-4.835-42.62-7.78-4.148-.865-14.844-1.628-11.837-4.447 3.27-3.064 8.64 3.075 13.023 4.447 14.255 4.461 28.388 9.67 41.434 16.671 4.76 2.555 18.082 4.143 14.205 7.783-4.542 4.265-12.725-1.813-18.94-3.336-14.128-3.46-28.178-7.592-41.435-13.338-5.327-2.308-11.328-8.023-16.575-5.559-3.753 1.762 5.772 5.742 8.288 8.893 5.404 6.767 8.553 14.888 13.023 22.231 2.453 4.03 12.045 12.227 7.101 12.227-5.866 0-8.387-7.773-11.837-12.227-6.128-7.91-13.161-15.203-18.94-23.341-4.114-5.793-16.887-18.897-9.472-18.897 12.902 0 13.27 21.397 15.39 33.347.991 5.59 8.948 14.135 3.55 16.672-3.035 1.426-4.4-4.93-5.918-7.78-6.196-11.639-11.927-23.849-14.207-36.682-.912-5.13-6.437-17.207-1.183-15.561 15.292 4.792-7.861 30.29-17.758 42.238-2.825 3.411-9.78 10.535-11.838 6.67-4.845-9.1 8.939-19.653 17.756-25.567 3.759-2.52 17.641-4.444 13.023-4.444-16.803 0-33.566-3.448-49.722-7.783-4.932-1.323-14.205-.74-14.205-5.557s10.33-.792 15.39 0c13.762 2.154 27.531 4.47 41.435 5.557 1.966.154 6.8 1.657 5.919 0-7.25-13.626-27.27-17.616-36.7-30.011-2.77-3.643-9.29-9.062-5.918-12.227 4.543-4.265 9.078 8.578 13.022 13.34 9.838 11.876 20.406 23.243 29.596 35.568 3.535 4.742 5.99 15.17 11.84 13.34 4.268-1.335 3.269-8.011 3.55-12.227 1.04-15.602.528-31.856-4.736-46.687-2.179-6.139-7.82-13.109-4.736-18.895.729-1.367 1.185 2.918 1.185 4.446 0 5.607.944 12.007-2.368 16.672-3.726 5.25-.942 12.91 1.183 18.897 2.726 7.677 1.015 17.616 7.104 23.344"/>
  </g>
</svg>