<svg viewBox="0 0 989.669 725.819" fill="none" stroke-linecap="square" stroke-miterlimit="10" xmlns="http://www.w3.org/2000/svg">
  <clipPath id="a">
    <path d="M0 0h989.67v725.819H0V0z"/>
  </clipPath>
  <g clip-path="url(#a)">
    <path fill="none" d="M0 0h989.67v725.819H0z"/>
    <path fill="none" d="M440.048 590.95c-8.21-7.782-17.539-26.054-7.878-32.16 6.563-4.147 18.294-.811 23.027 5.169 4.526 5.716 2.303 16.193-3.03 21.247-.768.729-1.211-1.84-1.211-2.871 0-2.336 2.497-4.09 4.241-5.742 5.891-5.58 17.311-10.123 24.24-5.744 3.31 2.092 6.104 6.76 4.847 10.337-3.523 10.03-17.294 23.108-27.268 18.378-.921-.437 2-.575 3.03-.575 2.695 0 5.235 1.222 7.877 1.723 6.024 1.143 6.437 12.384 3.03 17.228-3.663 5.208-12.272 10.266-18.179 7.466-6.134-2.908-9.702-14.36-4.848-18.951.858-.812 0 2.297 0 3.446 0 2.495.318 5.128-.606 7.465-1.714 4.332-2.156 9.858-6.06 12.634-3.396 2.416-9.084 2.645-12.726.574-6.936-3.945-8.148-19.025-1.212-22.97 3.025-1.721 10.552-7.264 9.697-4.02-1.039 3.94-8.441 1.722-12.726 1.722-8.881 0-23.295.699-25.451-7.466-1.527-5.783 6.483-12.469 12.726-13.208 9.556-1.131 19.868.51 28.48 4.595"/>
    <path stroke="#6fa8dc" stroke-linejoin="round" stroke-linecap="butt" d="M440.048 590.95c-8.21-7.782-17.539-26.054-7.878-32.16 6.563-4.147 18.294-.811 23.027 5.169 4.526 5.716 2.303 16.193-3.03 21.247-.768.729-1.211-1.84-1.211-2.871 0-2.336 2.497-4.09 4.241-5.742 5.891-5.58 17.311-10.123 24.24-5.744 3.31 2.092 6.104 6.76 4.847 10.337-3.523 10.03-17.294 23.108-27.268 18.378-.921-.437 2-.575 3.03-.575 2.695 0 5.235 1.222 7.877 1.723 6.024 1.143 6.437 12.384 3.03 17.228-3.663 5.208-12.272 10.266-18.179 7.466-6.134-2.908-9.702-14.36-4.848-18.951.858-.812 0 2.297 0 3.446 0 2.495.318 5.128-.606 7.465-1.714 4.332-2.156 9.858-6.06 12.634-3.396 2.416-9.084 2.645-12.726.574-6.936-3.945-8.148-19.025-1.212-22.97 3.025-1.721 10.552-7.264 9.697-4.02-1.039 3.94-8.441 1.722-12.726 1.722-8.881 0-23.295.699-25.451-7.466-1.527-5.783 6.483-12.469 12.726-13.208 9.556-1.131 19.868.51 28.48 4.595"/>
    <path fill="none" d="M438.583 591.518c-2.806 0-7.271 1.36-7.271 4.02 0 5.294 7.353 8.881 12.725 10.336 6.37 1.725 13.66-5.528 15.755-11.485 1.354-3.848-.09-10.501-4.241-11.486-6.053-1.435-12.9 3.695-16.362 8.614"/>
    <path stroke="#45818e" stroke-width="2" stroke-linejoin="round" stroke-linecap="butt" d="M438.583 591.518c-2.806 0-7.271 1.36-7.271 4.02 0 5.294 7.353 8.881 12.725 10.336 6.37 1.725 13.66-5.528 15.755-11.485 1.354-3.848-.09-10.501-4.241-11.486-6.053-1.435-12.9 3.695-16.362 8.614"/>
    <path fill="none" d="M754.586 113.394c-10.792-10.431-23.052-34.924-10.354-43.108 8.625-5.56 24.043-1.087 30.265 6.928 5.948 7.663 3.027 21.707-3.982 28.481-1.01.977-1.593-2.467-1.593-3.848 0-3.132 3.283-5.484 5.575-7.698 7.743-7.479 22.752-13.568 31.86-7.698 4.35 2.804 8.022 9.06 6.37 13.856-4.63 13.443-22.73 30.975-35.84 24.634-1.21-.585 2.629-.77 3.982-.77 3.542 0 6.881 1.638 10.354 2.31 7.917 1.532 8.46 16.599 3.982 23.093-4.814 6.98-16.13 13.76-23.893 10.007-8.062-3.898-12.752-19.248-6.372-25.403 1.128-1.088 0 3.08 0 4.62 0 3.345.418 6.874-.797 10.007-2.252 5.806-2.833 13.213-7.964 16.935-4.464 3.239-11.94 3.545-16.726.77-9.117-5.289-10.71-25.503-1.593-30.792 3.975-2.307 13.868-9.737 12.744-5.389-1.365 5.282-11.094 2.31-16.726 2.31-11.673 0-30.618.936-33.452-10.008-2.007-7.753 8.522-16.714 16.727-17.705 12.56-1.516 26.114.684 37.433 6.159"/>
    <path stroke="#f1c232" stroke-linejoin="round" stroke-linecap="butt" d="M754.586 113.394c-10.792-10.431-23.052-34.924-10.354-43.108 8.625-5.56 24.043-1.087 30.265 6.928 5.948 7.663 3.027 21.707-3.982 28.481-1.01.977-1.593-2.467-1.593-3.848 0-3.132 3.283-5.484 5.575-7.698 7.743-7.479 22.752-13.568 31.86-7.698 4.35 2.804 8.022 9.06 6.37 13.856-4.63 13.443-22.73 30.975-35.84 24.634-1.21-.585 2.629-.77 3.982-.77 3.542 0 6.881 1.638 10.354 2.31 7.917 1.532 8.46 16.599 3.982 23.093-4.814 6.98-16.13 13.76-23.893 10.007-8.062-3.898-12.752-19.248-6.372-25.403 1.128-1.088 0 3.08 0 4.62 0 3.345.418 6.874-.797 10.007-2.252 5.806-2.833 13.213-7.964 16.935-4.464 3.239-11.94 3.545-16.726.77-9.117-5.289-10.71-25.503-1.593-30.792 3.975-2.307 13.868-9.737 12.744-5.389-1.365 5.282-11.094 2.31-16.726 2.31-11.673 0-30.618.936-33.452-10.008-2.007-7.753 8.522-16.714 16.727-17.705 12.56-1.516 26.114.684 37.433 6.159"/>
    <path fill="none" d="M754.587 113.392c-3.688 0-9.557 1.824-9.557 5.388 0 7.097 9.665 11.907 16.725 13.856 8.373 2.313 17.954-7.41 20.708-15.395 1.779-5.158-.118-14.076-5.575-15.396-7.955-1.924-16.956 4.953-21.505 11.547"/>
    <path stroke="#f1c232" stroke-width="2" stroke-linejoin="round" stroke-linecap="butt" d="M754.587 113.392c-3.688 0-9.557 1.824-9.557 5.388 0 7.097 9.665 11.907 16.725 13.856 8.373 2.313 17.954-7.41 20.708-15.395 1.779-5.158-.118-14.076-5.575-15.396-7.955-1.924-16.956 4.953-21.505 11.547"/>
    <path fill="none" d="M239.11 166.593c10.434-11.69 22.287-39.138 10.01-48.31-8.339-6.231-23.246-1.22-29.261 7.764-5.751 8.588-2.927 24.327 3.85 31.919.977 1.095 1.54-2.765 1.54-4.313 0-3.51-3.174-6.146-5.39-8.627-7.486-8.381-21.998-15.206-30.804-8.627-4.206 3.142-7.756 10.154-6.16 15.528 4.478 15.066 21.978 34.714 34.653 27.607 1.17-.656-2.541-.863-3.85-.863-3.425 0-6.653 1.836-10.011 2.589-7.655 1.717-8.18 18.603-3.85 25.88 4.654 7.824 15.595 15.422 23.1 11.216 7.796-4.369 12.33-21.571 6.162-28.47-1.09-1.219 0 3.451 0 5.177 0 3.75-.404 7.704.77 11.215 2.178 6.507 2.74 14.808 7.7 18.98 4.317 3.63 11.545 3.973 16.172.862 8.815-5.926 10.354-28.58 1.54-34.508-3.843-2.585-13.408-10.912-12.321-6.039 1.32 5.919 10.726 2.588 16.171 2.588 11.286 0 29.603 1.05 32.343-11.216 1.94-8.688-8.24-18.731-16.172-19.841-12.143-1.7-25.249.766-36.192 6.902"/>
    <path stroke="#6fa8dc" stroke-linejoin="round" stroke-linecap="butt" d="M239.11 166.593c10.434-11.69 22.287-39.138 10.01-48.31-8.339-6.231-23.246-1.22-29.261 7.764-5.751 8.588-2.927 24.327 3.85 31.919.977 1.095 1.54-2.765 1.54-4.313 0-3.51-3.174-6.146-5.39-8.627-7.486-8.381-21.998-15.206-30.804-8.627-4.206 3.142-7.756 10.154-6.16 15.528 4.478 15.066 21.978 34.714 34.653 27.607 1.17-.656-2.541-.863-3.85-.863-3.425 0-6.653 1.836-10.011 2.589-7.655 1.717-8.18 18.603-3.85 25.88 4.654 7.824 15.595 15.422 23.1 11.216 7.796-4.369 12.33-21.571 6.162-28.47-1.09-1.219 0 3.451 0 5.177 0 3.75-.404 7.704.77 11.215 2.178 6.507 2.74 14.808 7.7 18.98 4.317 3.63 11.545 3.973 16.172.862 8.815-5.926 10.354-28.58 1.54-34.508-3.843-2.585-13.408-10.912-12.321-6.039 1.32 5.919 10.726 2.588 16.171 2.588 11.286 0 29.603 1.05 32.343-11.216 1.94-8.688-8.24-18.731-16.172-19.841-12.143-1.7-25.249.766-36.192 6.902"/>
    <path fill="none" d="M240.971 167.447c3.566 0 9.24 2.044 9.24 6.039 0 7.953-9.344 13.343-16.17 15.528-8.096 2.592-17.359-8.305-20.022-17.254-1.72-5.78.114-15.775 5.39-17.254 7.692-2.156 16.394 5.551 20.793 12.941"/>
    <path stroke="#45818e" stroke-width="2" stroke-linejoin="round" stroke-linecap="butt" d="M240.971 167.447c3.566 0 9.24 2.044 9.24 6.039 0 7.953-9.344 13.343-16.17 15.528-8.096 2.592-17.359-8.305-20.022-17.254-1.72-5.78.114-15.775 5.39-17.254 7.692-2.156 16.394 5.551 20.793 12.941"/>
    <path fill="none" d="M520.415 285.303c8.69 0 17.472-.228 26.045 1.112 4.815.753 17.659.093 14.207 3.334-3.12 2.93-13.022 1.92-13.022-2.223 0-2.987 6.331.621 9.47 1.113 7.436 1.165 15.03 1.222 22.493 2.223 2.376.318 8.544 2.914 7.104 1.11-13.391-16.769-39.062-25.001-47.354-44.461-2.041-4.792-9.804-10.798-5.92-14.45 4.932-4.64 9.27 9.815 14.207 14.45 14.418 13.533 23.201 33.676 41.435 42.238 3.156 1.482 4.5-5.585 4.735-8.89.972-13.68 0-27.42 0-41.129 0-5.94-5.143-17.784 1.183-17.784 4.12 0 3.096 7.27 3.55 11.114 1.481 12.521 0 25.196 0 37.794 0 5.187-1.748 20.481 0 15.561 2.808-7.898 4.554-16.414 9.472-23.343"/>
    <path stroke="#ea9999" stroke-linejoin="round" stroke-linecap="butt" d="M520.415 285.303c8.69 0 17.472-.228 26.045 1.112 4.815.753 17.659.093 14.207 3.334-3.12 2.93-13.022 1.92-13.022-2.223 0-2.987 6.331.621 9.47 1.113 7.436 1.165 15.03 1.222 22.493 2.223 2.376.318 8.544 2.914 7.104 1.11-13.391-16.769-39.062-25.001-47.354-44.461-2.041-4.792-9.804-10.798-5.92-14.45 4.932-4.64 9.27 9.815 14.207 14.45 14.418 13.533 23.201 33.676 41.435 42.238 3.156 1.482 4.5-5.585 4.735-8.89.972-13.68 0-27.42 0-41.129 0-5.94-5.143-17.784 1.183-17.784 4.12 0 3.096 7.27 3.55 11.114 1.481 12.521 0 25.196 0 37.794 0 5.187-1.748 20.481 0 15.561 2.808-7.898 4.554-16.414 9.472-23.343"/>
    <path fill="none" d="M626.962 239.73c-9.21 11.119-17.726 22.739-26.044 34.459-2.845 4.008-4.299 8.768-5.92 13.338-.449 1.267-3.717 2.913-2.367 3.335 4.555 1.425 9.418-2.544 14.207-2.223 12.125.813 23.721 5.013 35.514 7.78 3.997.939 13.142-.336 11.84 3.335-2.623 7.39-16.616 1.972-24.862 1.112-10.618-1.107-21.452-.428-31.963-2.223-4.676-.798-10.847-4.268-14.208-1.113-1.503 1.412 4.02 1.33 5.921 2.224 25.433 11.944 5.014 2.854 14.205 7.782 15.841 8.494 35.844 16.332 42.62 32.235 3.082 7.232-15.59-5.683-22.494-10.004-6.832-4.277-14.32-7.888-20.126-13.34-4.148-3.894-7.156-11.114-13.022-11.114-6.363 0-1.792 11.834-2.368 17.784-.91 9.408-5.908 18.886-13.022 25.565-.594.557-4.457 6.67-4.736 6.67-3.254 0-2.365-5.838-2.365-8.893 0-14.124-.098-28.537 3.55-42.239.772-2.898 7.413-7.319 8.287-4.446 3.643 11.97-13.323 22.236-23.677 30.013-9.957 7.479-26.502 21.805-35.516 13.338-13.648-12.82 20.357-33.532 37.884-41.128 6.122-2.653 12.266-5.773 18.94-6.668 2.377-.318 8.545-.692 7.105 1.11-5.172 6.474-16.472 4.817-24.862 6.67-10.714 2.368-21.024 6.639-31.963 7.781-6.275.655-12.628 0-18.941 0h-4.736c20.705 0 40.887-6.703 61.56-7.78 4.728-.247 9.47 0 14.206 0 2.368 0 9.35.703 7.103 0-21.664-6.781-44.683-10.422-65.11-20.008-4.026-1.889-12.077-3.774-10.655-7.783 1.763-4.97 11.159.953 16.573 2.224 13.935 3.272 27.576 7.568 41.434 11.116 5.543 1.42 12.51 8.261 16.573 4.447 3.796-3.564-8.599-6.038-13.022-8.893-11.579-7.475-25.355-13.475-33.146-24.455-.656-.925 1.207-.217 2.368 0 15.249 2.862 26.886 15.24 37.882 25.565 3.754 3.525 6.9 7.592 10.654 11.117 2.368 2.223 7.104 9.814 7.104 6.67 0-17.462-10.43-33.54-16.573-50.021-1.816-4.872-8.377-9.834-5.921-14.45 2.366-4.448 6.233 8.435 7.104 13.339 3.253 18.332-4.11 38.952 4.735 55.578 2.604 4.894 4.416-10.362 8.287-14.45 9.87-10.424 22.92-17.748 34.33-26.678 6.395-5.004 21.31-20.043 21.31-12.227 0 8.784-16.21 8.883-24.86 12.227-10.282 3.976-19.651 9.782-29.597 14.45-4.602 2.16-8.611 5.295-13.023 7.781-2.576 1.452-10.409 5.331-8.286 3.334 13.21-12.425 37.903 1.12 55.642 6.67 10.045 3.143 28.412 3.396 28.412 13.338 0 4.224-8.523 3.336-13.022 3.336-14.473 0-28.491-4.835-42.62-7.78-4.148-.866-14.845-1.628-11.837-4.447 3.27-3.064 8.64 3.075 13.022 4.446 14.256 4.462 28.389 9.671 41.435 16.672 4.76 2.554 18.082 4.143 14.205 7.782-4.542 4.265-12.725-1.813-18.94-3.336-14.129-3.46-28.179-7.592-41.435-13.337-5.327-2.309-11.328-8.023-16.576-5.56-3.752 1.762 5.772 5.742 8.29 8.894 5.402 6.766 8.552 14.888 13.021 22.23 2.454 4.031 12.046 12.228 7.102 12.228-5.866 0-8.387-7.773-11.837-12.227-6.128-7.911-13.162-15.204-18.941-23.342-4.114-5.792-16.886-18.897-9.472-18.897 12.903 0 13.271 21.397 15.39 33.347.992 5.59 8.949 14.136 3.551 16.672-3.035 1.426-4.4-4.93-5.918-7.78-6.196-11.638-11.928-23.849-14.208-36.682-.911-5.13-6.436-17.207-1.183-15.56 15.292 4.791-7.86 30.29-17.758 42.238-2.825 3.41-9.779 10.534-11.837 6.67-4.846-9.1 8.938-19.654 17.756-25.567 3.758-2.52 17.64-4.445 13.022-4.445-16.802 0-33.565-3.448-49.72-7.782-4.933-1.324-14.206-.741-14.206-5.558 0-4.816 10.33-.792 15.39 0 13.762 2.154 27.531 4.47 41.435 5.558 1.966.153 6.8 1.657 5.918 0-7.25-13.626-27.27-17.617-36.699-30.012-2.77-3.643-9.29-9.061-5.918-12.227 4.542-4.265 9.078 8.579 13.022 13.34 9.838 11.876 20.406 23.243 29.595 35.568 3.536 4.742 5.991 15.17 11.84 13.34 4.268-1.335 3.27-8.01 3.55-12.227 1.04-15.602.529-31.856-4.735-46.687-2.179-6.138-7.82-13.109-4.736-18.895.728-1.366 1.185 2.919 1.185 4.447 0 5.606.944 12.006-2.368 16.671-3.727 5.25-.942 12.911 1.183 18.897 2.725 7.678 1.015 17.616 7.104 23.344"/>
    <path stroke="#ea9999" stroke-linejoin="round" stroke-linecap="butt" d="M626.962 239.73c-9.21 11.119-17.726 22.739-26.044 34.459-2.845 4.008-4.299 8.768-5.92 13.338-.449 1.267-3.717 2.913-2.367 3.335 4.555 1.425 9.418-2.544 14.207-2.223 12.125.813 23.721 5.013 35.514 7.78 3.997.939 13.142-.336 11.84 3.335-2.623 7.39-16.616 1.972-24.862 1.112-10.618-1.107-21.452-.428-31.963-2.223-4.676-.798-10.847-4.268-14.208-1.113-1.503 1.412 4.02 1.33 5.921 2.224 25.433 11.944 5.014 2.854 14.205 7.782 15.841 8.494 35.844 16.332 42.62 32.235 3.082 7.232-15.59-5.683-22.494-10.004-6.832-4.277-14.32-7.888-20.126-13.34-4.148-3.894-7.156-11.114-13.022-11.114-6.363 0-1.792 11.834-2.368 17.784-.91 9.408-5.908 18.886-13.022 25.565-.594.557-4.457 6.67-4.736 6.67-3.254 0-2.365-5.838-2.365-8.893 0-14.124-.098-28.537 3.55-42.239.772-2.898 7.413-7.319 8.287-4.446 3.643 11.97-13.323 22.236-23.677 30.013-9.957 7.479-26.502 21.805-35.516 13.338-13.648-12.82 20.357-33.532 37.884-41.128 6.122-2.653 12.266-5.773 18.94-6.668 2.377-.318 8.545-.692 7.105 1.11-5.172 6.474-16.472 4.817-24.862 6.67-10.714 2.368-21.024 6.639-31.963 7.781-6.275.655-12.628 0-18.941 0h-4.736c20.705 0 40.887-6.703 61.56-7.78 4.728-.247 9.47 0 14.206 0 2.368 0 9.35.703 7.103 0-21.664-6.781-44.683-10.422-65.11-20.008-4.026-1.889-12.077-3.774-10.655-7.783 1.763-4.97 11.159.953 16.573 2.224 13.935 3.272 27.576 7.568 41.434 11.116 5.543 1.42 12.51 8.261 16.573 4.447 3.796-3.564-8.599-6.038-13.022-8.893-11.579-7.475-25.355-13.475-33.146-24.455-.656-.925 1.207-.217 2.368 0 15.249 2.862 26.886 15.24 37.882 25.565 3.754 3.525 6.9 7.592 10.654 11.117 2.368 2.223 7.104 9.814 7.104 6.67 0-17.462-10.43-33.54-16.573-50.021-1.816-4.872-8.377-9.834-5.921-14.45 2.366-4.448 6.233 8.435 7.104 13.339 3.253 18.332-4.11 38.952 4.735 55.578 2.604 4.894 4.416-10.362 8.287-14.45 9.87-10.424 22.92-17.748 34.33-26.678 6.395-5.004 21.31-20.043 21.31-12.227 0 8.784-16.21 8.883-24.86 12.227-10.282 3.976-19.651 9.782-29.597 14.45-4.602 2.16-8.611 5.295-13.023 7.781-2.576 1.452-10.409 5.331-8.286 3.334 13.21-12.425 37.903 1.12 55.642 6.67 10.045 3.143 28.412 3.396 28.412 13.338 0 4.224-8.523 3.336-13.022 3.336-14.473 0-28.491-4.835-42.62-7.78-4.148-.866-14.845-1.628-11.837-4.447 3.27-3.064 8.64 3.075 13.022 4.446 14.256 4.462 28.389 9.671 41.435 16.672 4.76 2.554 18.082 4.143 14.205 7.782-4.542 4.265-12.725-1.813-18.94-3.336-14.129-3.46-28.179-7.592-41.435-13.337-5.327-2.309-11.328-8.023-16.576-5.56-3.752 1.762 5.772 5.742 8.29 8.894 5.402 6.766 8.552 14.888 13.021 22.23 2.454 4.031 12.046 12.228 7.102 12.228-5.866 0-8.387-7.773-11.837-12.227-6.128-7.911-13.162-15.204-18.941-23.342-4.114-5.792-16.886-18.897-9.472-18.897 12.903 0 13.271 21.397 15.39 33.347.992 5.59 8.949 14.136 3.551 16.672-3.035 1.426-4.4-4.93-5.918-7.78-6.196-11.638-11.928-23.849-14.208-36.682-.911-5.13-6.436-17.207-1.183-15.56 15.292 4.791-7.86 30.29-17.758 42.238-2.825 3.41-9.779 10.534-11.837 6.67-4.846-9.1 8.938-19.654 17.756-25.567 3.758-2.52 17.64-4.445 13.022-4.445-16.802 0-33.565-3.448-49.72-7.782-4.933-1.324-14.206-.741-14.206-5.558 0-4.816 10.33-.792 15.39 0 13.762 2.154 27.531 4.47 41.435 5.558 1.966.153 6.8 1.657 5.918 0-7.25-13.626-27.27-17.617-36.699-30.012-2.77-3.643-9.29-9.061-5.918-12.227 4.542-4.265 9.078 8.579 13.022 13.34 9.838 11.876 20.406 23.243 29.595 35.568 3.536 4.742 5.991 15.17 11.84 13.34 4.268-1.335 3.27-8.01 3.55-12.227 1.04-15.602.529-31.856-4.735-46.687-2.179-6.138-7.82-13.109-4.736-18.895.728-1.366 1.185 2.919 1.185 4.447 0 5.606.944 12.006-2.368 16.671-3.727 5.25-.942 12.911 1.183 18.897 2.725 7.678 1.015 17.616 7.104 23.344"/>
    <path fill="none" d="M102.28 515.149c7.763 0 15.608-.242 23.265 1.182 4.301.8 15.774.099 12.69 3.544-2.786 3.113-11.631 2.04-11.631-2.364 0-3.174 5.655.66 8.458 1.183 6.643 1.238 13.426 1.3 20.093 2.363 2.123.339 7.632 3.097 6.346 1.18-11.962-17.823-34.893-26.572-42.3-47.255-1.823-5.093-8.757-11.476-5.288-15.359 4.406-4.93 8.28 10.433 12.69 15.359 12.88 14.383 20.726 35.792 37.013 44.893 2.82 1.575 4.02-5.936 4.23-9.45.868-14.539 0-29.142 0-43.713 0-6.313-4.594-18.902 1.057-18.902 3.68 0 2.765 7.727 3.171 11.813 1.323 13.308 0 26.78 0 40.17 0 5.512-1.562 21.767 0 16.538 2.508-8.395 4.068-17.446 8.46-24.81"/>
    <path stroke="#b6d7a8" stroke-linejoin="round" stroke-linecap="butt" d="M102.28 515.149c7.763 0 15.608-.242 23.265 1.182 4.301.8 15.774.099 12.69 3.544-2.786 3.113-11.631 2.04-11.631-2.364 0-3.174 5.655.66 8.458 1.183 6.643 1.238 13.426 1.3 20.093 2.363 2.123.339 7.632 3.097 6.346 1.18-11.962-17.823-34.893-26.572-42.3-47.255-1.823-5.093-8.757-11.476-5.288-15.359 4.406-4.93 8.28 10.433 12.69 15.359 12.88 14.383 20.726 35.792 37.013 44.893 2.82 1.575 4.02-5.936 4.23-9.45.868-14.539 0-29.142 0-43.713 0-6.313-4.594-18.902 1.057-18.902 3.68 0 2.765 7.727 3.171 11.813 1.323 13.308 0 26.78 0 40.17 0 5.512-1.562 21.767 0 16.538 2.508-8.395 4.068-17.446 8.46-24.81"/>
    <path fill="none" d="M197.455 466.713c-8.227 11.816-15.834 24.167-23.265 36.623-2.541 4.26-3.84 9.32-5.287 14.176-.401 1.348-3.321 3.097-2.115 3.546 4.069 1.514 8.413-2.704 12.69-2.363 10.832.863 21.19 5.327 31.724 8.27 3.57.996 11.74-.358 10.576 3.543-2.342 7.855-14.842 2.096-22.208 1.182-9.485-1.176-19.162-.456-28.552-2.363-4.176-.848-9.689-4.536-12.69-1.182-1.343 1.5 3.59 1.414 5.288 2.363 22.718 12.694 4.48 3.033 12.69 8.271 14.15 9.028 32.017 17.358 38.07 34.26 2.753 7.687-13.927-6.04-20.093-10.632-6.103-4.545-12.79-8.383-17.978-14.178-3.705-4.14-6.392-11.813-11.632-11.813-5.684 0-1.601 12.578-2.115 18.902-.813 9.999-5.278 20.072-11.633 27.171-.53.593-3.98 7.09-4.23 7.09-2.907 0-2.113-6.205-2.113-9.453 0-15.01-.087-30.33 3.172-44.892.689-3.08 6.621-7.78 7.402-4.726 3.254 12.723-11.9 23.633-21.15 31.899-8.894 7.949-23.673 23.175-31.725 14.176-12.19-13.625 18.184-35.639 33.84-43.712 5.47-2.82 10.957-6.136 16.92-7.087 2.122-.339 7.632-.736 6.345 1.18-4.62 6.88-14.714 5.119-22.208 7.09-9.57 2.515-18.78 7.054-28.551 8.269-5.606.696-11.28 0-16.92 0h-4.23c18.495 0 36.523-7.125 54.99-8.27 4.223-.262 8.46 0 12.689 0 2.115 0 8.352.747 6.345 0-19.352-7.207-39.914-11.077-58.161-21.265-3.596-2.007-10.788-4.011-9.518-8.271 1.576-5.284 9.969 1.012 14.805 2.363 12.447 3.477 24.632 8.044 37.012 11.815 4.951 1.508 11.175 8.78 14.804 4.726 3.39-3.788-7.682-6.418-11.633-9.452-10.343-7.945-22.648-14.322-29.608-25.991-.586-.983 1.078-.232 2.115 0 13.622 3.041 24.017 16.198 33.839 27.171 3.353 3.747 6.163 8.069 9.517 11.815 2.115 2.363 6.345 10.431 6.345 7.09 0-18.56-9.316-35.648-14.804-53.165-1.621-5.178-7.483-10.452-5.289-15.359 2.114-4.726 5.569 8.966 6.346 14.178 2.906 19.485-3.671 41.4 4.23 59.071 2.326 5.202 3.944-11.013 7.402-15.358 8.816-11.08 20.474-18.863 30.667-28.354 5.712-5.319 19.034-21.303 19.034-12.996 0 9.336-14.48 9.441-22.206 12.996-9.185 4.225-17.554 10.396-26.438 15.358-4.111 2.296-7.692 5.627-11.632 8.27-2.302 1.543-9.299 5.666-7.403 3.543 11.8-13.206 33.858 1.19 49.703 7.09 8.974 3.34 25.38 3.608 25.38 14.175 0 4.49-7.613 3.546-11.632 3.546-12.928 0-25.45-5.14-38.07-8.27-3.707-.92-13.261-1.73-10.575-4.726 2.92-3.256 7.719 3.269 11.633 4.726 12.733 4.742 25.358 10.279 37.012 17.72 4.252 2.714 16.151 4.403 12.689 8.271-4.058 4.533-11.367-1.927-16.92-3.546-12.62-3.678-25.17-8.07-37.011-14.175-4.759-2.454-10.119-8.527-14.806-5.909-3.352 1.872 5.155 6.102 7.403 9.452 4.827 7.192 7.64 15.824 11.633 23.628 2.191 4.284 10.76 12.995 6.343 12.995-5.24 0-7.491-8.26-10.573-12.995-5.474-8.408-11.757-16.159-16.92-24.808-3.674-6.157-15.083-20.085-8.46-20.085 11.525 0 11.854 22.742 13.747 35.443.886 5.942 7.993 15.024 3.172 17.72-2.712 1.515-3.931-5.24-5.287-8.27-5.534-12.37-10.654-25.347-12.69-38.986-.815-5.452-5.75-18.289-1.057-16.54 13.66 5.094-7.022 32.194-15.863 44.893-2.524 3.625-8.735 11.197-10.574 7.09-4.328-9.672 7.984-20.889 15.86-27.174 3.358-2.679 15.759-4.724 11.633-4.724-15.009 0-29.983-3.664-44.414-8.271-4.406-1.407-12.689-.788-12.689-5.907 0-5.12 9.228-.842 13.748 0 12.293 2.29 24.592 4.751 37.012 5.907 1.756.163 6.074 1.76 5.287 0-6.476-14.483-24.36-18.724-32.782-31.898-2.476-3.872-8.299-9.63-5.287-12.995 4.058-4.533 8.11 9.117 11.632 14.178 8.788 12.622 18.228 24.704 26.437 37.804 3.158 5.04 5.351 16.122 10.575 14.178 3.813-1.42 2.921-8.515 3.172-12.996.929-16.583.472-33.858-4.23-49.62-1.946-6.525-6.985-13.933-4.23-20.083.65-1.452 1.058 3.102 1.058 4.726 0 5.959.843 12.76-2.115 17.72-3.33 5.58-.842 13.721 1.056 20.084 2.435 8.16.907 18.723 6.346 24.81"/>
    <path stroke="#b6d7a8" stroke-linejoin="round" stroke-linecap="butt" d="M197.455 466.713c-8.227 11.816-15.834 24.167-23.265 36.623-2.541 4.26-3.84 9.32-5.287 14.176-.401 1.348-3.321 3.097-2.115 3.546 4.069 1.514 8.413-2.704 12.69-2.363 10.832.863 21.19 5.327 31.724 8.27 3.57.996 11.74-.358 10.576 3.543-2.342 7.855-14.842 2.096-22.208 1.182-9.485-1.176-19.162-.456-28.552-2.363-4.176-.848-9.689-4.536-12.69-1.182-1.343 1.5 3.59 1.414 5.288 2.363 22.718 12.694 4.48 3.033 12.69 8.271 14.15 9.028 32.017 17.358 38.07 34.26 2.753 7.687-13.927-6.04-20.093-10.632-6.103-4.545-12.79-8.383-17.978-14.178-3.705-4.14-6.392-11.813-11.632-11.813-5.684 0-1.601 12.578-2.115 18.902-.813 9.999-5.278 20.072-11.633 27.171-.53.593-3.98 7.09-4.23 7.09-2.907 0-2.113-6.205-2.113-9.453 0-15.01-.087-30.33 3.172-44.892.689-3.08 6.621-7.78 7.402-4.726 3.254 12.723-11.9 23.633-21.15 31.899-8.894 7.949-23.673 23.175-31.725 14.176-12.19-13.625 18.184-35.639 33.84-43.712 5.47-2.82 10.957-6.136 16.92-7.087 2.122-.339 7.632-.736 6.345 1.18-4.62 6.88-14.714 5.119-22.208 7.09-9.57 2.515-18.78 7.054-28.551 8.269-5.606.696-11.28 0-16.92 0h-4.23c18.495 0 36.523-7.125 54.99-8.27 4.223-.262 8.46 0 12.689 0 2.115 0 8.352.747 6.345 0-19.352-7.207-39.914-11.077-58.161-21.265-3.596-2.007-10.788-4.011-9.518-8.271 1.576-5.284 9.969 1.012 14.805 2.363 12.447 3.477 24.632 8.044 37.012 11.815 4.951 1.508 11.175 8.78 14.804 4.726 3.39-3.788-7.682-6.418-11.633-9.452-10.343-7.945-22.648-14.322-29.608-25.991-.586-.983 1.078-.232 2.115 0 13.622 3.041 24.017 16.198 33.839 27.171 3.353 3.747 6.163 8.069 9.517 11.815 2.115 2.363 6.345 10.431 6.345 7.09 0-18.56-9.316-35.648-14.804-53.165-1.621-5.178-7.483-10.452-5.289-15.359 2.114-4.726 5.569 8.966 6.346 14.178 2.906 19.485-3.671 41.4 4.23 59.071 2.326 5.202 3.944-11.013 7.402-15.358 8.816-11.08 20.474-18.863 30.667-28.354 5.712-5.319 19.034-21.303 19.034-12.996 0 9.336-14.48 9.441-22.206 12.996-9.185 4.225-17.554 10.396-26.438 15.358-4.111 2.296-7.692 5.627-11.632 8.27-2.302 1.543-9.299 5.666-7.403 3.543 11.8-13.206 33.858 1.19 49.703 7.09 8.974 3.34 25.38 3.608 25.38 14.175 0 4.49-7.613 3.546-11.632 3.546-12.928 0-25.45-5.14-38.07-8.27-3.707-.92-13.261-1.73-10.575-4.726 2.92-3.256 7.719 3.269 11.633 4.726 12.733 4.742 25.358 10.279 37.012 17.72 4.252 2.714 16.151 4.403 12.689 8.271-4.058 4.533-11.367-1.927-16.92-3.546-12.62-3.678-25.17-8.07-37.011-14.175-4.759-2.454-10.119-8.527-14.806-5.909-3.352 1.872 5.155 6.102 7.403 9.452 4.827 7.192 7.64 15.824 11.633 23.628 2.191 4.284 10.76 12.995 6.343 12.995-5.24 0-7.491-8.26-10.573-12.995-5.474-8.408-11.757-16.159-16.92-24.808-3.674-6.157-15.083-20.085-8.46-20.085 11.525 0 11.854 22.742 13.747 35.443.886 5.942 7.993 15.024 3.172 17.72-2.712 1.515-3.931-5.24-5.287-8.27-5.534-12.37-10.654-25.347-12.69-38.986-.815-5.452-5.75-18.289-1.057-16.54 13.66 5.094-7.022 32.194-15.863 44.893-2.524 3.625-8.735 11.197-10.574 7.09-4.328-9.672 7.984-20.889 15.86-27.174 3.358-2.679 15.759-4.724 11.633-4.724-15.009 0-29.983-3.664-44.414-8.271-4.406-1.407-12.689-.788-12.689-5.907 0-5.12 9.228-.842 13.748 0 12.293 2.29 24.592 4.751 37.012 5.907 1.756.163 6.074 1.76 5.287 0-6.476-14.483-24.36-18.724-32.782-31.898-2.476-3.872-8.299-9.63-5.287-12.995 4.058-4.533 8.11 9.117 11.632 14.178 8.788 12.622 18.228 24.704 26.437 37.804 3.158 5.04 5.351 16.122 10.575 14.178 3.813-1.42 2.921-8.515 3.172-12.996.929-16.583.472-33.858-4.23-49.62-1.946-6.525-6.985-13.933-4.23-20.083.65-1.452 1.058 3.102 1.058 4.726 0 5.959.843 12.76-2.115 17.72-3.33 5.58-.842 13.721 1.056 20.084 2.435 8.16.907 18.723 6.346 24.81"/>
    <path fill="none" d="M812.262 624.167c7.763 0 15.607-.242 23.265 1.182 4.3.8 15.774.1 12.69 3.544-2.786 3.113-11.632 2.04-11.632-2.363 0-3.175 5.656.66 8.459 1.182 6.643 1.239 13.426 1.3 20.093 2.363 2.123.339 7.632 3.098 6.345 1.18-11.961-17.822-34.892-26.572-42.299-47.255-1.824-5.093-8.757-11.476-5.289-15.358 4.406-4.931 8.28 10.432 12.691 15.358 12.88 14.384 20.725 35.792 37.012 44.893 2.82 1.575 4.02-5.936 4.23-9.45.87-14.538 0-29.142 0-43.712 0-6.313-4.594-18.902 1.057-18.902 3.68 0 2.766 7.727 3.172 11.813 1.322 13.308 0 26.779 0 40.169 0 5.513-1.562 21.768 0 16.538 2.508-8.394 4.067-17.446 8.46-24.81"/>
    <path stroke="#93c47d" stroke-linejoin="round" stroke-linecap="butt" d="M812.262 624.167c7.763 0 15.607-.242 23.265 1.182 4.3.8 15.774.1 12.69 3.544-2.786 3.113-11.632 2.04-11.632-2.363 0-3.175 5.656.66 8.459 1.182 6.643 1.239 13.426 1.3 20.093 2.363 2.123.339 7.632 3.098 6.345 1.18-11.961-17.822-34.892-26.572-42.299-47.255-1.824-5.093-8.757-11.476-5.289-15.358 4.406-4.931 8.28 10.432 12.691 15.358 12.88 14.384 20.725 35.792 37.012 44.893 2.82 1.575 4.02-5.936 4.23-9.45.87-14.538 0-29.142 0-43.712 0-6.313-4.594-18.902 1.057-18.902 3.68 0 2.766 7.727 3.172 11.813 1.322 13.308 0 26.779 0 40.169 0 5.513-1.562 21.768 0 16.538 2.508-8.394 4.067-17.446 8.46-24.81"/>
    <path fill="none" d="M907.436 575.731c-8.226 11.817-15.833 24.167-23.264 36.624-2.541 4.26-3.84 9.319-5.287 14.176-.402 1.347-3.321 3.096-2.115 3.545 4.069 1.514 8.413-2.704 12.69-2.363 10.831.864 21.19 5.328 31.724 8.27 3.57.997 11.739-.358 10.576 3.543-2.343 7.855-14.843 2.096-22.208 1.183-9.485-1.177-19.163-.456-28.552-2.363-4.177-.849-9.69-4.536-12.69-1.183-1.343 1.5 3.59 1.414 5.288 2.363 22.718 12.695 4.479 3.034 12.689 8.272 14.15 9.028 32.018 17.358 38.07 34.26 2.753 7.687-13.926-6.04-20.092-10.633-6.104-4.545-12.791-8.383-17.978-14.178-3.705-4.139-6.392-11.812-11.632-11.812-5.684 0-1.601 12.578-2.116 18.901-.812 9.999-5.277 20.073-11.632 27.172-.53.592-3.981 7.089-4.23 7.089-2.907 0-2.113-6.205-2.113-9.452 0-15.011-.087-30.33 3.171-44.893.69-3.08 6.622-7.779 7.402-4.726 3.255 12.723-11.9 23.634-21.15 31.9-8.893 7.948-23.672 23.174-31.724 14.175-12.191-13.624 18.184-35.639 33.84-43.712 5.469-2.82 10.957-6.136 16.92-7.087 2.122-.338 7.631-.736 6.345 1.18-4.62 6.881-14.714 5.12-22.208 7.09-9.57 2.516-18.78 7.055-28.552 8.269-5.605.696-11.28 0-16.919 0h-4.23c18.495 0 36.523-7.124 54.99-8.27 4.223-.261 8.459 0 12.688 0 2.116 0 8.352.748 6.346 0-19.352-7.206-39.915-11.076-58.162-21.264-3.595-2.008-10.787-4.012-9.517-8.272 1.576-5.283 9.968 1.012 14.804 2.363 12.448 3.478 24.633 8.044 37.012 11.815 4.952 1.508 11.175 8.78 14.804 4.726 3.39-3.787-7.681-6.417-11.632-9.452-10.343-7.944-22.649-14.321-29.608-25.99-.587-.984 1.078-.232 2.115 0 13.621 3.04 24.016 16.197 33.838 27.17 3.354 3.747 6.164 8.07 9.518 11.816 2.115 2.363 6.345 10.43 6.345 7.089 0-18.56-9.317-35.647-14.804-53.165-1.622-5.177-7.483-10.451-5.289-15.358 2.114-4.727 5.568 8.966 6.346 14.178 2.906 19.484-3.672 41.4 4.23 59.07 2.326 5.202 3.944-11.012 7.402-15.358 8.816-11.079 20.474-18.863 30.667-28.354 5.711-5.318 19.034-21.302 19.034-12.995 0 9.335-14.48 9.44-22.206 12.995-9.185 4.226-17.554 10.396-26.439 15.359-4.11 2.296-7.691 5.627-11.632 8.27-2.301 1.543-9.298 5.665-7.402 3.543 11.8-13.207 33.858 1.189 49.703 7.089 8.973 3.34 25.38 3.609 25.38 14.175 0 4.49-7.613 3.546-11.633 3.546-12.927 0-25.45-5.139-38.07-8.27-3.706-.919-13.26-1.73-10.574-4.725 2.92-3.257 7.718 3.268 11.632 4.726 12.734 4.742 25.359 10.278 37.012 17.719 4.252 2.714 16.152 4.403 12.69 8.271-4.058 4.533-11.368-1.927-16.92-3.545-12.62-3.678-25.17-8.07-37.012-14.176-4.758-2.454-10.118-8.527-14.806-5.909-3.352 1.873 5.156 6.103 7.404 9.452 4.827 7.192 7.64 15.824 11.632 23.628 2.192 4.284 10.76 12.996 6.344 12.996-5.24 0-7.492-8.262-10.574-12.996-5.474-8.407-11.757-16.158-16.92-24.808-3.673-6.156-15.083-20.084-8.46-20.084 11.526 0 11.855 22.741 13.748 35.442.885 5.942 7.993 15.024 3.172 17.72-2.712 1.516-3.932-5.24-5.287-8.27-5.534-12.369-10.654-25.346-12.691-38.986-.814-5.452-5.75-18.289-1.057-16.539 13.66 5.093-7.021 32.194-15.862 44.893-2.524 3.625-8.736 11.196-10.574 7.089-4.329-9.672 7.984-20.889 15.86-27.174 3.358-2.679 15.758-4.723 11.633-4.723-15.01 0-29.983-3.665-44.414-8.272-4.406-1.407-12.69-.787-12.69-5.906 0-5.12 9.228-.842 13.748 0 12.293 2.289 24.593 4.75 37.012 5.906 1.757.163 6.075 1.761 5.287 0-6.475-14.482-24.36-18.724-32.782-31.897-2.475-3.872-8.298-9.631-5.286-12.996 4.057-4.533 8.109 9.118 11.632 14.178 8.787 12.623 18.228 24.704 26.436 37.804 3.158 5.04 5.352 16.122 10.576 14.178 3.813-1.42 2.92-8.514 3.172-12.995.928-16.583.472-33.859-4.23-49.621-1.947-6.525-6.986-13.933-4.23-20.083.65-1.452 1.058 3.102 1.058 4.726 0 5.96.842 12.761-2.115 17.72-3.33 5.58-.842 13.722 1.056 20.084 2.435 8.16.907 18.723 6.346 24.81"/>
    <path stroke="#93c47d" stroke-linejoin="round" stroke-linecap="butt" d="M907.436 575.731c-8.226 11.817-15.833 24.167-23.264 36.624-2.541 4.26-3.84 9.319-5.287 14.176-.402 1.347-3.321 3.096-2.115 3.545 4.069 1.514 8.413-2.704 12.69-2.363 10.831.864 21.19 5.328 31.724 8.27 3.57.997 11.739-.358 10.576 3.543-2.343 7.855-14.843 2.096-22.208 1.183-9.485-1.177-19.163-.456-28.552-2.363-4.177-.849-9.69-4.536-12.69-1.183-1.343 1.5 3.59 1.414 5.288 2.363 22.718 12.695 4.479 3.034 12.689 8.272 14.15 9.028 32.018 17.358 38.07 34.26 2.753 7.687-13.926-6.04-20.092-10.633-6.104-4.545-12.791-8.383-17.978-14.178-3.705-4.139-6.392-11.812-11.632-11.812-5.684 0-1.601 12.578-2.116 18.901-.812 9.999-5.277 20.073-11.632 27.172-.53.592-3.981 7.089-4.23 7.089-2.907 0-2.113-6.205-2.113-9.452 0-15.011-.087-30.33 3.171-44.893.69-3.08 6.622-7.779 7.402-4.726 3.255 12.723-11.9 23.634-21.15 31.9-8.893 7.948-23.672 23.174-31.724 14.175-12.191-13.624 18.184-35.639 33.84-43.712 5.469-2.82 10.957-6.136 16.92-7.087 2.122-.338 7.631-.736 6.345 1.18-4.62 6.881-14.714 5.12-22.208 7.09-9.57 2.516-18.78 7.055-28.552 8.269-5.605.696-11.28 0-16.919 0h-4.23c18.495 0 36.523-7.124 54.99-8.27 4.223-.261 8.459 0 12.688 0 2.116 0 8.352.748 6.346 0-19.352-7.206-39.915-11.076-58.162-21.264-3.595-2.008-10.787-4.012-9.517-8.272 1.576-5.283 9.968 1.012 14.804 2.363 12.448 3.478 24.633 8.044 37.012 11.815 4.952 1.508 11.175 8.78 14.804 4.726 3.39-3.787-7.681-6.417-11.632-9.452-10.343-7.944-22.649-14.321-29.608-25.99-.587-.984 1.078-.232 2.115 0 13.621 3.04 24.016 16.197 33.838 27.17 3.354 3.747 6.164 8.07 9.518 11.816 2.115 2.363 6.345 10.43 6.345 7.089 0-18.56-9.317-35.647-14.804-53.165-1.622-5.177-7.483-10.451-5.289-15.358 2.114-4.727 5.568 8.966 6.346 14.178 2.906 19.484-3.672 41.4 4.23 59.07 2.326 5.202 3.944-11.012 7.402-15.358 8.816-11.079 20.474-18.863 30.667-28.354 5.711-5.318 19.034-21.302 19.034-12.995 0 9.335-14.48 9.44-22.206 12.995-9.185 4.226-17.554 10.396-26.439 15.359-4.11 2.296-7.691 5.627-11.632 8.27-2.301 1.543-9.298 5.665-7.402 3.543 11.8-13.207 33.858 1.189 49.703 7.089 8.973 3.34 25.38 3.609 25.38 14.175 0 4.49-7.613 3.546-11.633 3.546-12.927 0-25.45-5.139-38.07-8.27-3.706-.919-13.26-1.73-10.574-4.725 2.92-3.257 7.718 3.268 11.632 4.726 12.734 4.742 25.359 10.278 37.012 17.719 4.252 2.714 16.152 4.403 12.69 8.271-4.058 4.533-11.368-1.927-16.92-3.545-12.62-3.678-25.17-8.07-37.012-14.176-4.758-2.454-10.118-8.527-14.806-5.909-3.352 1.873 5.156 6.103 7.404 9.452 4.827 7.192 7.64 15.824 11.632 23.628 2.192 4.284 10.76 12.996 6.344 12.996-5.24 0-7.492-8.262-10.574-12.996-5.474-8.407-11.757-16.158-16.92-24.808-3.673-6.156-15.083-20.084-8.46-20.084 11.526 0 11.855 22.741 13.748 35.442.885 5.942 7.993 15.024 3.172 17.72-2.712 1.516-3.932-5.24-5.287-8.27-5.534-12.369-10.654-25.346-12.691-38.986-.814-5.452-5.75-18.289-1.057-16.539 13.66 5.093-7.021 32.194-15.862 44.893-2.524 3.625-8.736 11.196-10.574 7.089-4.329-9.672 7.984-20.889 15.86-27.174 3.358-2.679 15.758-4.723 11.633-4.723-15.01 0-29.983-3.665-44.414-8.272-4.406-1.407-12.69-.787-12.69-5.906 0-5.12 9.228-.842 13.748 0 12.293 2.289 24.593 4.75 37.012 5.906 1.757.163 6.075 1.761 5.287 0-6.475-14.482-24.36-18.724-32.782-31.897-2.475-3.872-8.298-9.631-5.286-12.996 4.057-4.533 8.109 9.118 11.632 14.178 8.787 12.623 18.228 24.704 26.436 37.804 3.158 5.04 5.352 16.122 10.576 14.178 3.813-1.42 2.92-8.514 3.172-12.995.928-16.583.472-33.859-4.23-49.621-1.947-6.525-6.986-13.933-4.23-20.083.65-1.452 1.058 3.102 1.058 4.726 0 5.96.842 12.761-2.115 17.72-3.33 5.58-.842 13.722 1.056 20.084 2.435 8.16.907 18.723 6.346 24.81"/>
  </g>
</svg>