<svg version="1.1" viewBox="0.0 0.0 989.6692913385826 725.8188976377953" fill="none" stroke="none" stroke-linecap="square" stroke-miterlimit="10" xmlns:xlink="http://www.w3.org/1999/xlink" xmlns="http://www.w3.org/2000/svg"><clipPath id="p.0"><path d="m0 0l989.6693 0l0 725.8189l-989.6693 0l0 -725.8189z" clip-rule="nonzero"/></clipPath><g clip-path="url(#p.0)"><path fill="#000000" fill-opacity="0.0" d="m0 0l989.6693 0l0 725.8189l-989.6693 0z" fill-rule="evenodd"/><path fill="#000000" fill-opacity="0.0" d="m454.29764 504.87848c-8.21106 -7.781555 -17.538818 -26.053497 -7.877777 -32.15915c6.5625305 -4.147461 18.293121 -0.81118774 23.026794 5.1684265c4.525696 5.716858 2.302948 16.193878 -3.0295715 21.247467c-0.769104 0.72888184 -1.2120667 -1.840332 -1.2120667 -2.8711243c0 -2.3364563 2.4978027 -4.090576 4.241638 -5.742218c5.891083 -5.5794983 17.31073 -10.122437 24.23996 -5.7432556c3.3101196 2.0919495 6.103882 6.759369 4.847107 10.3368225c-3.5231628 10.0289 -17.29425 23.108002 -27.268433 18.37741c-0.92099 -0.4368286 1.9996948 -0.5748291 3.0295715 -0.5748291c2.6950073 0 5.23526 1.2221069 7.8778076 1.7235107c6.0235596 1.1429443 6.436432 12.38324 3.0295715 17.227722c-3.6624756 5.207947 -12.272278 10.265625 -18.178589 7.4656982c-6.1341553 -2.90802 -9.702576 -14.359192 -4.8482056 -18.951233c0.8578491 -0.8114624 0 2.2973022 0 3.445984c0 2.4959106 0.31793213 5.128601 -0.6065674 7.4656982c-1.713501 4.331604 -2.1552124 9.857239 -6.0591736 12.634155c-3.396515 2.4159546 -9.084534 2.6446533 -12.726013 0.5737915c-6.9366455 -3.9447632 -8.148041 -19.025146 -1.2120361 -22.970947c3.0247192 -1.7207642 10.5513 -7.2634277 9.696411 -4.0197754c-1.0383911 3.9398804 -8.4409485 1.7224731 -12.726013 1.7224731c-8.880737 0 -23.295166 0.69873047 -25.450897 -7.4657593c-1.5270996 -5.7836 6.4835205 -12.468933 12.726013 -13.207916c9.555786 -1.1312256 19.868652 0.5101929 28.480469 4.5946045" fill-rule="evenodd"/><path stroke="#6fa8dc" stroke-width="1.0" stroke-linejoin="round" stroke-linecap="butt" d="m454.29764 504.87848c-8.21106 -7.781555 -17.538818 -26.053497 -7.877777 -32.15915c6.5625305 -4.147461 18.293121 -0.81118774 23.026794 5.1684265c4.525696 5.716858 2.302948 16.193878 -3.0295715 21.247467c-0.769104 0.72888184 -1.2120667 -1.840332 -1.2120667 -2.8711243c0 -2.3364563 2.4978027 -4.090576 4.241638 -5.742218c5.891083 -5.5794983 17.31073 -10.122437 24.23996 -5.7432556c3.3101196 2.0919495 6.103882 6.759369 4.847107 10.3368225c-3.5231628 10.0289 -17.29425 23.108002 -27.268433 18.37741c-0.92099 -0.4368286 1.9996948 -0.5748291 3.0295715 -0.5748291c2.6950073 0 5.23526 1.2221069 7.8778076 1.7235107c6.0235596 1.1429443 6.436432 12.38324 3.0295715 17.227722c-3.6624756 5.207947 -12.272278 10.265625 -18.178589 7.4656982c-6.1341553 -2.90802 -9.702576 -14.359192 -4.8482056 -18.951233c0.8578491 -0.8114624 0 2.2973022 0 3.445984c0 2.4959106 0.31793213 5.128601 -0.6065674 7.4656982c-1.713501 4.331604 -2.1552124 9.857239 -6.0591736 12.634155c-3.396515 2.4159546 -9.084534 2.6446533 -12.726013 0.5737915c-6.9366455 -3.9447632 -8.148041 -19.025146 -1.2120361 -22.970947c3.0247192 -1.7207642 10.5513 -7.2634277 9.696411 -4.0197754c-1.0383911 3.9398804 -8.4409485 1.7224731 -12.726013 1.7224731c-8.880737 0 -23.295166 0.69873047 -25.450897 -7.4657593c-1.5270996 -5.7836 6.4835205 -12.468933 12.726013 -13.207916c9.555786 -1.1312256 19.868652 0.5101929 28.480469 4.5946045" fill-rule="evenodd"/><path fill="#000000" fill-opacity="0.0" d="m452.83252 505.44666c-2.8059998 0 -7.2712097 1.3605652 -7.2712097 4.0197754c0 5.2943726 7.3532715 8.882141 12.724884 10.336853c6.37088 1.7252197 13.660309 -5.5284424 15.755585 -11.485504c1.3534851 -3.848053 -0.089538574 -10.500885 -4.2416077 -11.485504c-6.052582 -1.4353027 -12.900574 3.6950989 -16.362183 8.61438" fill-rule="evenodd"/><path stroke="#45818e" stroke-width="2.0" stroke-linejoin="round" stroke-linecap="butt" d="m452.83252 505.44666c-2.8059998 0 -7.2712097 1.3605652 -7.2712097 4.0197754c0 5.2943726 7.3532715 8.882141 12.724884 10.336853c6.37088 1.7252197 13.660309 -5.5284424 15.755585 -11.485504c1.3534851 -3.848053 -0.089538574 -10.500885 -4.2416077 -11.485504c-6.052582 -1.4353027 -12.900574 3.6950989 -16.362183 8.61438" fill-rule="evenodd"/><path fill="#000000" fill-opacity="0.0" d="m754.58594 113.39386c-10.792114 -10.430832 -23.052002 -34.923576 -10.354126 -43.107925c8.625488 -5.559471 24.043457 -1.0873718 30.265137 6.928032c5.948303 7.6632004 3.0268555 21.707184 -3.9818726 28.4813c-1.0108643 0.97702026 -1.5930786 -2.4668732 -1.5930786 -3.8485947c0 -3.1319275 3.282959 -5.483261 5.574951 -7.697197c7.74292 -7.479088 22.752258 -13.568703 31.85968 -7.698593c4.350586 2.804161 8.022583 9.060638 6.3707275 13.856064c-4.6306763 13.443298 -22.73059 30.975204 -35.840088 24.63411c-1.2105103 -0.5855255 2.628296 -0.7705612 3.9819336 -0.7705612c3.5421143 0 6.8809204 1.6381607 10.354126 2.3102798c7.916992 1.532074 8.459656 16.599197 3.9818726 23.092987c-4.8137207 6.9810333 -16.130005 13.760681 -23.892883 10.007462c-8.062439 -3.8980255 -12.752563 -19.247833 -6.3721924 -25.40326c1.1274414 -1.0877533 0 3.0794373 0 4.619156c0 3.3457031 0.41784668 6.874695 -0.79730225 10.007477c-2.2520752 5.8062897 -2.8326416 13.213165 -7.963806 16.935516c-4.4641724 3.2385101 -11.940186 3.545044 -16.726318 0.7691498c-9.1171875 -5.287781 -10.709351 -25.502365 -1.5930786 -30.79158c3.975525 -2.3065796 13.868042 -9.736313 12.744446 -5.3883057c-1.3648071 5.2812195 -11.09436 2.3088684 -16.72638 2.3088684c-11.672302 0 -30.617798 0.93666077 -33.451233 -10.007469c-2.007141 -7.752678 8.521606 -16.714088 16.72638 -17.704666c12.55957 -1.5163498 26.114258 0.68390656 37.433105 6.158882" fill-rule="evenodd"/><path stroke="#6fa8dc" stroke-width="1.0" stroke-linejoin="round" stroke-linecap="butt" d="m754.58594 113.39386c-10.792114 -10.430832 -23.052002 -34.923576 -10.354126 -43.107925c8.625488 -5.559471 24.043457 -1.0873718 30.265137 6.928032c5.948303 7.6632004 3.0268555 21.707184 -3.9818726 28.4813c-1.0108643 0.97702026 -1.5930786 -2.4668732 -1.5930786 -3.8485947c0 -3.1319275 3.282959 -5.483261 5.574951 -7.697197c7.74292 -7.479088 22.752258 -13.568703 31.85968 -7.698593c4.350586 2.804161 8.022583 9.060638 6.3707275 13.856064c-4.6306763 13.443298 -22.73059 30.975204 -35.840088 24.63411c-1.2105103 -0.5855255 2.628296 -0.7705612 3.9819336 -0.7705612c3.5421143 0 6.8809204 1.6381607 10.354126 2.3102798c7.916992 1.532074 8.459656 16.599197 3.9818726 23.092987c-4.8137207 6.9810333 -16.130005 13.760681 -23.892883 10.007462c-8.062439 -3.8980255 -12.752563 -19.247833 -6.3721924 -25.40326c1.1274414 -1.0877533 0 3.0794373 0 4.619156c0 3.3457031 0.41784668 6.874695 -0.79730225 10.007477c-2.2520752 5.8062897 -2.8326416 13.213165 -7.963806 16.935516c-4.4641724 3.2385101 -11.940186 3.545044 -16.726318 0.7691498c-9.1171875 -5.287781 -10.709351 -25.502365 -1.5930786 -30.79158c3.975525 -2.3065796 13.868042 -9.736313 12.744446 -5.3883057c-1.3648071 5.2812195 -11.09436 2.3088684 -16.72638 2.3088684c-11.672302 0 -30.617798 0.93666077 -33.451233 -10.007469c-2.007141 -7.752678 8.521606 -16.714088 16.72638 -17.704666c12.55957 -1.5163498 26.114258 0.68390656 37.433105 6.158882" fill-rule="evenodd"/><path fill="#000000" fill-opacity="0.0" d="m754.5868 113.39208c-3.6880493 0 -9.556885 1.823761 -9.556885 5.3883133c0 7.096916 9.664734 11.906158 16.724915 13.856064c8.373474 2.3126373 17.954285 -7.4106216 20.708252 -15.395782c1.7789307 -5.158142 -0.11773682 -14.075951 -5.574951 -15.39579c-7.9552 -1.9239578 -16.95581 4.953087 -21.505554 11.547195" fill-rule="evenodd"/><path stroke="#45818e" stroke-width="2.0" stroke-linejoin="round" stroke-linecap="butt" d="m754.5868 113.39208c-3.6880493 0 -9.556885 1.823761 -9.556885 5.3883133c0 7.096916 9.664734 11.906158 16.724915 13.856064c8.373474 2.3126373 17.954285 -7.4106216 20.708252 -15.395782c1.7789307 -5.158142 -0.11773682 -14.075951 -5.574951 -15.39579c-7.9552 -1.9239578 -16.95581 4.953087 -21.505554 11.547195" fill-rule="evenodd"/><path fill="#000000" fill-opacity="0.0" d="m296.26187 192.8822c10.434387 -11.689835 22.287811 -39.13884 10.010864 -48.311035c-8.339478 -6.2304993 -23.246338 -1.2186127 -29.26175 7.7642517c-5.7510986 8.588135 -2.9265137 24.32721 3.849884 31.91896c0.97735596 1.0949554 1.5402527 -2.764618 1.5402527 -4.3131104c0 -3.5099487 -3.1741028 -6.145096 -5.3901367 -8.626236c-7.4861755 -8.381821 -21.997955 -15.206451 -30.803406 -8.627823c-4.206375 3.142624 -7.7566223 10.154251 -6.159546 15.528488c4.4771423 15.065887 21.97699 34.713882 34.651886 27.607437c1.1703796 -0.6562042 -2.5411377 -0.86357117 -3.849884 -0.86357117c-3.4247437 0 -6.6528015 1.8358765 -10.010864 2.5891266c-7.6545563 1.7169952 -8.179245 18.602707 -3.8499146 25.880295c4.6542053 7.823639 15.595245 15.421585 23.1008 11.215363c7.7951355 -4.368515 12.329742 -21.57103 6.1609497 -28.469421c-1.0900879 -1.2190399 0 3.451126 0 5.176697c0 3.7495117 -0.4039917 7.7044373 0.7708435 11.215363c2.1774292 6.5070953 2.7387695 14.807983 7.6997986 18.979614c4.316162 3.6293945 11.544312 3.972931 16.171814 0.8619995c8.81488 -5.9260254 10.354279 -28.580505 1.5402527 -34.508102c-3.84375 -2.5849915 -13.408325 -10.911499 -12.32193 -6.038681c1.3195496 5.9186554 10.726501 2.587555 16.171814 2.587555c11.28537 0 29.602783 1.0496979 32.342224 -11.215378c1.9406128 -8.688416 -8.239044 -18.73146 -16.171814 -19.841599c-12.143219 -1.6993713 -25.248505 0.766449 -36.19214 6.902252" fill-rule="evenodd"/><path stroke="#6fa8dc" stroke-width="1.0" stroke-linejoin="round" stroke-linecap="butt" d="m296.26187 192.8822c10.434387 -11.689835 22.287811 -39.13884 10.010864 -48.311035c-8.339478 -6.2304993 -23.246338 -1.2186127 -29.26175 7.7642517c-5.7510986 8.588135 -2.9265137 24.32721 3.849884 31.91896c0.97735596 1.0949554 1.5402527 -2.764618 1.5402527 -4.3131104c0 -3.5099487 -3.1741028 -6.145096 -5.3901367 -8.626236c-7.4861755 -8.381821 -21.997955 -15.206451 -30.803406 -8.627823c-4.206375 3.142624 -7.7566223 10.154251 -6.159546 15.528488c4.4771423 15.065887 21.97699 34.713882 34.651886 27.607437c1.1703796 -0.6562042 -2.5411377 -0.86357117 -3.849884 -0.86357117c-3.4247437 0 -6.6528015 1.8358765 -10.010864 2.5891266c-7.6545563 1.7169952 -8.179245 18.602707 -3.8499146 25.880295c4.6542053 7.823639 15.595245 15.421585 23.1008 11.215363c7.7951355 -4.368515 12.329742 -21.57103 6.1609497 -28.469421c-1.0900879 -1.2190399 0 3.451126 0 5.176697c0 3.7495117 -0.4039917 7.7044373 0.7708435 11.215363c2.1774292 6.5070953 2.7387695 14.807983 7.6997986 18.979614c4.316162 3.6293945 11.544312 3.972931 16.171814 0.8619995c8.81488 -5.9260254 10.354279 -28.580505 1.5402527 -34.508102c-3.84375 -2.5849915 -13.408325 -10.911499 -12.32193 -6.038681c1.3195496 5.9186554 10.726501 2.587555 16.171814 2.587555c11.28537 0 29.602783 1.0496979 32.342224 -11.215378c1.9406128 -8.688416 -8.239044 -18.73146 -16.171814 -19.841599c-12.143219 -1.6993713 -25.248505 0.766449 -36.19214 6.902252" fill-rule="evenodd"/><path fill="#000000" fill-opacity="0.0" d="m298.12372 193.73573c3.5657654 0 9.240051 2.0438843 9.240051 6.038681c0 7.9535065 -9.34433 13.343231 -16.17041 15.528488c-8.095917 2.5917664 -17.3591 -8.305084 -20.021729 -17.254059c-1.7199707 -5.780716 0.11383057 -15.774902 5.3901367 -17.254044c7.6914062 -2.156189 16.393646 5.5509186 20.792542 12.940933" fill-rule="evenodd"/><path stroke="#45818e" stroke-width="2.0" stroke-linejoin="round" stroke-linecap="butt" d="m298.12372 193.73573c3.5657654 0 9.240051 2.0438843 9.240051 6.038681c0 7.9535065 -9.34433 13.343231 -16.17041 15.528488c-8.095917 2.5917664 -17.3591 -8.305084 -20.021729 -17.254059c-1.7199707 -5.780716 0.11383057 -15.774902 5.3901367 -17.254044c7.6914062 -2.156189 16.393646 5.5509186 20.792542 12.940933" fill-rule="evenodd"/><path fill="#000000" fill-opacity="0.0" d="m559.2605 309.45486c8.69043 0 17.472046 -0.22763062 26.044495 1.1126404c4.8151245 0.75283813 17.658936 0.09301758 14.207275 3.3339233c-3.11969 2.9292297 -13.022278 1.9192505 -13.022278 -2.223297c0 -2.9868164 6.331665 0.62106323 9.46936 1.1126709c7.4365234 1.1651611 15.03009 1.2229614 22.493774 2.223297c2.3764038 0.31851196 8.54364 2.9139404 7.1036377 1.1106262c-13.39093 -16.76944 -39.061584 -25.001892 -47.35327 -44.461792c-2.041687 -4.7917175 -9.803894 -10.7977295 -5.9207764 -14.450409c4.932312 -4.639633 9.269714 9.815704 14.207275 14.450409c14.417725 13.533173 23.201477 33.675964 41.434692 42.238495c3.156372 1.4822998 4.5007324 -5.5848083 4.735718 -8.891144c0.97216797 -13.678864 0 -27.41858 0 -41.12787c0 -5.9396667 -5.1430664 -17.784317 1.1828613 -17.784317c4.119446 0 3.0961914 7.270157 3.5507202 11.114426c1.4805298 12.521057 0 25.195984 0 37.793976c0 5.1870117 -1.7488403 20.481232 0 15.561005c2.807495 -7.898468 4.5533447 -16.414642 9.471558 -23.343567" fill-rule="evenodd"/><path stroke="#ea9999" stroke-width="1.0" stroke-linejoin="round" stroke-linecap="butt" d="m559.2605 309.45486c8.69043 0 17.472046 -0.22763062 26.044495 1.1126404c4.8151245 0.75283813 17.658936 0.09301758 14.207275 3.3339233c-3.11969 2.9292297 -13.022278 1.9192505 -13.022278 -2.223297c0 -2.9868164 6.331665 0.62106323 9.46936 1.1126709c7.4365234 1.1651611 15.03009 1.2229614 22.493774 2.223297c2.3764038 0.31851196 8.54364 2.9139404 7.1036377 1.1106262c-13.39093 -16.76944 -39.061584 -25.001892 -47.35327 -44.461792c-2.041687 -4.7917175 -9.803894 -10.7977295 -5.9207764 -14.450409c4.932312 -4.639633 9.269714 9.815704 14.207275 14.450409c14.417725 13.533173 23.201477 33.675964 41.434692 42.238495c3.156372 1.4822998 4.5007324 -5.5848083 4.735718 -8.891144c0.97216797 -13.678864 0 -27.41858 0 -41.12787c0 -5.9396667 -5.1430664 -17.784317 1.1828613 -17.784317c4.119446 0 3.0961914 7.270157 3.5507202 11.114426c1.4805298 12.521057 0 25.195984 0 37.793976c0 5.1870117 -1.7488403 20.481232 0 15.561005c2.807495 -7.898468 4.5533447 -16.414642 9.471558 -23.343567" fill-rule="evenodd"/><path fill="#000000" fill-opacity="0.0" d="m665.8071 263.88303c-9.2092285 11.117767 -17.725525 22.737885 -26.044495 34.458008c-2.8447876 4.007843 -4.298279 8.767944 -5.91864 13.337738c-0.44958496 1.2678833 -3.7181396 2.9136047 -2.367859 3.3359375c4.5549316 1.4247437 9.418335 -2.54422 14.207275 -2.223297c12.125061 0.81256104 23.720764 5.0126953 35.513855 7.7805176c3.9971313 0.93814087 13.141602 -0.33633423 11.8394165 3.3339233c-2.6221924 7.3907166 -16.615723 1.972229 -24.861694 1.1126709c-10.618347 -1.1068726 -21.451904 -0.42871094 -31.963135 -2.223297c-4.675537 -0.7982483 -10.846924 -4.2677917 -14.207275 -1.1126709c-1.5029907 1.4112244 4.0197754 1.3305054 5.9207764 2.223297c25.432373 11.944061 5.014221 2.854187 14.205139 7.7825623c15.841064 8.494324 35.843567 16.331726 42.61969 32.23471c3.081726 7.232544 -15.590576 -5.6829224 -22.493774 -10.003815c-6.8327637 -4.2767944 -14.319336 -7.887726 -20.125916 -13.339752c-4.147949 -3.8946838 -7.156189 -11.114441 -13.022278 -11.114441c-6.362732 0 -1.7922974 11.834564 -2.367859 17.784302c-0.9100952 9.40741 -5.9084473 18.885406 -13.022278 25.56485c-0.59368896 0.5574341 -4.45697 6.669861 -4.735718 6.669861c-3.2542114 0 -2.3657227 -5.8377075 -2.3657227 -8.893158c0 -14.123322 -0.09741211 -28.536926 3.5507202 -42.238525c0.77160645 -2.8979797 7.4124146 -7.3187866 8.286499 -4.446594c3.6431274 11.970856 -13.322388 22.236237 -23.676636 30.013458c-9.956604 7.4785767 -26.501709 21.804718 -35.516052 13.337738c-13.647583 -12.81897 20.35675 -33.53186 37.88391 -41.1279c6.1221313 -2.6532288 12.265747 -5.7731934 18.940918 -6.6678467c2.3763428 -0.31851196 8.544067 -0.6923828 7.1036377 1.1106262c-5.171875 6.4737244 -16.471985 4.8160706 -24.861694 6.6698914c-10.713928 2.3673706 -21.023987 6.638092 -31.963135 7.7805176c-6.2749023 0.65530396 -12.627197 0 -18.940857 0c-1.5785522 0 -6.314331 0 -4.735779 0c20.705261 0 40.887146 -6.703003 61.560547 -7.7805176c4.727783 -0.24642944 9.470093 0 14.205139 0c2.367859 0 9.349976 0.70306396 7.1036377 0c-21.664612 -6.7805786 -44.683838 -10.421967 -65.11127 -20.00763c-4.0249634 -1.8887024 -12.076477 -3.7742615 -10.654358 -7.7825317c1.7636719 -4.9711 11.159241 0.9521179 16.572937 2.223297c13.935181 3.2720642 27.576294 7.5684814 41.434692 11.116455c5.543091 1.4191284 12.510315 8.261169 16.572998 4.446594c3.7953491 -3.5636292 -8.599304 -6.037964 -13.022278 -8.893188c-11.578796 -7.474579 -25.35498 -13.474548 -33.145996 -24.454193c-0.6564331 -0.92510986 1.2069092 -0.21786499 2.367859 0c15.248962 2.8614807 26.885925 15.2404175 37.881775 25.56485c3.7541504 3.5249023 6.9002075 7.591522 10.654358 11.116455c2.36792 2.223297 7.1036377 9.814087 7.1036377 6.6698914c0 -17.461884 -10.429993 -33.539307 -16.572998 -50.021057c-1.8155518 -4.8713074 -8.377136 -9.833466 -5.9207764 -14.450409c2.36615 -4.4473877 6.2333984 8.435944 7.1036377 13.339752c3.253479 18.33252 -4.1098633 38.952057 4.735779 55.57831c2.6037598 4.8939514 4.4154053 -10.361786 8.286499 -14.450409c9.869263 -10.42392 22.92041 -17.74762 34.330994 -26.67749c6.394409 -5.0042114 21.308777 -20.04309 21.308777 -12.227112c0 8.783386 -16.209595 8.882751 -24.859497 12.227112c-10.282288 3.9754639 -19.651306 9.781525 -29.597412 14.450378c-4.6019897 2.1602478 -8.610962 5.294159 -13.022278 7.7805176c-2.576477 1.4522095 -10.409424 5.330902 -8.286499 3.3339233c13.20929 -12.425415 37.90326 1.1191711 55.641968 6.6698914c10.045349 3.143341 28.412354 3.395752 28.412354 13.337738c0 4.2246704 -8.522827 3.3359375 -13.022217 3.3359375c-14.472595 0 -28.49121 -4.8349304 -42.61969 -7.780487c-4.1487427 -0.8649597 -14.845032 -1.6276245 -11.837219 -4.446594c3.268982 -3.0638123 8.640381 3.0751648 13.022217 4.446594c14.255188 4.4615784 28.38861 9.671051 41.434692 16.67163c4.7596436 2.5541077 18.081543 4.1427917 14.205078 7.7825623c-4.5422363 4.2648926 -12.725159 -1.8134155 -18.940857 -3.335968c-14.127808 -3.4606018 -28.177979 -7.5924683 -41.43463 -13.337738c-5.3269043 -2.3085938 -11.327637 -8.022827 -16.575195 -5.5592346c-3.7524414 1.7616577 5.7719116 5.741455 8.288696 8.893158c5.4031982 6.76651 8.5529785 14.888275 13.022217 22.230927c2.453308 4.030548 12.045715 12.227081 7.1015015 12.227081c-5.866089 0 -8.38678 -7.772766 -11.837219 -12.227081c-6.1277466 -7.910492 -13.161499 -15.203247 -18.940918 -23.341553c-4.1132812 -5.792145 -16.885925 -18.896973 -9.471497 -18.896973c12.902405 0 13.270874 21.39737 15.390137 33.34738c0.99139404 5.590271 8.948303 14.135315 3.5507202 16.671661c-3.0354614 1.4263611 -4.40094 -4.929718 -5.918579 -7.7805176c-6.1953735 -11.637695 -11.927246 -23.848114 -14.207275 -36.681305c-0.9113159 -5.1293335 -6.4364014 -17.207275 -1.1828613 -15.561035c15.291992 4.791931 -7.860779 30.29013 -17.758057 42.238525c-2.8251343 3.410614 -9.779236 10.534454 -11.837219 6.6698914c-4.845886 -9.099976 8.938293 -19.653503 17.75586 -25.566864c3.7584229 -2.5205383 17.64087 -4.4445496 13.022278 -4.4445496c-16.80243 0 -33.56537 -3.4479065 -49.72119 -7.7825623c-4.93219 -1.3233032 -14.205078 -0.7408447 -14.205078 -5.5572205c0 -4.816803 10.329895 -0.7919922 15.390137 0c13.761841 2.1539307 27.531006 4.470154 41.43463 5.5572205c1.9660645 0.15371704 6.800293 1.657135 5.91864 0c-7.2495117 -13.626129 -27.270264 -17.616669 -36.698914 -30.011414c-2.7713013 -3.6430664 -9.290161 -9.061432 -5.918579 -12.227112c4.5425415 -4.265167 9.078247 8.578461 13.022217 13.339783c9.837585 11.876343 20.405823 23.243073 29.595276 35.568634c3.5352783 4.7417603 5.9907837 15.169128 11.839355 13.339752c4.2686157 -1.3351746 3.2698364 -8.010834 3.5507812 -12.227081c1.0394897 -15.602325 0.5282593 -31.856262 -4.735779 -46.687164c-2.178772 -6.1384583 -7.819824 -13.108734 -4.735779 -18.894928c0.7282715 -1.366333 1.1850586 2.9186707 1.1850586 4.446594c0 5.606415 0.9435425 12.006378 -2.36792 16.67163c-3.7268677 5.2506104 -0.94226074 12.910919 1.1828613 18.897003c2.725525 7.6772766 1.0147705 17.615997 7.1036377 23.343567" fill-rule="evenodd"/><path stroke="#ea9999" stroke-width="1.0" stroke-linejoin="round" stroke-linecap="butt" d="m665.8071 263.88303c-9.2092285 11.117767 -17.725525 22.737885 -26.044495 34.458008c-2.8447876 4.007843 -4.298279 8.767944 -5.91864 13.337738c-0.44958496 1.2678833 -3.7181396 2.9136047 -2.367859 3.3359375c4.5549316 1.4247437 9.418335 -2.54422 14.207275 -2.223297c12.125061 0.81256104 23.720764 5.0126953 35.513855 7.7805176c3.9971313 0.93814087 13.141602 -0.33633423 11.8394165 3.3339233c-2.6221924 7.3907166 -16.615723 1.972229 -24.861694 1.1126709c-10.618347 -1.1068726 -21.451904 -0.42871094 -31.963135 -2.223297c-4.675537 -0.7982483 -10.846924 -4.2677917 -14.207275 -1.1126709c-1.5029907 1.4112244 4.0197754 1.3305054 5.9207764 2.223297c25.432373 11.944061 5.014221 2.854187 14.205139 7.7825623c15.841064 8.494324 35.843567 16.331726 42.61969 32.23471c3.081726 7.232544 -15.590576 -5.6829224 -22.493774 -10.003815c-6.8327637 -4.2767944 -14.319336 -7.887726 -20.125916 -13.339752c-4.147949 -3.8946838 -7.156189 -11.114441 -13.022278 -11.114441c-6.362732 0 -1.7922974 11.834564 -2.367859 17.784302c-0.9100952 9.40741 -5.9084473 18.885406 -13.022278 25.56485c-0.59368896 0.5574341 -4.45697 6.669861 -4.735718 6.669861c-3.2542114 0 -2.3657227 -5.8377075 -2.3657227 -8.893158c0 -14.123322 -0.09741211 -28.536926 3.5507202 -42.238525c0.77160645 -2.8979797 7.4124146 -7.3187866 8.286499 -4.446594c3.6431274 11.970856 -13.322388 22.236237 -23.676636 30.013458c-9.956604 7.4785767 -26.501709 21.804718 -35.516052 13.337738c-13.647583 -12.81897 20.35675 -33.53186 37.88391 -41.1279c6.1221313 -2.6532288 12.265747 -5.7731934 18.940918 -6.6678467c2.3763428 -0.31851196 8.544067 -0.6923828 7.1036377 1.1106262c-5.171875 6.4737244 -16.471985 4.8160706 -24.861694 6.6698914c-10.713928 2.3673706 -21.023987 6.638092 -31.963135 7.7805176c-6.2749023 0.65530396 -12.627197 0 -18.940857 0c-1.5785522 0 -6.314331 0 -4.735779 0c20.705261 0 40.887146 -6.703003 61.560547 -7.7805176c4.727783 -0.24642944 9.470093 0 14.205139 0c2.367859 0 9.349976 0.70306396 7.1036377 0c-21.664612 -6.7805786 -44.683838 -10.421967 -65.11127 -20.00763c-4.0249634 -1.8887024 -12.076477 -3.7742615 -10.654358 -7.7825317c1.7636719 -4.9711 11.159241 0.9521179 16.572937 2.223297c13.935181 3.2720642 27.576294 7.5684814 41.434692 11.116455c5.543091 1.4191284 12.510315 8.261169 16.572998 4.446594c3.7953491 -3.5636292 -8.599304 -6.037964 -13.022278 -8.893188c-11.578796 -7.474579 -25.35498 -13.474548 -33.145996 -24.454193c-0.6564331 -0.92510986 1.2069092 -0.21786499 2.367859 0c15.248962 2.8614807 26.885925 15.2404175 37.881775 25.56485c3.7541504 3.5249023 6.9002075 7.591522 10.654358 11.116455c2.36792 2.223297 7.1036377 9.814087 7.1036377 6.6698914c0 -17.461884 -10.429993 -33.539307 -16.572998 -50.021057c-1.8155518 -4.8713074 -8.377136 -9.833466 -5.9207764 -14.450409c2.36615 -4.4473877 6.2333984 8.435944 7.1036377 13.339752c3.253479 18.33252 -4.1098633 38.952057 4.735779 55.57831c2.6037598 4.8939514 4.4154053 -10.361786 8.286499 -14.450409c9.869263 -10.42392 22.92041 -17.74762 34.330994 -26.67749c6.394409 -5.0042114 21.308777 -20.04309 21.308777 -12.227112c0 8.783386 -16.209595 8.882751 -24.859497 12.227112c-10.282288 3.9754639 -19.651306 9.781525 -29.597412 14.450378c-4.6019897 2.1602478 -8.610962 5.294159 -13.022278 7.7805176c-2.576477 1.4522095 -10.409424 5.330902 -8.286499 3.3339233c13.20929 -12.425415 37.90326 1.1191711 55.641968 6.6698914c10.045349 3.143341 28.412354 3.395752 28.412354 13.337738c0 4.2246704 -8.522827 3.3359375 -13.022217 3.3359375c-14.472595 0 -28.49121 -4.8349304 -42.61969 -7.780487c-4.1487427 -0.8649597 -14.845032 -1.6276245 -11.837219 -4.446594c3.268982 -3.0638123 8.640381 3.0751648 13.022217 4.446594c14.255188 4.4615784 28.38861 9.671051 41.434692 16.67163c4.7596436 2.5541077 18.081543 4.1427917 14.205078 7.7825623c-4.5422363 4.2648926 -12.725159 -1.8134155 -18.940857 -3.335968c-14.127808 -3.4606018 -28.177979 -7.5924683 -41.43463 -13.337738c-5.3269043 -2.3085938 -11.327637 -8.022827 -16.575195 -5.5592346c-3.7524414 1.7616577 5.7719116 5.741455 8.288696 8.893158c5.4031982 6.76651 8.5529785 14.888275 13.022217 22.230927c2.453308 4.030548 12.045715 12.227081 7.1015015 12.227081c-5.866089 0 -8.38678 -7.772766 -11.837219 -12.227081c-6.1277466 -7.910492 -13.161499 -15.203247 -18.940918 -23.341553c-4.1132812 -5.792145 -16.885925 -18.896973 -9.471497 -18.896973c12.902405 0 13.270874 21.39737 15.390137 33.34738c0.99139404 5.590271 8.948303 14.135315 3.5507202 16.671661c-3.0354614 1.4263611 -4.40094 -4.929718 -5.918579 -7.7805176c-6.1953735 -11.637695 -11.927246 -23.848114 -14.207275 -36.681305c-0.9113159 -5.1293335 -6.4364014 -17.207275 -1.1828613 -15.561035c15.291992 4.791931 -7.860779 30.29013 -17.758057 42.238525c-2.8251343 3.410614 -9.779236 10.534454 -11.837219 6.6698914c-4.845886 -9.099976 8.938293 -19.653503 17.75586 -25.566864c3.7584229 -2.5205383 17.64087 -4.4445496 13.022278 -4.4445496c-16.80243 0 -33.56537 -3.4479065 -49.72119 -7.7825623c-4.93219 -1.3233032 -14.205078 -0.7408447 -14.205078 -5.5572205c0 -4.816803 10.329895 -0.7919922 15.390137 0c13.761841 2.1539307 27.531006 4.470154 41.43463 5.5572205c1.9660645 0.15371704 6.800293 1.657135 5.91864 0c-7.2495117 -13.626129 -27.270264 -17.616669 -36.698914 -30.011414c-2.7713013 -3.6430664 -9.290161 -9.061432 -5.918579 -12.227112c4.5425415 -4.265167 9.078247 8.578461 13.022217 13.339783c9.837585 11.876343 20.405823 23.243073 29.595276 35.568634c3.5352783 4.7417603 5.9907837 15.169128 11.839355 13.339752c4.2686157 -1.3351746 3.2698364 -8.010834 3.5507812 -12.227081c1.0394897 -15.602325 0.5282593 -31.856262 -4.735779 -46.687164c-2.178772 -6.1384583 -7.819824 -13.108734 -4.735779 -18.894928c0.7282715 -1.366333 1.1850586 2.9186707 1.1850586 4.446594c0 5.606415 0.9435425 12.006378 -2.36792 16.67163c-3.7268677 5.2506104 -0.94226074 12.910919 1.1828613 18.897003c2.725525 7.6772766 1.0147705 17.615997 7.1036377 23.343567" fill-rule="evenodd"/><path fill="#000000" fill-opacity="0.0" d="m102.280464 515.1485c7.7628937 0 15.607155 -0.24194336 23.264618 1.1825562c4.3011703 0.8001709 15.7741165 0.09887695 12.690849 3.543457c-2.7867126 3.1132812 -11.632309 2.039795 -11.632309 -2.363037c0 -3.1744995 5.6558533 0.6600952 8.458633 1.1826172c6.6427765 1.2383423 13.425827 1.2997437 20.09288 2.362976c2.1227417 0.33850098 7.631729 3.097046 6.345413 1.1804199c-11.961609 -17.823212 -34.89229 -26.572968 -42.298958 -47.255737c-1.8237762 -5.092804 -8.757462 -11.476227 -5.2888184 -15.358429c4.405861 -4.931183 8.280273 10.432526 12.690849 15.358429c12.878799 14.383606 20.725006 35.792145 37.01207 44.89276c2.8195038 1.5754395 4.0203857 -5.935791 4.2302856 -9.44986c0.8684082 -14.538452 0 -29.14154 0 -43.71231c0 -6.3128967 -4.594116 -18.901855 1.0566101 -18.901855c3.6797333 0 2.7657013 7.7269897 3.1717377 11.812836c1.3224792 13.307861 0 26.779266 0 40.168884c0 5.51297 -1.5621948 21.76828 0 16.538849c2.5078125 -8.394775 4.067337 -17.446106 8.460571 -24.810425" fill-rule="evenodd"/><path stroke="#f6b26b" stroke-width="1.0" stroke-linejoin="round" stroke-linecap="butt" d="m102.280464 515.1485c7.7628937 0 15.607155 -0.24194336 23.264618 1.1825562c4.3011703 0.8001709 15.7741165 0.09887695 12.690849 3.543457c-2.7867126 3.1132812 -11.632309 2.039795 -11.632309 -2.363037c0 -3.1744995 5.6558533 0.6600952 8.458633 1.1826172c6.6427765 1.2383423 13.425827 1.2997437 20.09288 2.362976c2.1227417 0.33850098 7.631729 3.097046 6.345413 1.1804199c-11.961609 -17.823212 -34.89229 -26.572968 -42.298958 -47.255737c-1.8237762 -5.092804 -8.757462 -11.476227 -5.2888184 -15.358429c4.405861 -4.931183 8.280273 10.432526 12.690849 15.358429c12.878799 14.383606 20.725006 35.792145 37.01207 44.89276c2.8195038 1.5754395 4.0203857 -5.935791 4.2302856 -9.44986c0.8684082 -14.538452 0 -29.14154 0 -43.71231c0 -6.3128967 -4.594116 -18.901855 1.0566101 -18.901855c3.6797333 0 2.7657013 7.7269897 3.1717377 11.812836c1.3224792 13.307861 0 26.779266 0 40.168884c0 5.51297 -1.5621948 21.76828 0 16.538849c2.5078125 -8.394775 4.067337 -17.446106 8.460571 -24.810425" fill-rule="evenodd"/><path fill="#000000" fill-opacity="0.0" d="m197.45473 466.71298c-8.226257 11.816406 -15.833557 24.166687 -23.264618 36.62329c-2.541153 4.2597046 -3.8394928 9.318939 -5.2868805 14.175873c-0.4015808 1.3475342 -3.321289 3.0966797 -2.1151428 3.5455933c4.068802 1.5142822 8.413101 -2.7041016 12.690842 -2.363037c10.830917 0.86364746 21.18892 5.3276978 31.723251 8.26947c3.5705109 0.9970703 11.738907 -0.3574829 10.575714 3.543396c-2.3423004 7.8551636 -14.842194 2.0961914 -22.208023 1.1826172c-9.48497 -1.1764526 -19.162216 -0.45568848 -28.551498 -2.363037c-4.1764984 -0.8483887 -9.689209 -4.5359497 -12.690857 -1.1825562c-1.3425751 1.4998779 3.5906982 1.4140625 5.2888184 2.362976c22.717789 12.694641 4.479004 3.0335693 12.688919 8.271606c14.150284 9.028076 32.01776 17.357971 38.070618 34.260315c2.7527924 7.6870117 -13.926498 -6.040039 -20.09288 -10.632446c-6.103409 -4.545532 -12.790909 -8.383362 -17.977737 -14.17804c-3.7052155 -4.1394043 -6.3923492 -11.812866 -11.632309 -11.812866c-5.6836395 0 -1.6009979 12.578247 -2.1151428 18.901917c-0.8129425 9.998535 -5.277817 20.072144 -11.632309 27.171265c-0.5303345 0.59246826 -3.981247 7.0889893 -4.2302856 7.0889893c-2.9068298 0 -2.113205 -6.204529 -2.113205 -9.451965c0 -15.010803 -0.087020874 -30.33014 3.171753 -44.89276c0.6892395 -3.0800781 6.6212006 -7.7786865 7.4020233 -4.726013c3.2542877 12.7230835 -11.900421 23.633545 -21.149475 31.899475c-8.893906 7.9485474 -23.673042 23.174866 -31.725197 14.175842c-12.190903 -13.624451 18.183945 -35.638916 33.840324 -43.71228c5.4686584 -2.8200073 10.956543 -6.1359863 16.919205 -7.086853c2.1227417 -0.338562 7.6321106 -0.7359009 6.3454285 1.1804199c-4.619812 6.880493 -14.713821 5.1187134 -22.208023 7.0889893c-9.570366 2.5161133 -18.77996 7.055237 -28.551506 8.269409c-5.605171 0.6965332 -11.279465 0 -16.919197 0c-1.4100952 0 -5.640381 0 -4.2302856 0c18.495255 0 36.522987 -7.1242065 54.989807 -8.269409c4.2231445 -0.26190186 8.459274 0 12.688919 0c2.1151428 0 8.35202 0.7472534 6.3454285 0c-19.352203 -7.206665 -39.914474 -11.076843 -58.16156 -21.264893c-3.5953293 -2.0073853 -10.787491 -4.0114136 -9.517166 -8.271576c1.5754623 -5.283478 9.968178 1.0119629 14.804054 2.3630066c12.447792 3.4776917 24.632881 8.044067 37.012077 11.815002c4.9514313 1.5083008 11.175034 8.780334 14.804047 4.726013c3.390274 -3.7875366 -7.6814117 -6.4173584 -11.632309 -9.452026c-10.342941 -7.9442444 -22.648682 -14.321259 -29.608109 -25.990845c-0.58638763 -0.98324585 1.0780792 -0.23153687 2.1151428 0c13.621307 3.0412903 24.016205 16.19809 33.838394 27.171265c3.3534546 3.74646 6.1637115 8.0686035 9.517166 11.815063c2.1151428 2.362976 6.3454285 10.430786 6.3454285 7.0889893c0 -18.559143 -9.316772 -35.64685 -14.804062 -53.164337c-1.6217957 -5.177368 -7.4829865 -10.451355 -5.2888184 -15.358429c2.1135864 -4.7268677 5.568039 8.966064 6.3454285 14.178009c2.906189 19.484528 -3.6712036 41.39975 4.2302856 59.07077c2.325821 5.201477 3.9441376 -11.012878 7.4020233 -15.358459c8.815887 -11.078918 20.473953 -18.862854 30.666641 -28.353851c5.711899 -5.3186646 19.034348 -21.302582 19.034348 -12.995453c0 9.335327 -14.479416 9.4409485 -22.206085 12.995453c-9.184769 4.225281 -17.553772 10.396179 -26.438309 15.358429c-4.110794 2.2960205 -7.691864 5.626831 -11.632309 8.269409c-2.3014832 1.543457 -9.298386 5.6658936 -7.4020233 3.543457c11.799362 -13.206207 33.85759 1.1894531 49.702927 7.0889893c8.973145 3.3408813 25.37976 3.6091309 25.37976 14.175842c0 4.4901733 -7.613159 3.5455933 -11.632309 3.5455933c-12.927841 0 -25.45015 -5.138794 -38.070618 -8.269409c-3.7059326 -0.9193115 -13.260544 -1.7298584 -10.573776 -4.726013c2.920105 -3.2563477 7.71817 3.2683716 11.632309 4.726013c12.733643 4.7419434 25.35852 10.278748 37.012085 17.7193c4.251663 2.7145386 16.151627 4.403076 12.688904 8.271545c-4.057434 4.532959 -11.366928 -1.9273682 -16.91919 -3.5455933c-12.619873 -3.6780396 -25.170395 -8.069519 -37.01207 -14.175842c-4.7583313 -2.4536743 -10.11853 -8.526978 -14.806 -5.9085693c-3.351944 1.8723755 5.1558533 6.102234 7.403961 9.452026c4.826538 7.1916504 7.640091 15.8237915 11.632309 23.627869c2.1914215 4.2838135 10.76001 12.995422 6.3434906 12.995422c-5.2399597 0 -7.4915924 -8.26123 -10.573761 -12.995422c-5.4736633 -8.407593 -11.756653 -16.15863 -16.919205 -24.808289c-3.6742554 -6.156128 -15.083588 -20.084473 -8.460556 -20.084473c11.525223 0 11.854401 22.741943 13.747452 35.44287c0.88557434 5.9415894 7.99321 15.023621 3.1717377 17.7193c-2.7114716 1.5159912 -3.9312286 -5.239502 -5.2868805 -8.269409c-5.5341034 -12.369019 -10.654175 -25.34668 -12.690857 -38.98633c-0.81404114 -5.45166 -5.7493896 -18.288574 -1.0565948 -16.53888c13.659805 5.0930786 -7.0217285 32.193542 -15.862595 44.89276c-2.52359 3.624939 -8.735489 11.196411 -10.573776 7.0889893c-4.328659 -9.671814 7.984253 -20.888489 15.860657 -27.173462c3.357254 -2.678894 15.757965 -4.723816 11.632309 -4.723816c-15.009003 0 -29.982727 -3.6645508 -44.4141 -8.271606c-4.405739 -1.4064941 -12.688911 -0.7873535 -12.688911 -5.906433c0 -5.119446 9.227333 -0.84173584 13.747452 0c12.292969 2.2893066 24.592468 4.7510986 37.01207 5.906433c1.7562256 0.16339111 6.0744324 1.7612915 5.2868958 0c-6.4757233 -14.482361 -24.359512 -18.723663 -32.7818 -31.897278c-2.4754791 -3.8720093 -8.298546 -9.630859 -5.2868805 -12.995453c4.0576935 -4.533203 8.109306 9.117493 11.632309 14.17804c8.787552 12.622589 18.227753 24.703644 26.43637 37.80368c3.1579285 5.039734 5.351364 16.122375 10.575699 14.17804c3.8129883 -1.4190674 2.9208221 -8.514221 3.171753 -12.995422c0.92855835 -16.582764 0.4718933 -33.858063 -4.2302856 -49.62091c-1.946228 -6.52417 -6.9851837 -13.932465 -4.2302856 -20.082275c0.65052795 -1.4522095 1.0585327 3.1021118 1.0585327 4.726013c0 5.9587097 0.8428345 12.760864 -2.1151428 17.719269c-3.3291168 5.5805664 -0.8416748 13.722229 1.0566101 20.084442c2.434616 8.159729 0.90644836 18.722961 6.3454285 24.810425" fill-rule="evenodd"/><path stroke="#f6b26b" stroke-width="1.0" stroke-linejoin="round" stroke-linecap="butt" d="m197.45473 466.71298c-8.226257 11.816406 -15.833557 24.166687 -23.264618 36.62329c-2.541153 4.2597046 -3.8394928 9.318939 -5.2868805 14.175873c-0.4015808 1.3475342 -3.321289 3.0966797 -2.1151428 3.5455933c4.068802 1.5142822 8.413101 -2.7041016 12.690842 -2.363037c10.830917 0.86364746 21.18892 5.3276978 31.723251 8.26947c3.5705109 0.9970703 11.738907 -0.3574829 10.575714 3.543396c-2.3423004 7.8551636 -14.842194 2.0961914 -22.208023 1.1826172c-9.48497 -1.1764526 -19.162216 -0.45568848 -28.551498 -2.363037c-4.1764984 -0.8483887 -9.689209 -4.5359497 -12.690857 -1.1825562c-1.3425751 1.4998779 3.5906982 1.4140625 5.2888184 2.362976c22.717789 12.694641 4.479004 3.0335693 12.688919 8.271606c14.150284 9.028076 32.01776 17.357971 38.070618 34.260315c2.7527924 7.6870117 -13.926498 -6.040039 -20.09288 -10.632446c-6.103409 -4.545532 -12.790909 -8.383362 -17.977737 -14.17804c-3.7052155 -4.1394043 -6.3923492 -11.812866 -11.632309 -11.812866c-5.6836395 0 -1.6009979 12.578247 -2.1151428 18.901917c-0.8129425 9.998535 -5.277817 20.072144 -11.632309 27.171265c-0.5303345 0.59246826 -3.981247 7.0889893 -4.2302856 7.0889893c-2.9068298 0 -2.113205 -6.204529 -2.113205 -9.451965c0 -15.010803 -0.087020874 -30.33014 3.171753 -44.89276c0.6892395 -3.0800781 6.6212006 -7.7786865 7.4020233 -4.726013c3.2542877 12.7230835 -11.900421 23.633545 -21.149475 31.899475c-8.893906 7.9485474 -23.673042 23.174866 -31.725197 14.175842c-12.190903 -13.624451 18.183945 -35.638916 33.840324 -43.71228c5.4686584 -2.8200073 10.956543 -6.1359863 16.919205 -7.086853c2.1227417 -0.338562 7.6321106 -0.7359009 6.3454285 1.1804199c-4.619812 6.880493 -14.713821 5.1187134 -22.208023 7.0889893c-9.570366 2.5161133 -18.77996 7.055237 -28.551506 8.269409c-5.605171 0.6965332 -11.279465 0 -16.919197 0c-1.4100952 0 -5.640381 0 -4.2302856 0c18.495255 0 36.522987 -7.1242065 54.989807 -8.269409c4.2231445 -0.26190186 8.459274 0 12.688919 0c2.1151428 0 8.35202 0.7472534 6.3454285 0c-19.352203 -7.206665 -39.914474 -11.076843 -58.16156 -21.264893c-3.5953293 -2.0073853 -10.787491 -4.0114136 -9.517166 -8.271576c1.5754623 -5.283478 9.968178 1.0119629 14.804054 2.3630066c12.447792 3.4776917 24.632881 8.044067 37.012077 11.815002c4.9514313 1.5083008 11.175034 8.780334 14.804047 4.726013c3.390274 -3.7875366 -7.6814117 -6.4173584 -11.632309 -9.452026c-10.342941 -7.9442444 -22.648682 -14.321259 -29.608109 -25.990845c-0.58638763 -0.98324585 1.0780792 -0.23153687 2.1151428 0c13.621307 3.0412903 24.016205 16.19809 33.838394 27.171265c3.3534546 3.74646 6.1637115 8.0686035 9.517166 11.815063c2.1151428 2.362976 6.3454285 10.430786 6.3454285 7.0889893c0 -18.559143 -9.316772 -35.64685 -14.804062 -53.164337c-1.6217957 -5.177368 -7.4829865 -10.451355 -5.2888184 -15.358429c2.1135864 -4.7268677 5.568039 8.966064 6.3454285 14.178009c2.906189 19.484528 -3.6712036 41.39975 4.2302856 59.07077c2.325821 5.201477 3.9441376 -11.012878 7.4020233 -15.358459c8.815887 -11.078918 20.473953 -18.862854 30.666641 -28.353851c5.711899 -5.3186646 19.034348 -21.302582 19.034348 -12.995453c0 9.335327 -14.479416 9.4409485 -22.206085 12.995453c-9.184769 4.225281 -17.553772 10.396179 -26.438309 15.358429c-4.110794 2.2960205 -7.691864 5.626831 -11.632309 8.269409c-2.3014832 1.543457 -9.298386 5.6658936 -7.4020233 3.543457c11.799362 -13.206207 33.85759 1.1894531 49.702927 7.0889893c8.973145 3.3408813 25.37976 3.6091309 25.37976 14.175842c0 4.4901733 -7.613159 3.5455933 -11.632309 3.5455933c-12.927841 0 -25.45015 -5.138794 -38.070618 -8.269409c-3.7059326 -0.9193115 -13.260544 -1.7298584 -10.573776 -4.726013c2.920105 -3.2563477 7.71817 3.2683716 11.632309 4.726013c12.733643 4.7419434 25.35852 10.278748 37.012085 17.7193c4.251663 2.7145386 16.151627 4.403076 12.688904 8.271545c-4.057434 4.532959 -11.366928 -1.9273682 -16.91919 -3.5455933c-12.619873 -3.6780396 -25.170395 -8.069519 -37.01207 -14.175842c-4.7583313 -2.4536743 -10.11853 -8.526978 -14.806 -5.9085693c-3.351944 1.8723755 5.1558533 6.102234 7.403961 9.452026c4.826538 7.1916504 7.640091 15.8237915 11.632309 23.627869c2.1914215 4.2838135 10.76001 12.995422 6.3434906 12.995422c-5.2399597 0 -7.4915924 -8.26123 -10.573761 -12.995422c-5.4736633 -8.407593 -11.756653 -16.15863 -16.919205 -24.808289c-3.6742554 -6.156128 -15.083588 -20.084473 -8.460556 -20.084473c11.525223 0 11.854401 22.741943 13.747452 35.44287c0.88557434 5.9415894 7.99321 15.023621 3.1717377 17.7193c-2.7114716 1.5159912 -3.9312286 -5.239502 -5.2868805 -8.269409c-5.5341034 -12.369019 -10.654175 -25.34668 -12.690857 -38.98633c-0.81404114 -5.45166 -5.7493896 -18.288574 -1.0565948 -16.53888c13.659805 5.0930786 -7.0217285 32.193542 -15.862595 44.89276c-2.52359 3.624939 -8.735489 11.196411 -10.573776 7.0889893c-4.328659 -9.671814 7.984253 -20.888489 15.860657 -27.173462c3.357254 -2.678894 15.757965 -4.723816 11.632309 -4.723816c-15.009003 0 -29.982727 -3.6645508 -44.4141 -8.271606c-4.405739 -1.4064941 -12.688911 -0.7873535 -12.688911 -5.906433c0 -5.119446 9.227333 -0.84173584 13.747452 0c12.292969 2.2893066 24.592468 4.7510986 37.01207 5.906433c1.7562256 0.16339111 6.0744324 1.7612915 5.2868958 0c-6.4757233 -14.482361 -24.359512 -18.723663 -32.7818 -31.897278c-2.4754791 -3.8720093 -8.298546 -9.630859 -5.2868805 -12.995453c4.0576935 -4.533203 8.109306 9.117493 11.632309 14.17804c8.787552 12.622589 18.227753 24.703644 26.43637 37.80368c3.1579285 5.039734 5.351364 16.122375 10.575699 14.17804c3.8129883 -1.4190674 2.9208221 -8.514221 3.171753 -12.995422c0.92855835 -16.582764 0.4718933 -33.858063 -4.2302856 -49.62091c-1.946228 -6.52417 -6.9851837 -13.932465 -4.2302856 -20.082275c0.65052795 -1.4522095 1.0585327 3.1021118 1.0585327 4.726013c0 5.9587097 0.8428345 12.760864 -2.1151428 17.719269c-3.3291168 5.5805664 -0.8416748 13.722229 1.0566101 20.084442c2.434616 8.159729 0.90644836 18.722961 6.3454285 24.810425" fill-rule="evenodd"/><path fill="#000000" fill-opacity="0.0" d="m814.0584 605.31366c-11.689819 -10.434326 -39.138855 -22.28778 -48.311035 -10.010803c-6.2304688 8.339478 -1.2186279 23.246277 7.764221 29.261719c8.588135 5.7510986 24.32727 2.9265137 31.919006 -3.8499146c1.0949097 -0.97735596 -2.7646484 -1.5402222 -4.3131104 -1.5402222c-3.5099487 0 -6.1450806 3.1741333 -8.626282 5.3901367c-8.381775 7.486206 -15.206421 21.997925 -8.627808 30.803406c3.1426392 4.20636 10.154297 7.756653 15.528503 6.159546c15.065918 -4.477112 34.713867 -21.97699 27.607422 -34.651855c-0.65618896 -1.1704102 -0.8635864 2.5410767 -0.8635864 3.8498535c0 3.4247437 1.8359375 6.652832 2.5891724 10.010864c1.71698 7.654541 18.602722 8.17926 25.880249 3.8499146c7.8236694 -4.654175 15.421631 -15.595276 11.215393 -23.100769c-4.3685303 -7.795166 -21.571045 -12.329773 -28.469421 -6.1610107c-1.2190552 1.0901489 3.4511108 0 5.176697 0c3.7495117 0 7.704468 0.40405273 11.215393 -0.770813c6.50708 -2.1774292 14.807983 -2.7387695 18.979614 -7.699768c3.6293335 -4.316223 3.9729004 -11.544373 0.8619385 -16.171814c-5.9259644 -8.81488 -28.580444 -10.354309 -34.508057 -1.5402832c-2.585022 3.84375 -10.911499 13.408325 -6.0386963 12.32196c5.91864 -1.3195801 2.5875244 -10.7265625 2.5875244 -16.171814c0 -11.2854 1.0497437 -29.602783 -11.215332 -32.342285c-8.688416 -1.9405518 -18.731506 8.239075 -19.841614 16.171875c-1.6994019 12.143188 0.7664795 25.248474 6.9022217 36.192078" fill-rule="evenodd"/><path stroke="#6fa8dc" stroke-width="1.0" stroke-linejoin="round" stroke-linecap="butt" d="m814.0584 605.31366c-11.689819 -10.434326 -39.138855 -22.28778 -48.311035 -10.010803c-6.2304688 8.339478 -1.2186279 23.246277 7.764221 29.261719c8.588135 5.7510986 24.32727 2.9265137 31.919006 -3.8499146c1.0949097 -0.97735596 -2.7646484 -1.5402222 -4.3131104 -1.5402222c-3.5099487 0 -6.1450806 3.1741333 -8.626282 5.3901367c-8.381775 7.486206 -15.206421 21.997925 -8.627808 30.803406c3.1426392 4.20636 10.154297 7.756653 15.528503 6.159546c15.065918 -4.477112 34.713867 -21.97699 27.607422 -34.651855c-0.65618896 -1.1704102 -0.8635864 2.5410767 -0.8635864 3.8498535c0 3.4247437 1.8359375 6.652832 2.5891724 10.010864c1.71698 7.654541 18.602722 8.17926 25.880249 3.8499146c7.8236694 -4.654175 15.421631 -15.595276 11.215393 -23.100769c-4.3685303 -7.795166 -21.571045 -12.329773 -28.469421 -6.1610107c-1.2190552 1.0901489 3.4511108 0 5.176697 0c3.7495117 0 7.704468 0.40405273 11.215393 -0.770813c6.50708 -2.1774292 14.807983 -2.7387695 18.979614 -7.699768c3.6293335 -4.316223 3.9729004 -11.544373 0.8619385 -16.171814c-5.9259644 -8.81488 -28.580444 -10.354309 -34.508057 -1.5402832c-2.585022 3.84375 -10.911499 13.408325 -6.0386963 12.32196c5.91864 -1.3195801 2.5875244 -10.7265625 2.5875244 -16.171814c0 -11.2854 1.0497437 -29.602783 -11.215332 -32.342285c-8.688416 -1.9405518 -18.731506 8.239075 -19.841614 16.171875c-1.6994019 12.143188 0.7664795 25.248474 6.9022217 36.192078" fill-rule="evenodd"/><path fill="#000000" fill-opacity="0.0" d="m814.9119 603.45184c0 -3.565796 2.0438843 -9.240051 6.0386963 -9.240051c7.953491 0 13.343201 9.344299 15.528503 16.17041c2.5917358 8.095886 -8.305115 17.35913 -17.25409 20.021729c-5.7807007 1.7199707 -15.774902 -0.11383057 -17.254028 -5.3901367c-2.156189 -7.6914062 5.5509033 -16.393616 12.940918 -20.792542" fill-rule="evenodd"/><path stroke="#45818e" stroke-width="2.0" stroke-linejoin="round" stroke-linecap="butt" d="m814.9119 603.45184c0 -3.565796 2.0438843 -9.240051 6.0386963 -9.240051c7.953491 0 13.343201 9.344299 15.528503 16.17041c2.5917358 8.095886 -8.305115 17.35913 -17.25409 20.021729c-5.7807007 1.7199707 -15.774902 -0.11383057 -17.254028 -5.3901367c-2.156189 -7.6914062 5.5509033 -16.393616 12.940918 -20.792542" fill-rule="evenodd"/></g></svg>